<ttFont>
    <TTGlyph name="A" xMin="57" yMin="32" xMax="1171" yMax="1429">
      <contour>
        <pt x="862" y="578" on="1"/>
        <pt x="934" y="578" on="0"/>
        <pt x="934" y="612" on="1"/>
        <pt x="934" y="621" on="1"/>
        <pt x="934" y="668" on="0"/>
        <pt x="851" y="1194" on="0"/>
        <pt x="833" y="1250" on="0"/>
        <pt x="819" y="1250" on="0"/>
        <pt x="475" y="638" on="0"/>
        <pt x="475" y="604" on="1"/>
        <pt x="475" y="597" on="1"/>
        <pt x="475" y="579" on="0"/>
        <pt x="696" y="579" on="1"/>
        <pt x="775" y="578" on="1"/>
      </contour>
      <contour>
        <pt x="860" y="1429" on="1"/>
        <pt x="862" y="1429" on="0"/>
        <pt x="863" y="1429" on="1"/>
        <pt x="912" y="1429" on="0"/>
        <pt x="936" y="1400" on="1"/>
        <pt x="979" y="1346" on="0"/>
        <pt x="1022" y="1064" on="1"/>
        <pt x="1028" y="1012" on="1"/>
        <pt x="1032" y="977" on="0"/>
        <pt x="1035" y="961" on="1"/>
        <pt x="1053" y="864" on="1"/>
        <pt x="1057" y="840" on="1"/>
        <pt x="1072" y="760" on="0"/>
        <pt x="1101" y="480" on="0"/>
        <pt x="1114" y="402" on="0"/>
        <pt x="1171" y="128" on="0"/>
        <pt x="1171" y="94" on="1"/>
        <pt x="1171" y="76" on="1"/>
        <pt x="1171" y="37" on="0"/>
        <pt x="1059" y="37" on="0"/>
        <pt x="1026" y="89" on="1"/>
        <pt x="1009" y="116" on="0"/>
        <pt x="956" y="387" on="0"/>
        <pt x="918" y="411" on="1"/>
        <pt x="854" y="452" on="0"/>
        <pt x="556" y="452" on="1"/>
        <pt x="447" y="452" on="0"/>
        <pt x="360" y="363" on="0"/>
        <pt x="224" y="101" on="0"/>
        <pt x="208" y="82" on="1"/>
        <pt x="167" y="32" on="0"/>
        <pt x="99" y="32" on="1"/>
        <pt x="80" y="32" on="1"/>
        <pt x="57" y="32" on="0"/>
        <pt x="57" y="53" on="1"/>
        <pt x="57" y="100" on="0"/>
        <pt x="105" y="190" on="1"/>
        <pt x="226" y="417" on="0"/>
        <pt x="320" y="620" on="0"/>
        <pt x="433" y="825" on="0"/>
        <pt x="510" y="980" on="0"/>
        <pt x="728" y="1343" on="0"/>
        <pt x="807" y="1429" on="0"/>
      </contour>
    </TTGlyph>
    <TTGlyph name="AE" xMin="160" yMin="72" xMax="1737" yMax="1372">
      <contour>
        <pt x="867" y="570" on="1"/>
        <pt x="906" y="570" on="0"/>
        <pt x="906" y="609" on="1"/>
        <pt x="899" y="653" on="1"/>
        <pt x="899" y="656" on="0"/>
        <pt x="1002" y="1070" on="0"/>
        <pt x="1023" y="1116" on="0"/>
        <pt x="1032" y="1134" on="1"/>
        <pt x="1052" y="1180" on="1"/>
        <pt x="1061" y="1199" on="1"/>
        <pt x="1076" y="1233" on="0"/>
        <pt x="1076" y="1234" on="1"/>
        <pt x="1076" y="1253" on="1"/>
        <pt x="1076" y="1292" on="0"/>
        <pt x="1048" y="1292" on="1"/>
        <pt x="1013" y="1292" on="0"/>
        <pt x="988" y="1251" on="1"/>
        <pt x="980" y="1238" on="0"/>
        <pt x="913" y="1090" on="0"/>
        <pt x="876" y="1013" on="0"/>
        <pt x="844" y="893" on="0"/>
        <pt x="822" y="862" on="0"/>
        <pt x="584" y="648" on="0"/>
        <pt x="584" y="645" on="1"/>
        <pt x="584" y="630" on="0"/>
        <pt x="601" y="623" on="1"/>
        <pt x="706" y="581" on="0"/>
        <pt x="802" y="581" on="0"/>
        <pt x="839" y="570" on="1"/>
      </contour>
      <contour>
        <pt x="825" y="463" on="0"/>
        <pt x="612" y="463" on="0"/>
        <pt x="534" y="412" on="1"/>
        <pt x="491" y="384" on="0"/>
        <pt x="287" y="153" on="0"/>
        <pt x="268" y="139" on="1"/>
        <pt x="213" y="98" on="0"/>
        <pt x="170" y="98" on="1"/>
        <pt x="160" y="108" on="1"/>
        <pt x="160" y="148" on="0"/>
        <pt x="216" y="240" on="1"/>
        <pt x="594" y="861" on="0"/>
        <pt x="913" y="1274" on="0"/>
        <pt x="955" y="1301" on="1"/>
        <pt x="1022" y="1345" on="0"/>
        <pt x="1115" y="1345" on="1"/>
        <pt x="1152" y="1344" on="1"/>
        <pt x="1189" y="1341" on="1"/>
        <pt x="1265" y="1341" on="1"/>
        <pt x="1369" y="1341" on="0"/>
        <pt x="1416" y="1347" on="1"/>
        <pt x="1456" y="1353" on="1"/>
        <pt x="1497" y="1360" on="1"/>
        <pt x="1529" y="1365" on="0"/>
        <pt x="1578" y="1369" on="1"/>
        <pt x="1617" y="1372" on="1"/>
        <pt x="1737" y="1372" on="0"/>
        <pt x="1737" y="1346" on="1"/>
        <pt x="1737" y="1299" on="0"/>
        <pt x="1361" y="1299" on="0"/>
        <pt x="1322" y="1247" on="1"/>
        <pt x="1298" y="1216" on="0"/>
        <pt x="1236" y="934" on="0"/>
        <pt x="1236" y="853" on="0"/>
        <pt x="1574" y="825" on="0"/>
        <pt x="1655" y="796" on="0"/>
        <pt x="1655" y="696" on="0"/>
        <pt x="1508" y="696" on="1"/>
        <pt x="1422" y="696" on="0"/>
        <pt x="1226" y="652" on="0"/>
        <pt x="1169" y="609" on="0"/>
        <pt x="1142" y="495" on="0"/>
        <pt x="1142" y="331" on="1"/>
        <pt x="1142" y="219" on="0"/>
        <pt x="1191" y="189" on="1"/>
        <pt x="1220" y="171" on="0"/>
        <pt x="1397" y="171" on="1"/>
        <pt x="1549" y="180" on="1"/>
        <pt x="1617" y="180" on="0"/>
        <pt x="1617" y="140" on="1"/>
        <pt x="1617" y="95" on="0"/>
        <pt x="1530" y="72" on="0"/>
        <pt x="1431" y="72" on="1"/>
        <pt x="1391" y="72" on="1"/>
        <pt x="1188" y="79" on="1"/>
        <pt x="1008" y="79" on="0"/>
        <pt x="983" y="90" on="1"/>
        <pt x="914" y="120" on="0"/>
        <pt x="914" y="248" on="1"/>
        <pt x="916" y="286" on="1"/>
        <pt x="922" y="360" on="1"/>
        <pt x="922" y="417" on="0"/>
        <pt x="863" y="445" on="1"/>
      </contour>
    </TTGlyph>
    <TTGlyph name="Aacute" xMin="86" yMin="81" xMax="1185" yMax="1883">
      <contour>
        <pt x="893" y="640" on="1"/>
        <pt x="959" y="640" on="0"/>
        <pt x="959" y="681" on="1"/>
        <pt x="959" y="744" on="0"/>
        <pt x="869" y="1313" on="0"/>
        <pt x="850" y="1313" on="1"/>
        <pt x="837" y="1313" on="0"/>
        <pt x="753" y="1153" on="0"/>
        <pt x="729" y="1113" on="0"/>
        <pt x="711" y="1079" on="1"/>
        <pt x="691" y="1044" on="1"/>
        <pt x="621" y="918" on="0"/>
        <pt x="594" y="864" on="0"/>
        <pt x="488" y="673" on="0"/>
        <pt x="488" y="639" on="0"/>
        <pt x="696" y="639" on="1"/>
        <pt x="726" y="638" on="1"/>
        <pt x="864" y="638" on="1"/>
        <pt x="884" y="640" on="0"/>
      </contour>
      <contour>
        <pt x="1112" y="1883" on="1"/>
        <pt x="1121" y="1883" on="1"/>
        <pt x="1145" y="1883" on="0"/>
        <pt x="1145" y="1876" on="1"/>
        <pt x="1145" y="1873" on="1"/>
        <pt x="1145" y="1868" on="0"/>
        <pt x="834" y="1557" on="0"/>
        <pt x="780" y="1557" on="1"/>
        <pt x="776" y="1557" on="1"/>
        <pt x="756" y="1557" on="0"/>
        <pt x="756" y="1570" on="1"/>
        <pt x="756" y="1574" on="1"/>
        <pt x="756" y="1625" on="0"/>
        <pt x="1005" y="1843" on="1"/>
        <pt x="1051" y="1883" on="0"/>
      </contour>
      <contour>
        <pt x="885" y="1459" on="1"/>
        <pt x="927" y="1459" on="0"/>
        <pt x="948" y="1416" on="1"/>
        <pt x="961" y="1390" on="0"/>
        <pt x="1018" y="1144" on="0"/>
        <pt x="1038" y="993" on="0"/>
        <pt x="1076" y="814" on="0"/>
        <pt x="1088" y="716" on="1"/>
        <pt x="1093" y="669" on="1"/>
        <pt x="1096" y="643" on="0"/>
        <pt x="1129" y="403" on="0"/>
        <pt x="1130" y="400" on="1"/>
        <pt x="1185" y="147" on="0"/>
        <pt x="1185" y="135" on="1"/>
        <pt x="1185" y="88" on="0"/>
        <pt x="1151" y="88" on="1"/>
        <pt x="1079" y="88" on="0"/>
        <pt x="1047" y="144" on="1"/>
        <pt x="1036" y="164" on="0"/>
        <pt x="971" y="415" on="0"/>
        <pt x="943" y="433" on="1"/>
        <pt x="861" y="485" on="0"/>
        <pt x="575" y="485" on="1"/>
        <pt x="471" y="485" on="0"/>
        <pt x="374" y="397" on="0"/>
        <pt x="241" y="157" on="0"/>
        <pt x="232" y="147" on="1"/>
        <pt x="176" y="81" on="0"/>
        <pt x="118" y="81" on="1"/>
        <pt x="86" y="81" on="0"/>
        <pt x="86" y="105" on="1"/>
        <pt x="86" y="157" on="0"/>
        <pt x="127" y="234" on="1"/>
        <pt x="254" y="472" on="0"/>
        <pt x="384" y="766" on="0"/>
        <pt x="749" y="1374" on="0"/>
        <pt x="770" y="1401" on="1"/>
        <pt x="816" y="1459" on="0"/>
      </contour>
    </TTGlyph>
    <TTGlyph name="Acircumflex" xMin="84" yMin="71" xMax="1183" yMax="1854">
      <contour>
        <pt x="954" y="702" on="1"/>
        <pt x="954" y="795" on="0"/>
        <pt x="921" y="952" on="1"/>
        <pt x="918" y="972" on="1"/>
        <pt x="910" y="1011" on="1"/>
        <pt x="907" y="1030" on="1"/>
        <pt x="893" y="1097" on="1"/>
        <pt x="877" y="1202" on="0"/>
        <pt x="847" y="1301" on="0"/>
        <pt x="836" y="1301" on="0"/>
        <pt x="750" y="1155" on="1"/>
        <pt x="481" y="698" on="0"/>
        <pt x="481" y="648" on="1"/>
        <pt x="481" y="642" on="1"/>
        <pt x="481" y="631" on="0"/>
        <pt x="712" y="631" on="1"/>
        <pt x="851" y="628" on="1"/>
        <pt x="880" y="628" on="1"/>
        <pt x="957" y="628" on="0"/>
        <pt x="957" y="666" on="1"/>
        <pt x="954" y="693" on="0"/>
      </contour>
      <contour>
        <pt x="894" y="1854" on="0"/>
        <pt x="995" y="1854" on="0"/>
        <pt x="1045" y="1770" on="1"/>
        <pt x="1050" y="1762" on="0"/>
        <pt x="1161" y="1617" on="0"/>
        <pt x="1161" y="1587" on="1"/>
        <pt x="1161" y="1582" on="1"/>
        <pt x="1161" y="1566" on="0"/>
        <pt x="1136" y="1566" on="1"/>
        <pt x="1076" y="1566" on="0"/>
        <pt x="1022" y="1650" on="1"/>
        <pt x="942" y="1775" on="0"/>
        <pt x="925" y="1775" on="1"/>
        <pt x="924" y="1775" on="0"/>
        <pt x="690" y="1559" on="0"/>
        <pt x="633" y="1559" on="1"/>
        <pt x="626" y="1559" on="1"/>
        <pt x="610" y="1559" on="0"/>
        <pt x="610" y="1569" on="1"/>
        <pt x="610" y="1594" on="0"/>
        <pt x="835" y="1800" on="1"/>
      </contour>
      <contour>
        <pt x="1183" y="124" on="1"/>
        <pt x="1183" y="77" on="0"/>
        <pt x="1149" y="77" on="1"/>
        <pt x="1078" y="77" on="0"/>
        <pt x="1045" y="133" on="1"/>
        <pt x="1030" y="158" on="0"/>
        <pt x="975" y="401" on="0"/>
        <pt x="942" y="422" on="1"/>
        <pt x="860" y="474" on="0"/>
        <pt x="573" y="474" on="1"/>
        <pt x="470" y="474" on="0"/>
        <pt x="371" y="386" on="0"/>
        <pt x="250" y="160" on="0"/>
        <pt x="230" y="136" on="1"/>
        <pt x="175" y="71" on="0"/>
        <pt x="116" y="71" on="1"/>
        <pt x="101" y="71" on="1"/>
        <pt x="84" y="71" on="0"/>
        <pt x="84" y="94" on="1"/>
        <pt x="84" y="150" on="0"/>
        <pt x="187" y="336" on="0"/>
        <pt x="393" y="768" on="0"/>
        <pt x="727" y="1337" on="0"/>
        <pt x="816" y="1449" on="0"/>
        <pt x="924" y="1449" on="0"/>
        <pt x="961" y="1374" on="0"/>
        <pt x="1018" y="1123" on="0"/>
        <pt x="1044" y="935" on="0"/>
        <pt x="1076" y="795" on="0"/>
        <pt x="1119" y="429" on="0"/>
        <pt x="1183" y="136" on="0"/>
      </contour>
    </TTGlyph>
    <TTGlyph name="Adieresis" xMin="84" yMin="67" xMax="1183" yMax="1808">
      <contour>
        <pt x="891" y="624" on="1"/>
        <pt x="947" y="624" on="0"/>
        <pt x="947" y="656" on="1"/>
        <pt x="947" y="664" on="1"/>
        <pt x="947" y="689" on="0"/>
        <pt x="902" y="992" on="1"/>
        <pt x="848" y="1284" on="0"/>
        <pt x="834" y="1295" on="1"/>
        <pt x="822" y="1295" on="0"/>
        <pt x="749" y="1158" on="1"/>
        <pt x="480" y="650" on="0"/>
        <pt x="480" y="641" on="1"/>
        <pt x="480" y="624" on="0"/>
        <pt x="686" y="624" on="1"/>
        <pt x="815" y="622" on="1"/>
        <pt x="863" y="622" on="1"/>
        <pt x="881" y="624" on="0"/>
      </contour>
      <contour>
        <pt x="799" y="1805" on="1"/>
        <pt x="842" y="1805" on="0"/>
        <pt x="842" y="1756" on="1"/>
        <pt x="842" y="1733" on="1"/>
        <pt x="837" y="1708" on="1"/>
        <pt x="837" y="1693" on="0"/>
        <pt x="789" y="1633" on="0"/>
        <pt x="758" y="1633" on="1"/>
        <pt x="752" y="1631" on="0"/>
        <pt x="749" y="1631" on="1"/>
        <pt x="734" y="1629" on="1"/>
        <pt x="716" y="1629" on="1"/>
        <pt x="661" y="1629" on="0"/>
        <pt x="661" y="1680" on="1"/>
        <pt x="661" y="1700" on="1"/>
        <pt x="665" y="1723" on="1"/>
        <pt x="665" y="1743" on="0"/>
        <pt x="712" y="1802" on="0"/>
        <pt x="734" y="1802" on="1"/>
        <pt x="746" y="1806" on="0"/>
        <pt x="748" y="1806" on="1"/>
        <pt x="766" y="1808" on="1"/>
        <pt x="781" y="1808" on="1"/>
        <pt x="793" y="1805" on="0"/>
      </contour>
      <contour>
        <pt x="1167" y="1713" on="1"/>
        <pt x="1167" y="1664" on="0"/>
        <pt x="1077" y="1574" on="0"/>
        <pt x="1020" y="1574" on="1"/>
        <pt x="1010" y="1579" on="0"/>
        <pt x="1005" y="1579" on="1"/>
        <pt x="984" y="1579" on="0"/>
        <pt x="984" y="1621" on="1"/>
        <pt x="984" y="1638" on="1"/>
        <pt x="990" y="1661" on="1"/>
        <pt x="990" y="1693" on="0"/>
        <pt x="1090" y="1773" on="0"/>
        <pt x="1110" y="1773" on="1"/>
        <pt x="1127" y="1776" on="1"/>
        <pt x="1143" y="1776" on="1"/>
        <pt x="1159" y="1772" on="1"/>
        <pt x="1173" y="1772" on="0"/>
        <pt x="1173" y="1749" on="1"/>
        <pt x="1174" y="1744" on="1"/>
        <pt x="1167" y="1714" on="0"/>
      </contour>
      <contour>
        <pt x="883" y="1445" on="1"/>
        <pt x="941" y="1445" on="0"/>
        <pt x="974" y="1312" on="1"/>
        <pt x="975" y="1307" on="0"/>
        <pt x="1114" y="457" on="1"/>
        <pt x="1126" y="385" on="0"/>
        <pt x="1183" y="170" on="0"/>
        <pt x="1183" y="73" on="0"/>
        <pt x="1149" y="73" on="1"/>
        <pt x="1078" y="73" on="0"/>
        <pt x="1045" y="129" on="1"/>
        <pt x="1034" y="148" on="0"/>
        <pt x="969" y="401" on="0"/>
        <pt x="941" y="419" on="1"/>
        <pt x="859" y="471" on="0"/>
        <pt x="573" y="471" on="1"/>
        <pt x="470" y="471" on="0"/>
        <pt x="374" y="386" on="0"/>
        <pt x="241" y="147" on="0"/>
        <pt x="230" y="133" on="1"/>
        <pt x="176" y="67" on="0"/>
        <pt x="116" y="67" on="1"/>
        <pt x="84" y="67" on="0"/>
        <pt x="84" y="90" on="1"/>
        <pt x="84" y="145" on="0"/>
        <pt x="125" y="220" on="1"/>
        <pt x="233" y="418" on="0"/>
        <pt x="254" y="460" on="0"/>
        <pt x="282" y="526" on="1"/>
        <pt x="362" y="712" on="0"/>
        <pt x="727" y="1335" on="0"/>
        <pt x="815" y="1445" on="0"/>
      </contour>
    </TTGlyph>
    <TTGlyph name="Agrave" xMin="89" yMin="82" xMax="1187" yMax="1883">
      <contour>
        <pt x="837" y="1313" on="0"/>
        <pt x="825" y="1313" on="0"/>
        <pt x="483" y="697" on="0"/>
        <pt x="483" y="660" on="1"/>
        <pt x="483" y="639" on="0"/>
        <pt x="707" y="639" on="1"/>
        <pt x="865" y="635" on="1"/>
        <pt x="955" y="635" on="0"/>
        <pt x="955" y="682" on="1"/>
        <pt x="955" y="705" on="0"/>
        <pt x="936" y="825" on="1"/>
        <pt x="934" y="834" on="1"/>
        <pt x="931" y="853" on="1"/>
        <pt x="927" y="873" on="1"/>
        <pt x="921" y="912" on="1"/>
        <pt x="918" y="917" on="0"/>
        <pt x="876" y="1203" on="0"/>
      </contour>
      <contour>
        <pt x="992" y="1564" on="1"/>
        <pt x="984" y="1564" on="1"/>
        <pt x="937" y="1564" on="0"/>
        <pt x="773" y="1774" on="0"/>
        <pt x="752" y="1789" on="1"/>
        <pt x="682" y="1839" on="0"/>
        <pt x="682" y="1874" on="1"/>
        <pt x="682" y="1883" on="0"/>
        <pt x="712" y="1883" on="1"/>
        <pt x="733" y="1883" on="1"/>
        <pt x="792" y="1883" on="0"/>
        <pt x="868" y="1794" on="1"/>
        <pt x="1009" y="1629" on="0"/>
        <pt x="1009" y="1582" on="1"/>
        <pt x="1009" y="1575" on="1"/>
        <pt x="1009" y="1564" on="0"/>
      </contour>
      <contour>
        <pt x="887" y="1460" on="1"/>
        <pt x="929" y="1460" on="0"/>
        <pt x="966" y="1385" on="0"/>
        <pt x="1023" y="1128" on="0"/>
        <pt x="1046" y="963" on="0"/>
        <pt x="1081" y="801" on="0"/>
        <pt x="1125" y="429" on="0"/>
        <pt x="1137" y="377" on="1"/>
        <pt x="1187" y="168" on="0"/>
        <pt x="1187" y="88" on="0"/>
        <pt x="1153" y="88" on="1"/>
        <pt x="1083" y="88" on="0"/>
        <pt x="1050" y="144" on="1"/>
        <pt x="1039" y="163" on="0"/>
        <pt x="974" y="415" on="0"/>
        <pt x="946" y="434" on="1"/>
        <pt x="867" y="486" on="0"/>
        <pt x="577" y="486" on="1"/>
        <pt x="474" y="486" on="0"/>
        <pt x="378" y="399" on="0"/>
        <pt x="245" y="160" on="0"/>
        <pt x="235" y="148" on="1"/>
        <pt x="179" y="82" on="0"/>
        <pt x="120" y="82" on="1"/>
        <pt x="89" y="82" on="0"/>
        <pt x="89" y="105" on="1"/>
        <pt x="89" y="160" on="0"/>
        <pt x="130" y="235" on="1"/>
        <pt x="249" y="454" on="0"/>
        <pt x="368" y="729" on="0"/>
        <pt x="727" y="1341" on="0"/>
        <pt x="818" y="1460" on="0"/>
      </contour>
    </TTGlyph>
    <TTGlyph name="Aring" xMin="81" yMin="57" xMax="1181" yMax="1925">
      <contour>
        <pt x="892" y="1856" on="1"/>
        <pt x="847" y="1856" on="0"/>
        <pt x="783" y="1792" on="0"/>
        <pt x="783" y="1761" on="1"/>
        <pt x="781" y="1755" on="0"/>
        <pt x="781" y="1751" on="1"/>
        <pt x="780" y="1737" on="1"/>
        <pt x="780" y="1733" on="1"/>
        <pt x="784" y="1706" on="1"/>
        <pt x="784" y="1685" on="0"/>
        <pt x="837" y="1642" on="0"/>
        <pt x="862" y="1642" on="1"/>
        <pt x="884" y="1642" on="1"/>
        <pt x="921" y="1642" on="0"/>
        <pt x="989" y="1710" on="0"/>
        <pt x="989" y="1754" on="1"/>
        <pt x="989" y="1765" on="1"/>
        <pt x="985" y="1792" on="1"/>
        <pt x="985" y="1808" on="0"/>
        <pt x="940" y="1853" on="0"/>
        <pt x="923" y="1853" on="1"/>
        <pt x="909" y="1856" on="1"/>
      </contour>
      <contour>
        <pt x="868" y="619" on="1"/>
        <pt x="951" y="619" on="0"/>
        <pt x="951" y="652" on="1"/>
        <pt x="951" y="660" on="1"/>
        <pt x="951" y="701" on="0"/>
        <pt x="831" y="1300" on="0"/>
        <pt x="821" y="1300" on="1"/>
        <pt x="817" y="1300" on="1"/>
        <pt x="814" y="1300" on="0"/>
        <pt x="478" y="666" on="0"/>
        <pt x="478" y="640" on="1"/>
        <pt x="478" y="621" on="0"/>
        <pt x="710" y="621" on="1"/>
        <pt x="819" y="619" on="1"/>
      </contour>
      <contour>
        <pt x="702" y="1720" on="1"/>
        <pt x="702" y="1744" on="1"/>
        <pt x="704" y="1754" on="0"/>
        <pt x="704" y="1761" on="1"/>
        <pt x="704" y="1819" on="0"/>
        <pt x="825" y="1925" on="0"/>
        <pt x="899" y="1925" on="1"/>
        <pt x="906" y="1925" on="1"/>
        <pt x="967" y="1925" on="0"/>
        <pt x="1066" y="1848" on="0"/>
        <pt x="1066" y="1790" on="1"/>
        <pt x="1068" y="1778" on="1"/>
        <pt x="1068" y="1755" on="1"/>
        <pt x="1066" y="1743" on="0"/>
        <pt x="1066" y="1738" on="1"/>
        <pt x="1066" y="1673" on="0"/>
        <pt x="941" y="1575" on="0"/>
        <pt x="882" y="1575" on="1"/>
        <pt x="852" y="1575" on="1"/>
        <pt x="797" y="1575" on="0"/>
        <pt x="702" y="1658" on="0"/>
      </contour>
      <contour>
        <pt x="865" y="1470" on="1"/>
        <pt x="908" y="1470" on="0"/>
        <pt x="933" y="1425" on="1"/>
        <pt x="979" y="1341" on="0"/>
        <pt x="1023" y="1118" on="1"/>
        <pt x="1181" y="312" on="0"/>
        <pt x="1181" y="143" on="1"/>
        <pt x="1181" y="121" on="1"/>
        <pt x="1181" y="57" on="0"/>
        <pt x="1140" y="57" on="1"/>
        <pt x="1044" y="57" on="0"/>
        <pt x="1015" y="131" on="1"/>
        <pt x="1011" y="141" on="0"/>
        <pt x="1004" y="200" on="0"/>
        <pt x="965" y="438" on="0"/>
        <pt x="953" y="453" on="1"/>
        <pt x="916" y="497" on="0"/>
        <pt x="626" y="497" on="1"/>
        <pt x="458" y="497" on="0"/>
        <pt x="367" y="416" on="0"/>
        <pt x="275" y="212" on="1"/>
        <pt x="251" y="160" on="0"/>
        <pt x="226" y="128" on="1"/>
        <pt x="180" y="69" on="0"/>
        <pt x="95" y="69" on="1"/>
        <pt x="81" y="69" on="0"/>
        <pt x="81" y="80" on="1"/>
        <pt x="81" y="91" on="1"/>
        <pt x="81" y="151" on="0"/>
        <pt x="224" y="409" on="0"/>
        <pt x="304" y="631" on="0"/>
        <pt x="314" y="651" on="1"/>
        <pt x="496" y="1007" on="0"/>
        <pt x="521" y="1049" on="1"/>
        <pt x="714" y="1378" on="0"/>
        <pt x="739" y="1412" on="1"/>
        <pt x="781" y="1470" on="0"/>
      </contour>
    </TTGlyph>
    <TTGlyph name="Atilde" xMin="80" yMin="62" xMax="1216" yMax="1760">
      <contour>
        <pt x="951" y="676" on="0"/>
        <pt x="951" y="726" on="0"/>
        <pt x="886" y="1161" on="0"/>
        <pt x="846" y="1288" on="0"/>
        <pt x="840" y="1288" on="1"/>
        <pt x="836" y="1288" on="1"/>
        <pt x="831" y="1288" on="0"/>
        <pt x="738" y="1130" on="1"/>
        <pt x="477" y="686" on="0"/>
        <pt x="477" y="638" on="1"/>
        <pt x="477" y="622" on="0"/>
        <pt x="706" y="622" on="1"/>
        <pt x="816" y="619" on="1"/>
        <pt x="874" y="619" on="1"/>
        <pt x="953" y="619" on="0"/>
        <pt x="953" y="649" on="1"/>
        <pt x="953" y="658" on="1"/>
      </contour>
      <contour>
        <pt x="1192" y="1760" on="1"/>
        <pt x="1205" y="1760" on="1"/>
        <pt x="1216" y="1760" on="0"/>
        <pt x="1216" y="1749" on="1"/>
        <pt x="1216" y="1742" on="1"/>
        <pt x="1216" y="1689" on="0"/>
        <pt x="1099" y="1601" on="0"/>
        <pt x="1011" y="1601" on="1"/>
        <pt x="980" y="1603" on="1"/>
        <pt x="948" y="1603" on="0"/>
        <pt x="814" y="1670" on="0"/>
        <pt x="736" y="1670" on="0"/>
        <pt x="625" y="1568" on="0"/>
        <pt x="606" y="1568" on="1"/>
        <pt x="592" y="1568" on="1"/>
        <pt x="578" y="1568" on="0"/>
        <pt x="578" y="1586" on="1"/>
        <pt x="578" y="1636" on="0"/>
        <pt x="724" y="1760" on="0"/>
        <pt x="784" y="1760" on="1"/>
        <pt x="808" y="1760" on="1"/>
        <pt x="865" y="1760" on="0"/>
        <pt x="998" y="1662" on="0"/>
        <pt x="1084" y="1662" on="0"/>
        <pt x="1165" y="1760" on="0"/>
      </contour>
      <contour>
        <pt x="1179" y="116" on="1"/>
        <pt x="1179" y="69" on="0"/>
        <pt x="1145" y="69" on="1"/>
        <pt x="1073" y="69" on="0"/>
        <pt x="1041" y="125" on="1"/>
        <pt x="1027" y="150" on="0"/>
        <pt x="970" y="393" on="0"/>
        <pt x="938" y="414" on="1"/>
        <pt x="856" y="466" on="0"/>
        <pt x="569" y="466" on="1"/>
        <pt x="466" y="466" on="0"/>
        <pt x="364" y="374" on="0"/>
        <pt x="244" y="149" on="0"/>
        <pt x="227" y="128" on="1"/>
        <pt x="171" y="62" on="0"/>
        <pt x="112" y="62" on="1"/>
        <pt x="80" y="62" on="0"/>
        <pt x="80" y="86" on="1"/>
        <pt x="80" y="138" on="0"/>
        <pt x="121" y="215" on="1"/>
        <pt x="172" y="304" on="1"/>
        <pt x="233" y="412" on="0"/>
        <pt x="316" y="608" on="0"/>
        <pt x="329" y="632" on="1"/>
        <pt x="484" y="922" on="0"/>
        <pt x="725" y="1332" on="0"/>
        <pt x="811" y="1440" on="0"/>
        <pt x="920" y="1440" on="0"/>
        <pt x="957" y="1366" on="0"/>
        <pt x="1016" y="1105" on="0"/>
        <pt x="1034" y="949" on="0"/>
        <pt x="1071" y="792" on="0"/>
        <pt x="1116" y="418" on="0"/>
        <pt x="1179" y="128" on="0"/>
      </contour>
    </TTGlyph>
    <TTGlyph name="B" xMin="141" yMin="18" xMax="1128" yMax="1425">
      <contour>
        <pt x="540" y="1300" on="1"/>
        <pt x="499" y="1300" on="0"/>
        <pt x="490" y="1260" on="1"/>
        <pt x="423" y="975" on="0"/>
        <pt x="423" y="848" on="1"/>
        <pt x="423" y="840" on="1"/>
        <pt x="423" y="816" on="0"/>
        <pt x="450" y="816" on="1"/>
        <pt x="532" y="816" on="1"/>
        <pt x="541" y="817" on="1"/>
        <pt x="595" y="817" on="1"/>
        <pt x="660" y="819" on="1"/>
        <pt x="697" y="821" on="1"/>
        <pt x="817" y="821" on="0"/>
        <pt x="980" y="997" on="0"/>
        <pt x="980" y="1115" on="1"/>
        <pt x="979" y="1125" on="1"/>
        <pt x="979" y="1201" on="0"/>
        <pt x="869" y="1302" on="0"/>
        <pt x="770" y="1302" on="1"/>
        <pt x="750" y="1304" on="1"/>
        <pt x="621" y="1304" on="1"/>
        <pt x="612" y="1303" on="1"/>
        <pt x="585" y="1302" on="1"/>
        <pt x="567" y="1302" on="1"/>
        <pt x="549" y="1300" on="0"/>
      </contour>
      <contour>
        <pt x="667" y="696" on="1"/>
        <pt x="574" y="696" on="1"/>
        <pt x="411" y="696" on="0"/>
        <pt x="390" y="664" on="0"/>
        <pt x="367" y="511" on="1"/>
        <pt x="365" y="500" on="1"/>
        <pt x="362" y="480" on="1"/>
        <pt x="358" y="459" on="1"/>
        <pt x="356" y="440" on="0"/>
        <pt x="344" y="378" on="0"/>
        <pt x="332" y="294" on="0"/>
        <pt x="312" y="190" on="0"/>
        <pt x="312" y="173" on="1"/>
        <pt x="312" y="164" on="1"/>
        <pt x="312" y="143" on="0"/>
        <pt x="401" y="143" on="1"/>
        <pt x="411" y="143" on="1"/>
        <pt x="421" y="144" on="1"/>
        <pt x="473" y="144" on="1"/>
        <pt x="714" y="144" on="0"/>
        <pt x="796" y="200" on="1"/>
        <pt x="944" y="302" on="0"/>
        <pt x="944" y="465" on="1"/>
        <pt x="944" y="487" on="1"/>
        <pt x="944" y="584" on="0"/>
        <pt x="801" y="696" on="0"/>
      </contour>
      <contour>
        <pt x="1091" y="461" on="1"/>
        <pt x="1090" y="360" on="0"/>
        <pt x="1046" y="274" on="1"/>
        <pt x="915" y="18" on="0"/>
        <pt x="524" y="18" on="1"/>
        <pt x="366" y="18" on="1"/>
        <pt x="200" y="18" on="0"/>
        <pt x="141" y="29" on="0"/>
        <pt x="141" y="92" on="0"/>
        <pt x="246" y="683" on="1"/>
        <pt x="250" y="705" on="1"/>
        <pt x="257" y="750" on="1"/>
        <pt x="264" y="788" on="0"/>
        <pt x="265" y="796" on="1"/>
        <pt x="302" y="1021" on="1"/>
        <pt x="322" y="1134" on="0"/>
        <pt x="341" y="1331" on="0"/>
        <pt x="364" y="1403" on="0"/>
        <pt x="439" y="1425" on="0"/>
        <pt x="633" y="1425" on="1"/>
        <pt x="750" y="1425" on="1"/>
        <pt x="1016" y="1425" on="0"/>
        <pt x="1096" y="1277" on="1"/>
        <pt x="1128" y="1218" on="0"/>
        <pt x="1128" y="1152" on="1"/>
        <pt x="1128" y="1128" on="1"/>
        <pt x="1128" y="940" on="0"/>
        <pt x="978" y="823" on="1"/>
        <pt x="961" y="811" on="1"/>
        <pt x="925" y="790" on="1"/>
        <pt x="898" y="773" on="0"/>
        <pt x="898" y="763" on="1"/>
        <pt x="898" y="760" on="0"/>
        <pt x="964" y="717" on="1"/>
        <pt x="1091" y="635" on="0"/>
      </contour>
    </TTGlyph>
    <TTGlyph name="C" xMin="147" yMin="-15" xMax="1254" yMax="1433">
      <contour>
        <pt x="147" y="520" on="1"/>
        <pt x="147" y="550" on="1"/>
        <pt x="147" y="717" on="0"/>
        <pt x="255" y="1041" on="0"/>
        <pt x="452" y="1292" on="0"/>
        <pt x="718" y="1433" on="0"/>
        <pt x="865" y="1433" on="1"/>
        <pt x="894" y="1433" on="1"/>
        <pt x="1059" y="1433" on="0"/>
        <pt x="1143" y="1389" on="1"/>
        <pt x="1254" y="1331" on="0"/>
        <pt x="1254" y="1263" on="1"/>
        <pt x="1254" y="1246" on="0"/>
        <pt x="1211" y="1192" on="0"/>
        <pt x="1137" y="1192" on="0"/>
        <pt x="1046" y="1246" on="0"/>
        <pt x="925" y="1294" on="0"/>
        <pt x="729" y="1294" on="0"/>
        <pt x="534" y="1177" on="0"/>
        <pt x="394" y="973" on="0"/>
        <pt x="354" y="832" on="1"/>
        <pt x="314" y="692" on="0"/>
        <pt x="314" y="576" on="1"/>
        <pt x="314" y="238" on="0"/>
        <pt x="527" y="145" on="1"/>
        <pt x="585" y="120" on="0"/>
        <pt x="805" y="120" on="0"/>
        <pt x="1033" y="230" on="0"/>
        <pt x="1047" y="230" on="1"/>
        <pt x="1103" y="230" on="0"/>
        <pt x="1103" y="189" on="1"/>
        <pt x="1103" y="117" on="0"/>
        <pt x="933" y="41" on="1"/>
        <pt x="807" y="-15" on="0"/>
        <pt x="673" y="-15" on="1"/>
        <pt x="643" y="-15" on="1"/>
        <pt x="412" y="-15" on="0"/>
        <pt x="278" y="136" on="1"/>
        <pt x="213" y="210" on="0"/>
        <pt x="147" y="419" on="0"/>
      </contour>
    </TTGlyph>
    <TTGlyph name="Ccedilla" xMin="180" yMin="-432" xMax="1335" yMax="1497">
      <contour>
        <pt x="180" y="559" on="1"/>
        <pt x="180" y="590" on="1"/>
        <pt x="180" y="778" on="0"/>
        <pt x="242" y="942" on="1"/>
        <pt x="368" y="1273" on="0"/>
        <pt x="637" y="1418" on="1"/>
        <pt x="784" y="1497" on="0"/>
        <pt x="931" y="1497" on="1"/>
        <pt x="963" y="1497" on="1"/>
        <pt x="1121" y="1497" on="0"/>
        <pt x="1257" y="1441" on="0"/>
        <pt x="1335" y="1354" on="0"/>
        <pt x="1335" y="1339" on="1"/>
        <pt x="1335" y="1304" on="0"/>
        <pt x="1279" y="1244" on="0"/>
        <pt x="1249" y="1244" on="1"/>
        <pt x="1248" y="1244" on="0"/>
        <pt x="1122" y="1312" on="0"/>
        <pt x="1025" y="1338" on="0"/>
        <pt x="904" y="1338" on="1"/>
        <pt x="665" y="1338" on="0"/>
        <pt x="515" y="1110" on="1"/>
        <pt x="364" y="882" on="0"/>
        <pt x="364" y="232" on="0"/>
        <pt x="589" y="154" on="1"/>
        <pt x="646" y="134" on="0"/>
        <pt x="801" y="134" on="0"/>
        <pt x="979" y="187" on="0"/>
        <pt x="1110" y="245" on="0"/>
        <pt x="1125" y="245" on="1"/>
        <pt x="1169" y="245" on="0"/>
        <pt x="1169" y="174" on="1"/>
        <pt x="1169" y="156" on="0"/>
        <pt x="1148" y="135" on="1"/>
        <pt x="1003" y="-10" on="0"/>
        <pt x="708" y="-10" on="1"/>
        <pt x="676" y="-10" on="1"/>
        <pt x="574" y="-10" on="0"/>
        <pt x="476" y="36" on="1"/>
        <pt x="285" y="124" on="0"/>
        <pt x="215" y="339" on="1"/>
        <pt x="180" y="446" on="0"/>
      </contour>
      <contour>
        <pt x="595" y="-432" on="1"/>
        <pt x="571" y="-432" on="1"/>
        <pt x="470" y="-432" on="0"/>
        <pt x="470" y="-383" on="1"/>
        <pt x="470" y="-365" on="1"/>
        <pt x="470" y="-352" on="0"/>
        <pt x="518" y="-352" on="1"/>
        <pt x="666" y="-352" on="0"/>
        <pt x="666" y="-254" on="1"/>
        <pt x="666" y="-226" on="0"/>
        <pt x="586" y="-172" on="0"/>
        <pt x="586" y="-165" on="1"/>
        <pt x="586" y="-80" on="0"/>
        <pt x="630" y="-36" on="1"/>
        <pt x="649" y="-17" on="0"/>
        <pt x="699" y="-17" on="1"/>
        <pt x="715" y="-17" on="0"/>
        <pt x="715" y="-70" on="0"/>
        <pt x="710" y="-85" on="1"/>
        <pt x="710" y="-98" on="0"/>
        <pt x="809" y="-177" on="0"/>
        <pt x="809" y="-223" on="1"/>
        <pt x="809" y="-254" on="1"/>
        <pt x="809" y="-324" on="0"/>
        <pt x="668" y="-432" on="0"/>
      </contour>
    </TTGlyph>
    <TTGlyph name="D" xMin="130" yMin="8" xMax="1278" yMax="1415">
      <contour>
        <pt x="420" y="138" on="1"/>
        <pt x="521" y="138" on="1"/>
        <pt x="928" y="138" on="0"/>
        <pt x="1075" y="577" on="1"/>
        <pt x="1118" y="706" on="0"/>
        <pt x="1118" y="849" on="1"/>
        <pt x="1118" y="866" on="1"/>
        <pt x="1118" y="974" on="0"/>
        <pt x="1090" y="1052" on="1"/>
        <pt x="1006" y="1289" on="0"/>
        <pt x="748" y="1289" on="1"/>
        <pt x="697" y="1289" on="1"/>
        <pt x="598" y="1285" on="1"/>
        <pt x="536" y="1285" on="0"/>
        <pt x="485" y="1256" on="0"/>
        <pt x="462" y="1155" on="0"/>
        <pt x="367" y="546" on="0"/>
        <pt x="303" y="196" on="0"/>
        <pt x="303" y="138" on="0"/>
      </contour>
      <contour>
        <pt x="728" y="1415" on="1"/>
        <pt x="1116" y="1415" on="0"/>
        <pt x="1238" y="1117" on="1"/>
        <pt x="1278" y="1020" on="0"/>
        <pt x="1278" y="672" on="0"/>
        <pt x="1210" y="500" on="1"/>
        <pt x="1083" y="174" on="0"/>
        <pt x="784" y="58" on="1"/>
        <pt x="654" y="8" on="0"/>
        <pt x="437" y="8" on="1"/>
        <pt x="349" y="8" on="1"/>
        <pt x="130" y="8" on="0"/>
        <pt x="130" y="51" on="1"/>
        <pt x="130" y="70" on="0"/>
        <pt x="206" y="489" on="0"/>
        <pt x="259" y="814" on="0"/>
        <pt x="305" y="1093" on="0"/>
        <pt x="337" y="1342" on="0"/>
        <pt x="342" y="1356" on="1"/>
        <pt x="356" y="1393" on="0"/>
        <pt x="437" y="1415" on="0"/>
        <pt x="639" y="1415" on="1"/>
      </contour>
    </TTGlyph>
    <TTGlyph name="E" xMin="137" yMin="-3" xMax="1134" yMax="1421">
      <contour>
        <pt x="461" y="-3" on="1"/>
        <pt x="391" y="-3" on="1"/>
        <pt x="207" y="-3" on="0"/>
        <pt x="137" y="38" on="0"/>
        <pt x="137" y="91" on="1"/>
        <pt x="137" y="204" on="0"/>
        <pt x="284" y="928" on="1"/>
        <pt x="290" y="963" on="1"/>
        <pt x="298" y="1009" on="0"/>
        <pt x="302" y="1031" on="1"/>
        <pt x="320" y="1129" on="1"/>
        <pt x="334" y="1208" on="0"/>
        <pt x="347" y="1335" on="0"/>
        <pt x="353" y="1347" on="1"/>
        <pt x="370" y="1378" on="0"/>
        <pt x="424" y="1391" on="1"/>
        <pt x="544" y="1419" on="0"/>
        <pt x="762" y="1419" on="1"/>
        <pt x="834" y="1421" on="1"/>
        <pt x="940" y="1421" on="1"/>
        <pt x="1066" y="1421" on="0"/>
        <pt x="1100" y="1409" on="1"/>
        <pt x="1134" y="1396" on="0"/>
        <pt x="1134" y="1356" on="1"/>
        <pt x="1134" y="1275" on="0"/>
        <pt x="975" y="1275" on="1"/>
        <pt x="971" y="1275" on="1"/>
        <pt x="969" y="1275" on="0"/>
        <pt x="966" y="1275" on="1"/>
        <pt x="942" y="1275" on="0"/>
        <pt x="871" y="1282" on="1"/>
        <pt x="791" y="1290" on="0"/>
        <pt x="554" y="1290" on="0"/>
        <pt x="521" y="1230" on="1"/>
        <pt x="441" y="1085" on="0"/>
        <pt x="441" y="882" on="1"/>
        <pt x="441" y="838" on="0"/>
        <pt x="613" y="806" on="0"/>
        <pt x="831" y="806" on="1"/>
        <pt x="942" y="806" on="0"/>
        <pt x="942" y="765" on="1"/>
        <pt x="942" y="693" on="0"/>
        <pt x="877" y="678" on="1"/>
        <pt x="865" y="675" on="0"/>
        <pt x="429" y="649" on="0"/>
        <pt x="374" y="600" on="0"/>
        <pt x="366" y="574" on="1"/>
        <pt x="335" y="466" on="0"/>
        <pt x="335" y="240" on="1"/>
        <pt x="335" y="181" on="0"/>
        <pt x="368" y="128" on="0"/>
        <pt x="507" y="128" on="0"/>
        <pt x="817" y="155" on="0"/>
        <pt x="900" y="155" on="0"/>
        <pt x="946" y="127" on="0"/>
        <pt x="946" y="34" on="0"/>
        <pt x="878" y="20" on="1"/>
        <pt x="767" y="-3" on="0"/>
      </contour>
    </TTGlyph>
    <TTGlyph name="Eacute" xMin="178" yMin="23" xMax="1144" yMax="1899">
      <contour>
        <pt x="708" y="1595" on="1"/>
        <pt x="693" y="1595" on="0"/>
        <pt x="693" y="1604" on="1"/>
        <pt x="693" y="1607" on="1"/>
        <pt x="693" y="1611" on="0"/>
        <pt x="784" y="1757" on="0"/>
        <pt x="941" y="1894" on="0"/>
        <pt x="988" y="1894" on="1"/>
        <pt x="998" y="1896" on="0"/>
        <pt x="1004" y="1896" on="1"/>
        <pt x="1029" y="1899" on="1"/>
        <pt x="1038" y="1899" on="1"/>
        <pt x="1072" y="1899" on="0"/>
        <pt x="1072" y="1885" on="1"/>
        <pt x="1072" y="1852" on="0"/>
        <pt x="782" y="1598" on="0"/>
        <pt x="747" y="1598" on="1"/>
        <pt x="722" y="1595" on="1"/>
      </contour>
      <contour>
        <pt x="492" y="23" on="1"/>
        <pt x="457" y="23" on="1"/>
        <pt x="310" y="23" on="0"/>
        <pt x="231" y="46" on="1"/>
        <pt x="178" y="61" on="0"/>
        <pt x="178" y="130" on="1"/>
        <pt x="178" y="290" on="0"/>
        <pt x="369" y="1102" on="0"/>
        <pt x="369" y="1300" on="1"/>
        <pt x="369" y="1387" on="0"/>
        <pt x="442" y="1408" on="1"/>
        <pt x="588" y="1450" on="0"/>
        <pt x="810" y="1450" on="1"/>
        <pt x="988" y="1450" on="1"/>
        <pt x="1076" y="1450" on="0"/>
        <pt x="1144" y="1422" on="0"/>
        <pt x="1144" y="1361" on="0"/>
        <pt x="1083" y="1309" on="0"/>
        <pt x="1002" y="1309" on="0"/>
        <pt x="818" y="1334" on="0"/>
        <pt x="595" y="1334" on="0"/>
        <pt x="554" y="1270" on="1"/>
        <pt x="525" y="1225" on="0"/>
        <pt x="462" y="988" on="0"/>
        <pt x="462" y="887" on="0"/>
        <pt x="499" y="875" on="1"/>
        <pt x="520" y="868" on="0"/>
        <pt x="724" y="843" on="0"/>
        <pt x="770" y="840" on="1"/>
        <pt x="825" y="838" on="1"/>
        <pt x="871" y="836" on="0"/>
        <pt x="880" y="835" on="1"/>
        <pt x="930" y="827" on="0"/>
        <pt x="930" y="795" on="1"/>
        <pt x="930" y="727" on="0"/>
        <pt x="865" y="708" on="1"/>
        <pt x="849" y="703" on="0"/>
        <pt x="429" y="657" on="0"/>
        <pt x="401" y="628" on="1"/>
        <pt x="362" y="587" on="0"/>
        <pt x="362" y="279" on="1"/>
        <pt x="362" y="204" on="0"/>
        <pt x="411" y="139" on="0"/>
        <pt x="529" y="139" on="0"/>
        <pt x="855" y="172" on="0"/>
        <pt x="931" y="172" on="0"/>
        <pt x="972" y="150" on="0"/>
        <pt x="972" y="112" on="1"/>
        <pt x="972" y="61" on="0"/>
        <pt x="876" y="45" on="1"/>
        <pt x="744" y="23" on="0"/>
      </contour>
    </TTGlyph>
    <TTGlyph name="Ecircumflex" xMin="178" yMin="19" xMax="1144" yMax="1891">
      <contour>
        <pt x="545" y="1608" on="1"/>
        <pt x="545" y="1626" on="0"/>
        <pt x="834" y="1891" on="0"/>
        <pt x="914" y="1891" on="0"/>
        <pt x="939" y="1858" on="1"/>
        <pt x="1088" y="1664" on="0"/>
        <pt x="1088" y="1617" on="1"/>
        <pt x="1088" y="1611" on="1"/>
        <pt x="1088" y="1594" on="0"/>
        <pt x="1001" y="1594" on="0"/>
        <pt x="857" y="1785" on="0"/>
        <pt x="845" y="1785" on="0"/>
        <pt x="768" y="1715" on="0"/>
        <pt x="720" y="1674" on="1"/>
        <pt x="623" y="1592" on="0"/>
        <pt x="570" y="1592" on="1"/>
        <pt x="545" y="1592" on="0"/>
        <pt x="545" y="1603" on="1"/>
      </contour>
      <contour>
        <pt x="528" y="19" on="1"/>
        <pt x="421" y="19" on="1"/>
        <pt x="253" y="19" on="0"/>
        <pt x="205" y="51" on="1"/>
        <pt x="178" y="69" on="0"/>
        <pt x="178" y="126" on="1"/>
        <pt x="178" y="286" on="0"/>
        <pt x="369" y="1098" on="0"/>
        <pt x="369" y="1296" on="1"/>
        <pt x="369" y="1383" on="0"/>
        <pt x="442" y="1403" on="1"/>
        <pt x="601" y="1446" on="0"/>
        <pt x="882" y="1446" on="1"/>
        <pt x="918" y="1446" on="1"/>
        <pt x="1072" y="1446" on="0"/>
        <pt x="1144" y="1418" on="0"/>
        <pt x="1144" y="1356" on="0"/>
        <pt x="1081" y="1304" on="0"/>
        <pt x="1004" y="1304" on="0"/>
        <pt x="921" y="1317" on="0"/>
        <pt x="716" y="1329" on="0"/>
        <pt x="701" y="1329" on="1"/>
        <pt x="594" y="1329" on="0"/>
        <pt x="554" y="1266" on="1"/>
        <pt x="525" y="1220" on="0"/>
        <pt x="461" y="979" on="0"/>
        <pt x="461" y="882" on="0"/>
        <pt x="499" y="870" on="1"/>
        <pt x="591" y="842" on="0"/>
        <pt x="825" y="833" on="1"/>
        <pt x="880" y="831" on="1"/>
        <pt x="930" y="824" on="0"/>
        <pt x="930" y="791" on="1"/>
        <pt x="930" y="721" on="0"/>
        <pt x="865" y="703" on="1"/>
        <pt x="835" y="695" on="0"/>
        <pt x="433" y="657" on="0"/>
        <pt x="362" y="581" on="0"/>
        <pt x="362" y="275" on="1"/>
        <pt x="362" y="199" on="0"/>
        <pt x="411" y="134" on="0"/>
        <pt x="532" y="134" on="0"/>
        <pt x="852" y="167" on="0"/>
        <pt x="929" y="167" on="0"/>
        <pt x="971" y="146" on="0"/>
        <pt x="971" y="108" on="1"/>
        <pt x="971" y="64" on="0"/>
        <pt x="909" y="47" on="1"/>
        <pt x="804" y="19" on="0"/>
      </contour>
    </TTGlyph>
    <TTGlyph name="Edieresis" xMin="193" yMin="20" xMax="1160" yMax="1808">
      <contour>
        <pt x="782" y="1729" on="1"/>
        <pt x="778" y="1696" on="1"/>
        <pt x="778" y="1684" on="0"/>
        <pt x="726" y="1632" on="0"/>
        <pt x="702" y="1632" on="1"/>
        <pt x="696" y="1630" on="1"/>
        <pt x="669" y="1627" on="1"/>
        <pt x="663" y="1627" on="1"/>
        <pt x="660" y="1628" on="1"/>
        <pt x="654" y="1628" on="1"/>
        <pt x="643" y="1630" on="1"/>
        <pt x="605" y="1630" on="0"/>
        <pt x="605" y="1665" on="1"/>
        <pt x="602" y="1682" on="1"/>
        <pt x="602" y="1698" on="1"/>
        <pt x="606" y="1721" on="1"/>
        <pt x="606" y="1741" on="0"/>
        <pt x="655" y="1802" on="0"/>
        <pt x="681" y="1802" on="1"/>
        <pt x="684" y="1803" on="1"/>
        <pt x="686" y="1804" on="1"/>
        <pt x="710" y="1807" on="1"/>
        <pt x="716" y="1807" on="1"/>
        <pt x="732" y="1803" on="0"/>
        <pt x="743" y="1803" on="1"/>
        <pt x="783" y="1803" on="0"/>
        <pt x="783" y="1751" on="1"/>
        <pt x="783" y="1732" on="1"/>
      </contour>
      <contour>
        <pt x="956" y="1680" on="1"/>
        <pt x="956" y="1697" on="1"/>
        <pt x="957" y="1699" on="1"/>
        <pt x="960" y="1720" on="1"/>
        <pt x="961" y="1723" on="0"/>
        <pt x="961" y="1744" on="0"/>
        <pt x="1009" y="1803" on="0"/>
        <pt x="1035" y="1803" on="1"/>
        <pt x="1041" y="1805" on="1"/>
        <pt x="1068" y="1808" on="1"/>
        <pt x="1071" y="1808" on="1"/>
        <pt x="1083" y="1804" on="0"/>
        <pt x="1097" y="1804" on="1"/>
        <pt x="1134" y="1804" on="0"/>
        <pt x="1134" y="1768" on="1"/>
        <pt x="1137" y="1758" on="1"/>
        <pt x="1137" y="1755" on="0"/>
        <pt x="1137" y="1752" on="1"/>
        <pt x="1138" y="1744" on="1"/>
        <pt x="1138" y="1738" on="1"/>
        <pt x="1137" y="1735" on="1"/>
        <pt x="1137" y="1727" on="1"/>
        <pt x="1134" y="1713" on="0"/>
        <pt x="1134" y="1694" on="0"/>
        <pt x="1084" y="1632" on="0"/>
        <pt x="1053" y="1632" on="1"/>
        <pt x="1041" y="1629" on="1"/>
        <pt x="1035" y="1629" on="1"/>
        <pt x="1026" y="1628" on="1"/>
        <pt x="1011" y="1628" on="1"/>
        <pt x="991" y="1632" on="1"/>
        <pt x="956" y="1632" on="0"/>
      </contour>
      <contour>
        <pt x="756" y="20" on="0"/>
        <pt x="325" y="20" on="0"/>
        <pt x="246" y="43" on="1"/>
        <pt x="193" y="58" on="0"/>
        <pt x="193" y="128" on="1"/>
        <pt x="193" y="290" on="0"/>
        <pt x="384" y="1090" on="0"/>
        <pt x="384" y="1298" on="1"/>
        <pt x="384" y="1384" on="0"/>
        <pt x="458" y="1405" on="1"/>
        <pt x="604" y="1447" on="0"/>
        <pt x="826" y="1447" on="1"/>
        <pt x="1004" y="1447" on="1"/>
        <pt x="1092" y="1447" on="0"/>
        <pt x="1160" y="1419" on="0"/>
        <pt x="1160" y="1357" on="0"/>
        <pt x="1096" y="1306" on="0"/>
        <pt x="1020" y="1306" on="0"/>
        <pt x="934" y="1319" on="0"/>
        <pt x="732" y="1331" on="0"/>
        <pt x="717" y="1331" on="1"/>
        <pt x="610" y="1331" on="0"/>
        <pt x="570" y="1267" on="1"/>
        <pt x="543" y="1225" on="0"/>
        <pt x="477" y="989" on="0"/>
        <pt x="477" y="884" on="0"/>
        <pt x="561" y="857" on="0"/>
        <pt x="946" y="823" on="0"/>
        <pt x="946" y="793" on="1"/>
        <pt x="946" y="724" on="0"/>
        <pt x="881" y="705" on="1"/>
        <pt x="854" y="697" on="0"/>
        <pt x="474" y="662" on="0"/>
        <pt x="402" y="623" on="0"/>
        <pt x="379" y="511" on="0"/>
        <pt x="379" y="372" on="1"/>
        <pt x="378" y="340" on="1"/>
        <pt x="377" y="308" on="0"/>
        <pt x="377" y="203" on="0"/>
        <pt x="427" y="136" on="0"/>
        <pt x="494" y="136" on="1"/>
        <pt x="522" y="136" on="0"/>
        <pt x="703" y="152" on="1"/>
        <pt x="737" y="155" on="1"/>
        <pt x="770" y="158" on="0"/>
        <pt x="802" y="161" on="1"/>
        <pt x="833" y="164" on="1"/>
        <pt x="883" y="169" on="0"/>
        <pt x="945" y="169" on="0"/>
        <pt x="987" y="148" on="0"/>
        <pt x="987" y="109" on="1"/>
        <pt x="987" y="59" on="0"/>
        <pt x="892" y="43" on="1"/>
      </contour>
    </TTGlyph>
    <TTGlyph name="Egrave" xMin="178" yMin="24" xMax="1144" yMax="1910">
      <contour>
        <pt x="894" y="1599" on="1"/>
        <pt x="877" y="1599" on="1"/>
        <pt x="867" y="1601" on="0"/>
        <pt x="863" y="1601" on="1"/>
        <pt x="827" y="1601" on="0"/>
        <pt x="601" y="1859" on="0"/>
        <pt x="601" y="1886" on="1"/>
        <pt x="601" y="1893" on="1"/>
        <pt x="601" y="1910" on="0"/>
        <pt x="640" y="1910" on="1"/>
        <pt x="658" y="1910" on="1"/>
        <pt x="668" y="1908" on="0"/>
        <pt x="672" y="1908" on="1"/>
        <pt x="731" y="1908" on="0"/>
        <pt x="774" y="1858" on="1"/>
        <pt x="916" y="1692" on="0"/>
        <pt x="916" y="1618" on="1"/>
        <pt x="916" y="1615" on="1"/>
        <pt x="916" y="1599" on="0"/>
      </contour>
      <contour>
        <pt x="492" y="24" on="1"/>
        <pt x="421" y="24" on="1"/>
        <pt x="251" y="24" on="0"/>
        <pt x="205" y="56" on="1"/>
        <pt x="178" y="75" on="0"/>
        <pt x="178" y="131" on="1"/>
        <pt x="178" y="291" on="0"/>
        <pt x="369" y="1103" on="0"/>
        <pt x="369" y="1301" on="1"/>
        <pt x="369" y="1388" on="0"/>
        <pt x="442" y="1408" on="1"/>
        <pt x="601" y="1451" on="0"/>
        <pt x="846" y="1451" on="1"/>
        <pt x="953" y="1451" on="1"/>
        <pt x="1074" y="1451" on="0"/>
        <pt x="1144" y="1424" on="0"/>
        <pt x="1144" y="1360" on="0"/>
        <pt x="1083" y="1310" on="0"/>
        <pt x="1002" y="1310" on="0"/>
        <pt x="836" y="1334" on="0"/>
        <pt x="594" y="1334" on="0"/>
        <pt x="554" y="1271" on="1"/>
        <pt x="524" y="1223" on="0"/>
        <pt x="462" y="987" on="0"/>
        <pt x="462" y="887" on="0"/>
        <pt x="499" y="875" on="1"/>
        <pt x="522" y="868" on="0"/>
        <pt x="721" y="844" on="0"/>
        <pt x="770" y="841" on="1"/>
        <pt x="825" y="839" on="1"/>
        <pt x="871" y="837" on="0"/>
        <pt x="880" y="836" on="1"/>
        <pt x="930" y="828" on="0"/>
        <pt x="930" y="796" on="1"/>
        <pt x="930" y="727" on="0"/>
        <pt x="865" y="709" on="1"/>
        <pt x="848" y="704" on="0"/>
        <pt x="429" y="659" on="0"/>
        <pt x="401" y="628" on="1"/>
        <pt x="362" y="586" on="0"/>
        <pt x="362" y="280" on="1"/>
        <pt x="362" y="205" on="0"/>
        <pt x="411" y="140" on="0"/>
        <pt x="541" y="140" on="0"/>
        <pt x="862" y="173" on="0"/>
        <pt x="876" y="173" on="1"/>
        <pt x="972" y="173" on="0"/>
        <pt x="972" y="113" on="1"/>
        <pt x="972" y="70" on="0"/>
        <pt x="909" y="52" on="1"/>
        <pt x="810" y="24" on="0"/>
      </contour>
    </TTGlyph>
    <TTGlyph name="Eth" xMin="118" yMin="13" xMax="1298" yMax="1423">
      <contour>
        <pt x="384" y="131" on="1"/>
        <pt x="424" y="131" on="1"/>
        <pt x="445" y="132" on="1"/>
        <pt x="505" y="133" on="1"/>
        <pt x="525" y="134" on="0"/>
        <pt x="545" y="134" on="1"/>
        <pt x="801" y="134" on="0"/>
        <pt x="976" y="322" on="1"/>
        <pt x="1064" y="416" on="0"/>
        <pt x="1158" y="698" on="0"/>
        <pt x="1158" y="823" on="1"/>
        <pt x="1158" y="865" on="1"/>
        <pt x="1158" y="1073" on="0"/>
        <pt x="938" y="1310" on="0"/>
        <pt x="741" y="1310" on="1"/>
        <pt x="660" y="1310" on="1"/>
        <pt x="620" y="1308" on="0"/>
        <pt x="549" y="1308" on="0"/>
        <pt x="491" y="1277" on="0"/>
        <pt x="469" y="1222" on="1"/>
        <pt x="413" y="1080" on="0"/>
        <pt x="413" y="878" on="1"/>
        <pt x="413" y="841" on="0"/>
        <pt x="493" y="785" on="0"/>
        <pt x="652" y="776" on="0"/>
        <pt x="652" y="728" on="1"/>
        <pt x="652" y="694" on="0"/>
        <pt x="614" y="680" on="1"/>
        <pt x="602" y="676" on="0"/>
        <pt x="389" y="653" on="0"/>
        <pt x="371" y="618" on="1"/>
        <pt x="366" y="609" on="0"/>
        <pt x="310" y="234" on="0"/>
        <pt x="310" y="188" on="1"/>
        <pt x="310" y="131" on="0"/>
      </contour>
      <contour>
        <pt x="1298" y="897" on="1"/>
        <pt x="1298" y="824" on="1"/>
        <pt x="1298" y="667" on="0"/>
        <pt x="1170" y="336" on="0"/>
        <pt x="943" y="115" on="0"/>
        <pt x="661" y="13" on="0"/>
        <pt x="448" y="13" on="1"/>
        <pt x="400" y="13" on="1"/>
        <pt x="246" y="13" on="0"/>
        <pt x="178" y="30" on="1"/>
        <pt x="154" y="36" on="0"/>
        <pt x="154" y="104" on="0"/>
        <pt x="235" y="580" on="0"/>
        <pt x="235" y="597" on="1"/>
        <pt x="235" y="662" on="0"/>
        <pt x="190" y="674" on="1"/>
        <pt x="118" y="694" on="0"/>
        <pt x="118" y="727" on="1"/>
        <pt x="118" y="770" on="0"/>
        <pt x="258" y="786" on="0"/>
        <pt x="272" y="818" on="1"/>
        <pt x="320" y="927" on="0"/>
        <pt x="320" y="1233" on="1"/>
        <pt x="320" y="1370" on="0"/>
        <pt x="360" y="1392" on="1"/>
        <pt x="415" y="1423" on="0"/>
        <pt x="692" y="1423" on="1"/>
        <pt x="740" y="1423" on="1"/>
        <pt x="740" y="1423" on="0"/>
        <pt x="743" y="1423" on="1"/>
        <pt x="1128" y="1423" on="0"/>
        <pt x="1256" y="1116" on="1"/>
        <pt x="1298" y="1016" on="0"/>
      </contour>
    </TTGlyph>
    <TTGlyph name="Euro" xMin="130" yMin="12" xMax="1190" yMax="1382">
      <contour>
        <pt x="825" y="582" on="1"/>
        <pt x="825" y="543" on="0"/>
        <pt x="762" y="523" on="1"/>
        <pt x="743" y="517" on="0"/>
        <pt x="567" y="495" on="0"/>
        <pt x="527" y="476" on="1"/>
        <pt x="451" y="440" on="0"/>
        <pt x="451" y="292" on="0"/>
        <pt x="592" y="157" on="0"/>
        <pt x="706" y="157" on="1"/>
        <pt x="758" y="157" on="0"/>
        <pt x="997" y="216" on="0"/>
        <pt x="1003" y="216" on="1"/>
        <pt x="1038" y="216" on="0"/>
        <pt x="1038" y="177" on="1"/>
        <pt x="1038" y="124" on="0"/>
        <pt x="816" y="12" on="0"/>
        <pt x="726" y="12" on="1"/>
        <pt x="687" y="12" on="1"/>
        <pt x="414" y="12" on="0"/>
        <pt x="314" y="257" on="1"/>
        <pt x="289" y="317" on="0"/>
        <pt x="251" y="440" on="0"/>
        <pt x="214" y="501" on="0"/>
        <pt x="130" y="559" on="0"/>
        <pt x="130" y="568" on="1"/>
        <pt x="130" y="609" on="0"/>
        <pt x="177" y="624" on="1"/>
        <pt x="258" y="650" on="0"/>
        <pt x="261" y="657" on="1"/>
        <pt x="271" y="676" on="0"/>
        <pt x="271" y="768" on="0"/>
        <pt x="174" y="790" on="0"/>
        <pt x="174" y="818" on="1"/>
        <pt x="174" y="839" on="0"/>
        <pt x="330" y="943" on="0"/>
        <pt x="373" y="988" on="0"/>
        <pt x="392" y="1017" on="1"/>
        <pt x="412" y="1051" on="1"/>
        <pt x="437" y="1093" on="0"/>
        <pt x="514" y="1205" on="0"/>
        <pt x="652" y="1321" on="0"/>
        <pt x="822" y="1382" on="0"/>
        <pt x="883" y="1382" on="1"/>
        <pt x="920" y="1382" on="1"/>
        <pt x="1029" y="1382" on="0"/>
        <pt x="1190" y="1294" on="0"/>
        <pt x="1190" y="1234" on="1"/>
        <pt x="1190" y="1186" on="0"/>
        <pt x="1102" y="1186" on="1"/>
        <pt x="1095" y="1186" on="0"/>
        <pt x="923" y="1229" on="0"/>
        <pt x="864" y="1229" on="1"/>
        <pt x="765" y="1229" on="0"/>
        <pt x="568" y="1075" on="0"/>
        <pt x="568" y="985" on="1"/>
        <pt x="568" y="948" on="0"/>
        <pt x="919" y="879" on="0"/>
        <pt x="919" y="861" on="1"/>
        <pt x="919" y="814" on="0"/>
        <pt x="787" y="783" on="0"/>
        <pt x="510" y="783" on="0"/>
        <pt x="433" y="750" on="0"/>
        <pt x="433" y="648" on="0"/>
        <pt x="486" y="635" on="1"/>
        <pt x="511" y="629" on="0"/>
        <pt x="761" y="629" on="0"/>
        <pt x="825" y="589" on="0"/>
      </contour>
    </TTGlyph>
    <TTGlyph name="F" xMin="144" yMin="30" xMax="1110" yMax="1429">
      <contour>
        <pt x="474" y="861" on="1"/>
        <pt x="474" y="827" on="0"/>
        <pt x="564" y="806" on="0"/>
        <pt x="834" y="806" on="0"/>
        <pt x="931" y="774" on="0"/>
        <pt x="931" y="677" on="0"/>
        <pt x="860" y="650" on="0"/>
        <pt x="732" y="650" on="1"/>
        <pt x="469" y="650" on="0"/>
        <pt x="402" y="561" on="1"/>
        <pt x="363" y="510" on="0"/>
        <pt x="280" y="109" on="0"/>
        <pt x="248" y="30" on="0"/>
        <pt x="144" y="30" on="0"/>
        <pt x="144" y="71" on="1"/>
        <pt x="144" y="72" on="0"/>
        <pt x="192" y="369" on="0"/>
        <pt x="204" y="470" on="0"/>
        <pt x="251" y="690" on="0"/>
        <pt x="286" y="910" on="0"/>
        <pt x="330" y="1141" on="0"/>
        <pt x="342" y="1326" on="0"/>
        <pt x="349" y="1347" on="1"/>
        <pt x="374" y="1417" on="0"/>
        <pt x="801" y="1417" on="1"/>
        <pt x="1052" y="1429" on="1"/>
        <pt x="1110" y="1429" on="0"/>
        <pt x="1110" y="1396" on="1"/>
        <pt x="1110" y="1298" on="0"/>
        <pt x="991" y="1298" on="1"/>
        <pt x="812" y="1308" on="1"/>
        <pt x="575" y="1308" on="0"/>
        <pt x="546" y="1264" on="1"/>
        <pt x="534" y="1245" on="0"/>
        <pt x="474" y="947" on="0"/>
      </contour>
    </TTGlyph>
    <TTGlyph name="G" xMin="162" yMin="-41" xMax="1242" yMax="1413">
      <contour>
        <pt x="973" y="619" on="1"/>
        <pt x="1148" y="619" on="0"/>
        <pt x="1148" y="498" on="1"/>
        <pt x="1148" y="393" on="0"/>
        <pt x="1068" y="120" on="0"/>
        <pt x="994" y="32" on="0"/>
        <pt x="918" y="6" on="1"/>
        <pt x="779" y="-41" on="0"/>
        <pt x="709" y="-41" on="1"/>
        <pt x="678" y="-41" on="1"/>
        <pt x="580" y="-41" on="0"/>
        <pt x="374" y="56" on="0"/>
        <pt x="299" y="150" on="1"/>
        <pt x="162" y="322" on="0"/>
        <pt x="162" y="582" on="1"/>
        <pt x="162" y="758" on="0"/>
        <pt x="223" y="916" on="1"/>
        <pt x="284" y="1076" on="0"/>
        <pt x="390" y="1190" on="1"/>
        <pt x="595" y="1413" on="0"/>
        <pt x="916" y="1413" on="1"/>
        <pt x="919" y="1413" on="1"/>
        <pt x="955" y="1413" on="1"/>
        <pt x="1053" y="1413" on="0"/>
        <pt x="1242" y="1326" on="0"/>
        <pt x="1242" y="1282" on="1"/>
        <pt x="1242" y="1255" on="0"/>
        <pt x="1200" y="1205" on="0"/>
        <pt x="1135" y="1205" on="0"/>
        <pt x="1022" y="1253" on="0"/>
        <pt x="1017" y="1255" on="1"/>
        <pt x="924" y="1285" on="0"/>
        <pt x="731" y="1285" on="0"/>
        <pt x="544" y="1182" on="0"/>
        <pt x="394" y="980" on="0"/>
        <pt x="311" y="715" on="0"/>
        <pt x="311" y="599" on="1"/>
        <pt x="311" y="382" on="0"/>
        <pt x="427" y="268" on="1"/>
        <pt x="521" y="176" on="0"/>
        <pt x="678" y="176" on="1"/>
        <pt x="913" y="176" on="0"/>
        <pt x="995" y="315" on="1"/>
        <pt x="1029" y="372" on="0"/>
        <pt x="1029" y="460" on="0"/>
        <pt x="868" y="547" on="0"/>
        <pt x="868" y="586" on="1"/>
        <pt x="868" y="619" on="0"/>
      </contour>
    </TTGlyph>
    <TTGlyph name="H" xMin="128" yMin="13" xMax="1336" yMax="1386">
      <contour>
        <pt x="1072" y="24" on="1"/>
        <pt x="992" y="24" on="0"/>
        <pt x="992" y="143" on="1"/>
        <pt x="992" y="194" on="0"/>
        <pt x="1009" y="343" on="1"/>
        <pt x="1022" y="449" on="1"/>
        <pt x="1033" y="545" on="0"/>
        <pt x="1033" y="552" on="1"/>
        <pt x="1033" y="619" on="0"/>
        <pt x="983" y="635" on="1"/>
        <pt x="881" y="667" on="0"/>
        <pt x="589" y="667" on="1"/>
        <pt x="450" y="667" on="0"/>
        <pt x="406" y="602" on="1"/>
        <pt x="381" y="565" on="0"/>
        <pt x="335" y="362" on="1"/>
        <pt x="318" y="291" on="1"/>
        <pt x="307" y="243" on="0"/>
        <pt x="302" y="219" on="1"/>
        <pt x="296" y="183" on="1"/>
        <pt x="291" y="148" on="1"/>
        <pt x="282" y="97" on="0"/>
        <pt x="276" y="80" on="1"/>
        <pt x="251" y="13" on="0"/>
        <pt x="160" y="13" on="1"/>
        <pt x="128" y="13" on="0"/>
        <pt x="128" y="45" on="1"/>
        <pt x="128" y="76" on="1"/>
        <pt x="128" y="113" on="0"/>
        <pt x="255" y="724" on="1"/>
        <pt x="260" y="750" on="0"/>
        <pt x="337" y="1321" on="0"/>
        <pt x="340" y="1329" on="1"/>
        <pt x="352" y="1361" on="0"/>
        <pt x="450" y="1361" on="0"/>
        <pt x="480" y="1320" on="0"/>
        <pt x="480" y="1208" on="0"/>
        <pt x="454" y="1001" on="1"/>
        <pt x="439" y="894" on="1"/>
        <pt x="439" y="823" on="0"/>
        <pt x="487" y="808" on="1"/>
        <pt x="561" y="785" on="0"/>
        <pt x="1033" y="785" on="0"/>
        <pt x="1097" y="852" on="0"/>
        <pt x="1190" y="1305" on="0"/>
        <pt x="1203" y="1333" on="1"/>
        <pt x="1228" y="1386" on="0"/>
        <pt x="1311" y="1386" on="1"/>
        <pt x="1336" y="1386" on="0"/>
        <pt x="1336" y="1353" on="1"/>
        <pt x="1336" y="1184" on="0"/>
        <pt x="1257" y="868" on="1"/>
        <pt x="1237" y="788" on="0"/>
        <pt x="1149" y="316" on="0"/>
        <pt x="1138" y="83" on="0"/>
        <pt x="1134" y="66" on="1"/>
        <pt x="1123" y="24" on="0"/>
      </contour>
    </TTGlyph>
    <TTGlyph name="I" xMin="150" yMin="-2" xMax="568" yMax="1409">
      <contour>
        <pt x="331" y="1191" on="0"/>
        <pt x="331" y="1327" on="0"/>
        <pt x="394" y="1409" on="0"/>
        <pt x="485" y="1409" on="1"/>
        <pt x="501" y="1409" on="1"/>
        <pt x="568" y="1409" on="0"/>
        <pt x="568" y="1320" on="1"/>
        <pt x="568" y="1305" on="1"/>
        <pt x="568" y="1259" on="0"/>
        <pt x="506" y="1118" on="0"/>
        <pt x="460" y="810" on="1"/>
        <pt x="412" y="530" on="1"/>
        <pt x="377" y="326" on="0"/>
        <pt x="377" y="262" on="1"/>
        <pt x="383" y="176" on="1"/>
        <pt x="383" y="71" on="0"/>
        <pt x="341" y="22" on="1"/>
        <pt x="320" y="-2" on="0"/>
        <pt x="260" y="-2" on="1"/>
        <pt x="227" y="-2" on="1"/>
        <pt x="188" y="-2" on="0"/>
        <pt x="150" y="30" on="0"/>
        <pt x="150" y="84" on="1"/>
        <pt x="150" y="99" on="1"/>
        <pt x="150" y="160" on="0"/>
        <pt x="212" y="288" on="0"/>
        <pt x="232" y="386" on="0"/>
        <pt x="341" y="1023" on="0"/>
        <pt x="341" y="1148" on="1"/>
      </contour>
    </TTGlyph>
    <TTGlyph name="Iacute" xMin="168" yMin="14" xMax="742" yMax="1877">
      <contour>
        <pt x="388" y="1576" on="1"/>
        <pt x="367" y="1576" on="0"/>
        <pt x="367" y="1595" on="0"/>
        <pt x="478" y="1761" on="0"/>
        <pt x="561" y="1834" on="1"/>
        <pt x="606" y="1873" on="0"/>
        <pt x="653" y="1873" on="1"/>
        <pt x="663" y="1875" on="0"/>
        <pt x="668" y="1875" on="1"/>
        <pt x="693" y="1877" on="1"/>
        <pt x="707" y="1877" on="1"/>
        <pt x="742" y="1877" on="0"/>
        <pt x="742" y="1866" on="1"/>
        <pt x="742" y="1863" on="1"/>
        <pt x="742" y="1829" on="0"/>
        <pt x="458" y="1580" on="0"/>
        <pt x="433" y="1580" on="1"/>
        <pt x="423" y="1578" on="0"/>
        <pt x="418" y="1578" on="1"/>
        <pt x="407" y="1576" on="1"/>
      </contour>
      <contour>
        <pt x="476" y="1438" on="1"/>
        <pt x="536" y="1438" on="0"/>
        <pt x="536" y="1371" on="1"/>
        <pt x="536" y="1322" on="0"/>
        <pt x="495" y="1188" on="0"/>
        <pt x="483" y="1057" on="0"/>
        <pt x="454" y="886" on="0"/>
        <pt x="362" y="263" on="0"/>
        <pt x="362" y="228" on="1"/>
        <pt x="362" y="114" on="0"/>
        <pt x="316" y="14" on="0"/>
        <pt x="252" y="14" on="1"/>
        <pt x="237" y="14" on="1"/>
        <pt x="168" y="14" on="0"/>
        <pt x="168" y="81" on="1"/>
        <pt x="168" y="95" on="1"/>
        <pt x="168" y="151" on="0"/>
        <pt x="232" y="313" on="0"/>
        <pt x="345" y="1115" on="0"/>
        <pt x="345" y="1185" on="1"/>
        <pt x="342" y="1253" on="1"/>
        <pt x="342" y="1357" on="0"/>
        <pt x="395" y="1438" on="0"/>
      </contour>
    </TTGlyph>
    <TTGlyph name="Icircumflex" xMin="154" yMin="9" xMax="747" yMax="1867">
      <contour>
        <pt x="524" y="1867" on="1"/>
        <pt x="531" y="1867" on="1"/>
        <pt x="577" y="1867" on="0"/>
        <pt x="626" y="1791" on="1"/>
        <pt x="747" y="1603" on="0"/>
        <pt x="747" y="1594" on="1"/>
        <pt x="747" y="1588" on="1"/>
        <pt x="747" y="1574" on="0"/>
        <pt x="654" y="1574" on="0"/>
        <pt x="515" y="1759" on="0"/>
        <pt x="500" y="1759" on="0"/>
        <pt x="296" y="1572" on="0"/>
        <pt x="241" y="1572" on="1"/>
        <pt x="234" y="1572" on="1"/>
        <pt x="207" y="1572" on="0"/>
        <pt x="207" y="1598" on="0"/>
        <pt x="476" y="1867" on="0"/>
      </contour>
      <contour>
        <pt x="462" y="1433" on="1"/>
        <pt x="522" y="1433" on="0"/>
        <pt x="522" y="1366" on="1"/>
        <pt x="522" y="1317" on="0"/>
        <pt x="481" y="1183" on="0"/>
        <pt x="469" y="1052" on="0"/>
        <pt x="440" y="881" on="0"/>
        <pt x="348" y="258" on="0"/>
        <pt x="348" y="223" on="1"/>
        <pt x="348" y="108" on="0"/>
        <pt x="301" y="9" on="0"/>
        <pt x="237" y="9" on="1"/>
        <pt x="223" y="9" on="1"/>
        <pt x="154" y="9" on="0"/>
        <pt x="154" y="76" on="1"/>
        <pt x="154" y="90" on="1"/>
        <pt x="154" y="146" on="0"/>
        <pt x="211" y="289" on="0"/>
        <pt x="331" y="1097" on="0"/>
        <pt x="331" y="1180" on="1"/>
        <pt x="328" y="1248" on="1"/>
        <pt x="328" y="1352" on="0"/>
        <pt x="381" y="1433" on="0"/>
      </contour>
    </TTGlyph>
    <TTGlyph name="Idieresis" xMin="173" yMin="10" xMax="783" yMax="1794">
      <contour>
        <pt x="296" y="1605" on="1"/>
        <pt x="259" y="1605" on="0"/>
        <pt x="259" y="1655" on="1"/>
        <pt x="259" y="1682" on="1"/>
        <pt x="263" y="1706" on="1"/>
        <pt x="263" y="1730" on="0"/>
        <pt x="313" y="1793" on="0"/>
        <pt x="353" y="1793" on="1"/>
        <pt x="374" y="1793" on="1"/>
        <pt x="431" y="1793" on="0"/>
        <pt x="431" y="1731" on="1"/>
        <pt x="431" y="1716" on="1"/>
        <pt x="425" y="1682" on="1"/>
        <pt x="425" y="1665" on="0"/>
        <pt x="378" y="1606" on="0"/>
        <pt x="351" y="1606" on="1"/>
        <pt x="345" y="1604" on="0"/>
        <pt x="342" y="1604" on="1"/>
        <pt x="328" y="1602" on="1"/>
        <pt x="313" y="1602" on="1"/>
        <pt x="310" y="1603" on="1"/>
        <pt x="304" y="1603" on="1"/>
        <pt x="300" y="1605" on="0"/>
      </contour>
      <contour>
        <pt x="783" y="1737" on="1"/>
        <pt x="783" y="1711" on="1"/>
        <pt x="783" y="1672" on="0"/>
        <pt x="732" y="1608" on="0"/>
        <pt x="709" y="1608" on="1"/>
        <pt x="686" y="1603" on="1"/>
        <pt x="662" y="1603" on="1"/>
        <pt x="616" y="1603" on="0"/>
        <pt x="616" y="1636" on="1"/>
        <pt x="613" y="1644" on="0"/>
        <pt x="613" y="1647" on="1"/>
        <pt x="611" y="1661" on="1"/>
        <pt x="611" y="1676" on="1"/>
        <pt x="612" y="1679" on="1"/>
        <pt x="615" y="1704" on="1"/>
        <pt x="616" y="1707" on="0"/>
        <pt x="616" y="1732" on="0"/>
        <pt x="666" y="1794" on="0"/>
        <pt x="705" y="1794" on="1"/>
        <pt x="726" y="1794" on="1"/>
        <pt x="783" y="1794" on="0"/>
      </contour>
      <contour>
        <pt x="466" y="1434" on="1"/>
        <pt x="496" y="1434" on="1"/>
        <pt x="542" y="1434" on="0"/>
        <pt x="542" y="1369" on="1"/>
        <pt x="542" y="1355" on="1"/>
        <pt x="542" y="1353" on="0"/>
        <pt x="368" y="338" on="0"/>
        <pt x="368" y="105" on="0"/>
        <pt x="323" y="10" on="0"/>
        <pt x="209" y="10" on="0"/>
        <pt x="173" y="33" on="0"/>
        <pt x="173" y="77" on="1"/>
        <pt x="173" y="91" on="1"/>
        <pt x="173" y="147" on="0"/>
        <pt x="225" y="279" on="0"/>
        <pt x="251" y="463" on="0"/>
        <pt x="350" y="1026" on="0"/>
        <pt x="350" y="1184" on="1"/>
        <pt x="346" y="1252" on="1"/>
        <pt x="346" y="1354" on="0"/>
        <pt x="396" y="1434" on="0"/>
      </contour>
    </TTGlyph>
    <TTGlyph name="Igrave" xMin="154" yMin="14" xMax="582" yMax="1880">
      <contour>
        <pt x="555" y="1579" on="1"/>
        <pt x="533" y="1579" on="1"/>
        <pt x="523" y="1581" on="0"/>
        <pt x="519" y="1581" on="1"/>
        <pt x="497" y="1581" on="0"/>
        <pt x="264" y="1814" on="0"/>
        <pt x="264" y="1861" on="1"/>
        <pt x="264" y="1864" on="1"/>
        <pt x="264" y="1880" on="0"/>
        <pt x="302" y="1880" on="1"/>
        <pt x="325" y="1880" on="1"/>
        <pt x="396" y="1880" on="0"/>
        <pt x="433" y="1843" on="1"/>
        <pt x="448" y="1828" on="0"/>
        <pt x="539" y="1683" on="0"/>
        <pt x="582" y="1625" on="0"/>
        <pt x="582" y="1599" on="1"/>
        <pt x="582" y="1595" on="1"/>
        <pt x="582" y="1579" on="0"/>
      </contour>
      <contour>
        <pt x="447" y="1438" on="1"/>
        <pt x="477" y="1438" on="1"/>
        <pt x="522" y="1438" on="0"/>
        <pt x="522" y="1323" on="0"/>
        <pt x="481" y="1189" on="0"/>
        <pt x="469" y="1049" on="0"/>
        <pt x="451" y="953" on="1"/>
        <pt x="445" y="918" on="1"/>
        <pt x="443" y="901" on="1"/>
        <pt x="437" y="866" on="1"/>
        <pt x="348" y="273" on="0"/>
        <pt x="348" y="228" on="1"/>
        <pt x="348" y="113" on="0"/>
        <pt x="301" y="14" on="0"/>
        <pt x="238" y="14" on="1"/>
        <pt x="223" y="14" on="1"/>
        <pt x="154" y="14" on="0"/>
        <pt x="154" y="82" on="1"/>
        <pt x="154" y="95" on="1"/>
        <pt x="154" y="149" on="0"/>
        <pt x="216" y="315" on="0"/>
        <pt x="331" y="1115" on="0"/>
        <pt x="331" y="1186" on="1"/>
        <pt x="328" y="1254" on="1"/>
        <pt x="328" y="1356" on="0"/>
        <pt x="380" y="1438" on="0"/>
      </contour>
    </TTGlyph>
    <TTGlyph name="J" xMin="-23" yMin="-138" xMax="735" yMax="1403">
      <contour>
        <pt x="67" y="24" on="1"/>
        <pt x="171" y="13" on="1"/>
        <pt x="301" y="13" on="0"/>
        <pt x="389" y="234" on="1"/>
        <pt x="444" y="373" on="0"/>
        <pt x="547" y="928" on="0"/>
        <pt x="547" y="988" on="1"/>
        <pt x="551" y="1062" on="1"/>
        <pt x="551" y="1097" on="1"/>
        <pt x="550" y="1114" on="1"/>
        <pt x="550" y="1164" on="0"/>
        <pt x="550" y="1214" on="1"/>
        <pt x="552" y="1248" on="1"/>
        <pt x="552" y="1283" on="1"/>
        <pt x="552" y="1345" on="0"/>
        <pt x="605" y="1403" on="0"/>
        <pt x="677" y="1403" on="1"/>
        <pt x="696" y="1403" on="1"/>
        <pt x="735" y="1403" on="0"/>
        <pt x="735" y="1244" on="1"/>
        <pt x="735" y="1210" on="1"/>
        <pt x="735" y="1093" on="0"/>
        <pt x="579" y="252" on="0"/>
        <pt x="468" y="7" on="0"/>
        <pt x="289" y="-138" on="0"/>
        <pt x="169" y="-138" on="1"/>
        <pt x="151" y="-138" on="1"/>
        <pt x="66" y="-138" on="0"/>
        <pt x="-23" y="-95" on="0"/>
        <pt x="-23" y="-22" on="0"/>
        <pt x="39" y="24" on="0"/>
      </contour>
    </TTGlyph>
    <TTGlyph name="K" xMin="164" yMin="-1" xMax="1183" yMax="1387">
      <contour>
        <pt x="415" y="812" on="1"/>
        <pt x="457" y="812" on="0"/>
        <pt x="560" y="893" on="1"/>
        <pt x="589" y="916" on="0"/>
        <pt x="770" y="1089" on="1"/>
        <pt x="865" y="1182" on="1"/>
        <pt x="889" y="1205" on="0"/>
        <pt x="960" y="1279" on="0"/>
        <pt x="989" y="1303" on="1"/>
        <pt x="1090" y="1387" on="0"/>
        <pt x="1148" y="1387" on="1"/>
        <pt x="1183" y="1387" on="0"/>
        <pt x="1183" y="1370" on="1"/>
        <pt x="1183" y="1361" on="0"/>
        <pt x="1069" y="1244" on="0"/>
        <pt x="745" y="880" on="0"/>
        <pt x="671" y="774" on="0"/>
        <pt x="671" y="673" on="0"/>
        <pt x="1042" y="71" on="0"/>
        <pt x="1042" y="14" on="1"/>
        <pt x="1042" y="-1" on="0"/>
        <pt x="1002" y="-1" on="1"/>
        <pt x="917" y="-1" on="0"/>
        <pt x="822" y="121" on="0"/>
        <pt x="617" y="554" on="0"/>
        <pt x="597" y="587" on="1"/>
        <pt x="556" y="656" on="0"/>
        <pt x="513" y="656" on="1"/>
        <pt x="444" y="656" on="0"/>
        <pt x="393" y="558" on="1"/>
        <pt x="357" y="488" on="0"/>
        <pt x="294" y="115" on="0"/>
        <pt x="282" y="85" on="1"/>
        <pt x="260" y="28" on="0"/>
        <pt x="206" y="28" on="1"/>
        <pt x="164" y="28" on="0"/>
        <pt x="164" y="87" on="1"/>
        <pt x="164" y="251" on="0"/>
        <pt x="320" y="1234" on="1"/>
        <pt x="341" y="1366" on="0"/>
        <pt x="388" y="1366" on="1"/>
        <pt x="463" y="1366" on="0"/>
        <pt x="463" y="1307" on="1"/>
        <pt x="398" y="838" on="1"/>
        <pt x="398" y="812" on="0"/>
      </contour>
    </TTGlyph>
    <TTGlyph name="L" xMin="134" yMin="-10" xMax="933" yMax="1406">
      <contour>
        <pt x="933" y="67" on="1"/>
        <pt x="933" y="48" on="1"/>
        <pt x="933" y="7" on="0"/>
        <pt x="885" y="-10" on="0"/>
        <pt x="756" y="-10" on="1"/>
        <pt x="712" y="-10" on="1"/>
        <pt x="689" y="-9" on="1"/>
        <pt x="598" y="-7" on="1"/>
        <pt x="575" y="-6" on="0"/>
        <pt x="552" y="-6" on="1"/>
        <pt x="414" y="-3" on="1"/>
        <pt x="253" y="-3" on="0"/>
        <pt x="134" y="18" on="0"/>
        <pt x="134" y="53" on="1"/>
        <pt x="134" y="74" on="1"/>
        <pt x="134" y="167" on="0"/>
        <pt x="332" y="1355" on="1"/>
        <pt x="341" y="1406" on="0"/>
        <pt x="382" y="1406" on="1"/>
        <pt x="403" y="1406" on="1"/>
        <pt x="491" y="1406" on="0"/>
        <pt x="491" y="1354" on="1"/>
        <pt x="491" y="1224" on="0"/>
        <pt x="318" y="273" on="0"/>
        <pt x="318" y="193" on="1"/>
        <pt x="318" y="152" on="0"/>
        <pt x="379" y="125" on="0"/>
        <pt x="489" y="125" on="1"/>
        <pt x="556" y="122" on="1"/>
        <pt x="649" y="120" on="1"/>
        <pt x="870" y="129" on="1"/>
        <pt x="933" y="129" on="0"/>
      </contour>
    </TTGlyph>
    <TTGlyph name="Lslash" xMin="121" yMin="-33" xMax="997" yMax="1343">
      <contour>
        <pt x="241" y="546" on="0"/>
        <pt x="121" y="546" on="0"/>
        <pt x="121" y="581" on="1"/>
        <pt x="121" y="625" on="0"/>
        <pt x="247" y="791" on="0"/>
        <pt x="317" y="947" on="0"/>
        <pt x="317" y="1179" on="0"/>
        <pt x="351" y="1306" on="1"/>
        <pt x="361" y="1343" on="0"/>
        <pt x="398" y="1343" on="1"/>
        <pt x="450" y="1343" on="0"/>
        <pt x="450" y="1263" on="1"/>
        <pt x="449" y="1243" on="1"/>
        <pt x="443" y="1158" on="1"/>
        <pt x="436" y="1048" on="0"/>
        <pt x="436" y="1014" on="1"/>
        <pt x="436" y="896" on="0"/>
        <pt x="466" y="896" on="1"/>
        <pt x="478" y="896" on="0"/>
        <pt x="695" y="973" on="0"/>
        <pt x="766" y="973" on="0"/>
        <pt x="766" y="941" on="1"/>
        <pt x="766" y="891" on="0"/>
        <pt x="727" y="857" on="1"/>
        <pt x="715" y="846" on="0"/>
        <pt x="619" y="799" on="0"/>
        <pt x="591" y="771" on="1"/>
        <pt x="450" y="633" on="0"/>
        <pt x="429" y="594" on="0"/>
        <pt x="375" y="314" on="0"/>
        <pt x="375" y="254" on="1"/>
        <pt x="375" y="150" on="0"/>
        <pt x="491" y="109" on="0"/>
        <pt x="756" y="109" on="1"/>
        <pt x="813" y="111" on="1"/>
        <pt x="902" y="111" on="1"/>
        <pt x="962" y="111" on="0"/>
        <pt x="997" y="67" on="0"/>
        <pt x="997" y="21" on="1"/>
        <pt x="997" y="-33" on="0"/>
        <pt x="781" y="-33" on="1"/>
        <pt x="752" y="-32" on="1"/>
        <pt x="722" y="-32" on="1"/>
        <pt x="446" y="-32" on="0"/>
        <pt x="257" y="-4" on="1"/>
        <pt x="210" y="3" on="0"/>
        <pt x="183" y="41" on="0"/>
        <pt x="183" y="96" on="1"/>
        <pt x="241" y="505" on="1"/>
      </contour>
    </TTGlyph>
    <TTGlyph name="M" xMin="145" yMin="43" xMax="1605" yMax="1367">
      <contour>
        <pt x="491" y="1055" on="1"/>
        <pt x="487" y="1055" on="0"/>
        <pt x="341" y="567" on="0"/>
        <pt x="314" y="434" on="1"/>
        <pt x="288" y="297" on="1"/>
        <pt x="267" y="189" on="0"/>
        <pt x="262" y="172" on="1"/>
        <pt x="235" y="79" on="0"/>
        <pt x="179" y="79" on="1"/>
        <pt x="145" y="79" on="0"/>
        <pt x="145" y="112" on="1"/>
        <pt x="145" y="131" on="0"/>
        <pt x="189" y="307" on="0"/>
        <pt x="210" y="411" on="0"/>
        <pt x="301" y="1148" on="0"/>
        <pt x="339" y="1268" on="1"/>
        <pt x="350" y="1304" on="0"/>
        <pt x="420" y="1367" on="0"/>
        <pt x="482" y="1367" on="0"/>
        <pt x="573" y="1285" on="0"/>
        <pt x="637" y="1154" on="0"/>
        <pt x="860" y="538" on="0"/>
        <pt x="870" y="538" on="1"/>
        <pt x="891" y="538" on="0"/>
        <pt x="1178" y="945" on="1"/>
        <pt x="1240" y="1032" on="0"/>
        <pt x="1296" y="1108" on="0"/>
        <pt x="1318" y="1140" on="1"/>
        <pt x="1391" y="1249" on="1"/>
        <pt x="1472" y="1357" on="0"/>
        <pt x="1534" y="1357" on="1"/>
        <pt x="1559" y="1357" on="0"/>
        <pt x="1605" y="1301" on="0"/>
        <pt x="1605" y="1223" on="0"/>
        <pt x="1455" y="118" on="1"/>
        <pt x="1448" y="64" on="0"/>
        <pt x="1425" y="43" on="0"/>
        <pt x="1384" y="43" on="1"/>
        <pt x="1331" y="43" on="0"/>
        <pt x="1331" y="191" on="1"/>
        <pt x="1371" y="574" on="1"/>
        <pt x="1404" y="937" on="0"/>
        <pt x="1404" y="1034" on="0"/>
        <pt x="1394" y="1034" on="1"/>
        <pt x="1369" y="1034" on="0"/>
        <pt x="1035" y="472" on="0"/>
        <pt x="940" y="340" on="1"/>
        <pt x="880" y="257" on="0"/>
        <pt x="772" y="257" on="0"/>
        <pt x="740" y="326" on="1"/>
        <pt x="723" y="370" on="1"/>
        <pt x="717" y="387" on="0"/>
        <pt x="653" y="605" on="0"/>
        <pt x="625" y="732" on="0"/>
        <pt x="619" y="753" on="1"/>
        <pt x="559" y="969" on="0"/>
        <pt x="519" y="1027" on="1"/>
        <pt x="500" y="1055" on="0"/>
      </contour>
    </TTGlyph>
    <TTGlyph name="N" xMin="135" yMin="27" xMax="1389" yMax="1375">
      <contour>
        <pt x="1106" y="44" on="1"/>
        <pt x="1008" y="44" on="0"/>
        <pt x="965" y="122" on="1"/>
        <pt x="932" y="181" on="0"/>
        <pt x="582" y="995" on="0"/>
        <pt x="496" y="1117" on="1"/>
        <pt x="479" y="1139" on="1"/>
        <pt x="457" y="1139" on="0"/>
        <pt x="281" y="167" on="0"/>
        <pt x="239" y="27" on="0"/>
        <pt x="184" y="27" on="1"/>
        <pt x="135" y="27" on="0"/>
        <pt x="135" y="80" on="1"/>
        <pt x="135" y="189" on="0"/>
        <pt x="338" y="1291" on="1"/>
        <pt x="353" y="1372" on="0"/>
        <pt x="415" y="1372" on="1"/>
        <pt x="483" y="1372" on="0"/>
        <pt x="570" y="1303" on="0"/>
        <pt x="711" y="1073" on="0"/>
        <pt x="1050" y="306" on="0"/>
        <pt x="1059" y="306" on="1"/>
        <pt x="1073" y="306" on="0"/>
        <pt x="1236" y="1251" on="0"/>
        <pt x="1240" y="1264" on="1"/>
        <pt x="1271" y="1375" on="0"/>
        <pt x="1343" y="1375" on="1"/>
        <pt x="1389" y="1375" on="0"/>
        <pt x="1389" y="1322" on="1"/>
        <pt x="1389" y="1292" on="0"/>
        <pt x="1159" y="111" on="1"/>
        <pt x="1146" y="44" on="0"/>
      </contour>
    </TTGlyph>
    <TTGlyph name="Nacute" xMin="213" yMin="93" xMax="1538" yMax="1983">
      <contour>
        <pt x="1308" y="1983" on="1"/>
        <pt x="1353" y="1983" on="1"/>
        <pt x="1416" y="1983" on="0"/>
        <pt x="1416" y="1971" on="1"/>
        <pt x="1416" y="1944" on="0"/>
        <pt x="1101" y="1664" on="0"/>
        <pt x="1073" y="1664" on="1"/>
        <pt x="1046" y="1664" on="1"/>
        <pt x="994" y="1664" on="0"/>
        <pt x="994" y="1680" on="1"/>
        <pt x="994" y="1684" on="0"/>
        <pt x="1181" y="1925" on="0"/>
        <pt x="1248" y="1983" on="0"/>
      </contour>
      <contour>
        <pt x="1188" y="93" on="1"/>
        <pt x="1104" y="93" on="0"/>
        <pt x="1069" y="168" on="1"/>
        <pt x="1061" y="186" on="0"/>
        <pt x="1000" y="387" on="0"/>
        <pt x="986" y="430" on="1"/>
        <pt x="972" y="472" on="1"/>
        <pt x="950" y="536" on="0"/>
        <pt x="883" y="741" on="0"/>
        <pt x="716" y="1129" on="0"/>
        <pt x="655" y="1196" on="1"/>
        <pt x="626" y="1228" on="0"/>
        <pt x="595" y="1228" on="1"/>
        <pt x="592" y="1228" on="0"/>
        <pt x="452" y="680" on="1"/>
        <pt x="440" y="638" on="1"/>
        <pt x="412" y="559" on="1"/>
        <pt x="404" y="534" on="0"/>
        <pt x="328" y="183" on="0"/>
        <pt x="325" y="176" on="1"/>
        <pt x="305" y="126" on="0"/>
        <pt x="266" y="126" on="1"/>
        <pt x="213" y="126" on="0"/>
        <pt x="213" y="201" on="1"/>
        <pt x="213" y="307" on="0"/>
        <pt x="262" y="543" on="1"/>
        <pt x="275" y="585" on="1"/>
        <pt x="285" y="626" on="1"/>
        <pt x="295" y="669" on="0"/>
        <pt x="320" y="860" on="0"/>
        <pt x="354" y="990" on="1"/>
        <pt x="386" y="1096" on="1"/>
        <pt x="392" y="1134" on="1"/>
        <pt x="400" y="1214" on="1"/>
        <pt x="422" y="1377" on="0"/>
        <pt x="478" y="1452" on="0"/>
        <pt x="550" y="1452" on="1"/>
        <pt x="581" y="1452" on="1"/>
        <pt x="633" y="1452" on="0"/>
        <pt x="692" y="1384" on="1"/>
        <pt x="879" y="1170" on="0"/>
        <pt x="1018" y="812" on="1"/>
        <pt x="1091" y="624" on="0"/>
        <pt x="1171" y="393" on="0"/>
        <pt x="1189" y="393" on="0"/>
        <pt x="1321" y="951" on="0"/>
        <pt x="1356" y="1200" on="0"/>
        <pt x="1362" y="1221" on="1"/>
        <pt x="1374" y="1258" on="1"/>
        <pt x="1398" y="1324" on="0"/>
        <pt x="1487" y="1377" on="0"/>
        <pt x="1538" y="1377" on="0"/>
        <pt x="1538" y="1340" on="0"/>
        <pt x="1336" y="725" on="0"/>
        <pt x="1309" y="612" on="0"/>
        <pt x="1249" y="180" on="0"/>
        <pt x="1243" y="154" on="1"/>
        <pt x="1229" y="93" on="0"/>
      </contour>
    </TTGlyph>
    <TTGlyph name="Ntilde" xMin="163" yMin="41" xMax="1434" yMax="1799">
      <contour>
        <pt x="1283" y="1778" on="1"/>
        <pt x="1283" y="1764" on="1"/>
        <pt x="1283" y="1707" on="0"/>
        <pt x="1152" y="1606" on="0"/>
        <pt x="1089" y="1606" on="1"/>
        <pt x="1082" y="1606" on="1"/>
        <pt x="1032" y="1606" on="0"/>
        <pt x="878" y="1698" on="0"/>
        <pt x="800" y="1698" on="0"/>
        <pt x="715" y="1613" on="0"/>
        <pt x="657" y="1613" on="0"/>
        <pt x="657" y="1637" on="1"/>
        <pt x="657" y="1695" on="0"/>
        <pt x="793" y="1799" on="0"/>
        <pt x="856" y="1799" on="1"/>
        <pt x="871" y="1799" on="1"/>
        <pt x="908" y="1799" on="0"/>
        <pt x="1073" y="1711" on="0"/>
        <pt x="1141" y="1711" on="0"/>
        <pt x="1226" y="1796" on="0"/>
        <pt x="1283" y="1796" on="0"/>
      </contour>
      <contour>
        <pt x="1188" y="60" on="0"/>
        <pt x="1072" y="60" on="0"/>
        <pt x="986" y="200" on="0"/>
        <pt x="591" y="1065" on="0"/>
        <pt x="508" y="1157" on="1"/>
        <pt x="490" y="1172" on="1"/>
        <pt x="381" y="641" on="1"/>
        <pt x="362" y="546" on="0"/>
        <pt x="296" y="159" on="0"/>
        <pt x="260" y="41" on="0"/>
        <pt x="197" y="41" on="1"/>
        <pt x="163" y="41" on="0"/>
        <pt x="163" y="102" on="0"/>
        <pt x="253" y="642" on="0"/>
        <pt x="270" y="753" on="0"/>
        <pt x="293" y="883" on="1"/>
        <pt x="300" y="923" on="1"/>
        <pt x="327" y="1069" on="0"/>
        <pt x="335" y="1126" on="1"/>
        <pt x="340" y="1166" on="1"/>
        <pt x="346" y="1215" on="0"/>
        <pt x="351" y="1249" on="1"/>
        <pt x="363" y="1328" on="1"/>
        <pt x="377" y="1384" on="0"/>
        <pt x="444" y="1384" on="1"/>
        <pt x="565" y="1384" on="0"/>
        <pt x="701" y="1158" on="1"/>
        <pt x="752" y="1073" on="0"/>
        <pt x="1109" y="321" on="0"/>
        <pt x="1127" y="321" on="0"/>
        <pt x="1227" y="923" on="0"/>
        <pt x="1273" y="1209" on="0"/>
        <pt x="1275" y="1218" on="1"/>
        <pt x="1283" y="1256" on="1"/>
        <pt x="1301" y="1326" on="0"/>
        <pt x="1350" y="1392" on="0"/>
        <pt x="1403" y="1392" on="1"/>
        <pt x="1434" y="1392" on="0"/>
        <pt x="1434" y="1358" on="1"/>
        <pt x="1434" y="1295" on="0"/>
        <pt x="1380" y="1116" on="0"/>
        <pt x="1281" y="660" on="0"/>
        <pt x="1212" y="180" on="0"/>
        <pt x="1206" y="140" on="1"/>
        <pt x="1200" y="101" on="1"/>
      </contour>
    </TTGlyph>
    <TTGlyph name="O" xMin="157" yMin="-12" xMax="1388" yMax="1441">
      <contour>
        <pt x="1227" y="846" on="1"/>
        <pt x="1227" y="898" on="1"/>
        <pt x="1227" y="992" on="0"/>
        <pt x="1197" y="1074" on="1"/>
        <pt x="1139" y="1231" on="0"/>
        <pt x="1023" y="1281" on="1"/>
        <pt x="958" y="1309" on="0"/>
        <pt x="894" y="1309" on="1"/>
        <pt x="859" y="1309" on="1"/>
        <pt x="650" y="1309" on="0"/>
        <pt x="495" y="1111" on="1"/>
        <pt x="416" y="1010" on="0"/>
        <pt x="319" y="718" on="0"/>
        <pt x="319" y="584" on="1"/>
        <pt x="319" y="532" on="1"/>
        <pt x="319" y="350" on="0"/>
        <pt x="420" y="224" on="1"/>
        <pt x="454" y="181" on="0"/>
        <pt x="579" y="121" on="0"/>
        <pt x="652" y="121" on="1"/>
        <pt x="687" y="121" on="1"/>
        <pt x="783" y="121" on="0"/>
        <pt x="980" y="223" on="0"/>
        <pt x="1132" y="428" on="0"/>
        <pt x="1227" y="705" on="0"/>
      </contour>
      <contour>
        <pt x="1388" y="913" on="1"/>
        <pt x="1388" y="846" on="1"/>
        <pt x="1388" y="678" on="0"/>
        <pt x="1326" y="511" on="1"/>
        <pt x="1203" y="183" on="0"/>
        <pt x="952" y="58" on="1"/>
        <pt x="812" y="-12" on="0"/>
        <pt x="664" y="-12" on="1"/>
        <pt x="642" y="-12" on="1"/>
        <pt x="422" y="-12" on="0"/>
        <pt x="289" y="131" on="1"/>
        <pt x="157" y="274" on="0"/>
        <pt x="157" y="534" on="1"/>
        <pt x="157" y="578" on="1"/>
        <pt x="158" y="743" on="0"/>
        <pt x="218" y="908" on="1"/>
        <pt x="340" y="1240" on="0"/>
        <pt x="595" y="1371" on="1"/>
        <pt x="731" y="1441" on="0"/>
        <pt x="881" y="1441" on="1"/>
        <pt x="904" y="1441" on="1"/>
        <pt x="907" y="1441" on="0"/>
        <pt x="909" y="1441" on="1"/>
        <pt x="1002" y="1441" on="0"/>
        <pt x="1093" y="1408" on="1"/>
        <pt x="1269" y="1344" on="0"/>
        <pt x="1345" y="1145" on="1"/>
        <pt x="1388" y="1033" on="0"/>
      </contour>
    </TTGlyph>
    <TTGlyph name="OE" xMin="245" yMin="7" xMax="2001" yMax="1444">
      <contour>
        <pt x="1141" y="785" on="1"/>
        <pt x="1141" y="830" on="1"/>
        <pt x="1141" y="936" on="0"/>
        <pt x="1090" y="1178" on="0"/>
        <pt x="1046" y="1252" on="0"/>
        <pt x="919" y="1318" on="0"/>
        <pt x="842" y="1318" on="1"/>
        <pt x="827" y="1318" on="1"/>
        <pt x="686" y="1318" on="0"/>
        <pt x="597" y="1193" on="1"/>
        <pt x="356" y="852" on="0"/>
        <pt x="356" y="587" on="1"/>
        <pt x="356" y="516" on="1"/>
        <pt x="356" y="356" on="0"/>
        <pt x="532" y="146" on="0"/>
        <pt x="669" y="146" on="1"/>
        <pt x="704" y="146" on="1"/>
        <pt x="790" y="146" on="0"/>
        <pt x="934" y="215" on="0"/>
        <pt x="972" y="276" on="1"/>
        <pt x="1071" y="433" on="0"/>
        <pt x="1093" y="497" on="1"/>
        <pt x="1141" y="636" on="0"/>
      </contour>
      <contour>
        <pt x="1775" y="116" on="1"/>
        <pt x="1775" y="88" on="0"/>
        <pt x="1595" y="36" on="0"/>
        <pt x="1497" y="36" on="1"/>
        <pt x="1323" y="36" on="0"/>
        <pt x="1218" y="95" on="1"/>
        <pt x="1169" y="123" on="0"/>
        <pt x="1132" y="123" on="0"/>
        <pt x="842" y="7" on="0"/>
        <pt x="722" y="7" on="1"/>
        <pt x="382" y="7" on="0"/>
        <pt x="279" y="305" on="1"/>
        <pt x="245" y="404" on="0"/>
        <pt x="245" y="515" on="1"/>
        <pt x="245" y="560" on="1"/>
        <pt x="245" y="563" on="0"/>
        <pt x="245" y="566" on="1"/>
        <pt x="245" y="731" on="0"/>
        <pt x="300" y="888" on="1"/>
        <pt x="419" y="1231" on="0"/>
        <pt x="696" y="1373" on="1"/>
        <pt x="809" y="1431" on="0"/>
        <pt x="1087" y="1431" on="0"/>
        <pt x="1208" y="1360" on="1"/>
        <pt x="1265" y="1326" on="0"/>
        <pt x="1305" y="1326" on="0"/>
        <pt x="1407" y="1410" on="0"/>
        <pt x="1529" y="1444" on="0"/>
        <pt x="1799" y="1444" on="0"/>
        <pt x="1938" y="1421" on="0"/>
        <pt x="2001" y="1364" on="0"/>
        <pt x="2001" y="1363" on="1"/>
        <pt x="2001" y="1312" on="0"/>
        <pt x="1848" y="1312" on="1"/>
        <pt x="1808" y="1313" on="1"/>
        <pt x="1700" y="1317" on="0"/>
        <pt x="1466" y="1317" on="0"/>
        <pt x="1430" y="1262" on="1"/>
        <pt x="1364" y="1160" on="0"/>
        <pt x="1364" y="910" on="1"/>
        <pt x="1364" y="850" on="0"/>
        <pt x="1463" y="822" on="0"/>
        <pt x="1681" y="822" on="1"/>
        <pt x="1821" y="822" on="0"/>
        <pt x="1821" y="774" on="1"/>
        <pt x="1821" y="744" on="0"/>
        <pt x="1763" y="698" on="0"/>
        <pt x="1723" y="692" on="1"/>
        <pt x="1682" y="690" on="1"/>
        <pt x="1641" y="689" on="1"/>
        <pt x="1598" y="688" on="0"/>
        <pt x="1352" y="679" on="0"/>
        <pt x="1307" y="637" on="0"/>
        <pt x="1293" y="594" on="1"/>
        <pt x="1253" y="469" on="0"/>
        <pt x="1253" y="309" on="1"/>
        <pt x="1253" y="207" on="0"/>
        <pt x="1369" y="151" on="0"/>
        <pt x="1775" y="151" on="0"/>
      </contour>
    </TTGlyph>
    <TTGlyph name="Oacute" xMin="163" yMin="19" xMax="1409" yMax="1867">
      <contour>
        <pt x="1265" y="909" on="1"/>
        <pt x="1265" y="943" on="1"/>
        <pt x="1265" y="1038" on="0"/>
        <pt x="1235" y="1120" on="1"/>
        <pt x="1178" y="1276" on="0"/>
        <pt x="1063" y="1336" on="1"/>
        <pt x="993" y="1372" on="0"/>
        <pt x="920" y="1372" on="1"/>
        <pt x="885" y="1372" on="1"/>
        <pt x="670" y="1372" on="0"/>
        <pt x="503" y="1164" on="1"/>
        <pt x="428" y="1071" on="0"/>
        <pt x="330" y="787" on="0"/>
        <pt x="330" y="652" on="1"/>
        <pt x="330" y="617" on="1"/>
        <pt x="330" y="523" on="0"/>
        <pt x="360" y="439" on="1"/>
        <pt x="449" y="190" on="0"/>
        <pt x="692" y="190" on="1"/>
        <pt x="709" y="191" on="1"/>
        <pt x="727" y="191" on="1"/>
        <pt x="728" y="191" on="0"/>
        <pt x="730" y="191" on="1"/>
        <pt x="826" y="191" on="0"/>
        <pt x="928" y="254" on="1"/>
        <pt x="1123" y="373" on="0"/>
        <pt x="1213" y="621" on="1"/>
        <pt x="1265" y="768" on="0"/>
      </contour>
      <contour>
        <pt x="1164" y="1865" on="0"/>
        <pt x="1180" y="1865" on="0"/>
        <pt x="1180" y="1859" on="1"/>
        <pt x="1180" y="1844" on="0"/>
        <pt x="842" y="1543" on="0"/>
        <pt x="809" y="1543" on="1"/>
        <pt x="800" y="1543" on="1"/>
        <pt x="784" y="1543" on="0"/>
        <pt x="784" y="1555" on="0"/>
        <pt x="812" y="1592" on="1"/>
        <pt x="910" y="1723" on="0"/>
        <pt x="1013" y="1813" on="1"/>
        <pt x="1075" y="1867" on="0"/>
        <pt x="1138" y="1867" on="1"/>
        <pt x="1156" y="1867" on="1"/>
      </contour>
      <contour>
        <pt x="1409" y="917" on="1"/>
        <pt x="1409" y="873" on="1"/>
        <pt x="1409" y="867" on="1"/>
        <pt x="1409" y="700" on="0"/>
        <pt x="1350" y="544" on="1"/>
        <pt x="1228" y="218" on="0"/>
        <pt x="965" y="88" on="1"/>
        <pt x="827" y="19" on="0"/>
        <pt x="700" y="19" on="1"/>
        <pt x="655" y="19" on="1"/>
        <pt x="450" y="19" on="0"/>
        <pt x="311" y="162" on="1"/>
        <pt x="245" y="230" on="0"/>
        <pt x="163" y="449" on="0"/>
        <pt x="163" y="571" on="1"/>
        <pt x="163" y="615" on="1"/>
        <pt x="163" y="785" on="0"/>
        <pt x="222" y="943" on="1"/>
        <pt x="343" y="1267" on="0"/>
        <pt x="609" y="1404" on="1"/>
        <pt x="743" y="1473" on="0"/>
        <pt x="873" y="1473" on="1"/>
        <pt x="918" y="1473" on="1"/>
        <pt x="1136" y="1473" on="0"/>
        <pt x="1276" y="1313" on="1"/>
        <pt x="1340" y="1239" on="0"/>
        <pt x="1409" y="1023" on="0"/>
      </contour>
    </TTGlyph>
    <TTGlyph name="Ocircumflex" xMin="163" yMin="9" xMax="1409" yMax="1826">
      <contour>
        <pt x="320" y="657" on="1"/>
        <pt x="320" y="622" on="1"/>
        <pt x="320" y="423" on="0"/>
        <pt x="522" y="183" on="0"/>
        <pt x="689" y="183" on="1"/>
        <pt x="922" y="183" on="0"/>
        <pt x="1092" y="386" on="1"/>
        <pt x="1171" y="480" on="0"/>
        <pt x="1264" y="751" on="0"/>
        <pt x="1264" y="894" on="1"/>
        <pt x="1263" y="911" on="1"/>
        <pt x="1263" y="1120" on="0"/>
        <pt x="1156" y="1241" on="1"/>
        <pt x="1049" y="1363" on="0"/>
        <pt x="896" y="1363" on="1"/>
        <pt x="878" y="1363" on="1"/>
        <pt x="773" y="1362" on="0"/>
        <pt x="671" y="1306" on="1"/>
        <pt x="459" y="1189" on="0"/>
        <pt x="367" y="914" on="1"/>
        <pt x="320" y="773" on="0"/>
      </contour>
      <contour>
        <pt x="975" y="1826" on="1"/>
        <pt x="982" y="1826" on="1"/>
        <pt x="1025" y="1826" on="0"/>
        <pt x="1193" y="1621" on="0"/>
        <pt x="1193" y="1590" on="1"/>
        <pt x="1193" y="1585" on="1"/>
        <pt x="1193" y="1570" on="0"/>
        <pt x="1168" y="1570" on="1"/>
        <pt x="1110" y="1570" on="0"/>
        <pt x="1043" y="1637" on="1"/>
        <pt x="1019" y="1661" on="0"/>
        <pt x="940" y="1748" on="0"/>
        <pt x="939" y="1748" on="1"/>
        <pt x="925" y="1748" on="0"/>
        <pt x="719" y="1542" on="0"/>
        <pt x="663" y="1542" on="1"/>
        <pt x="657" y="1542" on="1"/>
        <pt x="638" y="1542" on="0"/>
        <pt x="638" y="1549" on="1"/>
        <pt x="638" y="1554" on="1"/>
        <pt x="638" y="1570" on="0"/>
        <pt x="941" y="1826" on="0"/>
      </contour>
      <contour>
        <pt x="1409" y="907" on="1"/>
        <pt x="1409" y="863" on="1"/>
        <pt x="1409" y="857" on="1"/>
        <pt x="1409" y="690" on="0"/>
        <pt x="1350" y="534" on="1"/>
        <pt x="1230" y="213" on="0"/>
        <pt x="965" y="78" on="1"/>
        <pt x="831" y="9" on="0"/>
        <pt x="677" y="9" on="1"/>
        <pt x="655" y="9" on="1"/>
        <pt x="554" y="9" on="0"/>
        <pt x="460" y="49" on="1"/>
        <pt x="267" y="131" on="0"/>
        <pt x="198" y="347" on="1"/>
        <pt x="163" y="457" on="0"/>
        <pt x="163" y="561" on="1"/>
        <pt x="163" y="606" on="1"/>
        <pt x="163" y="609" on="0"/>
        <pt x="163" y="612" on="1"/>
        <pt x="163" y="781" on="0"/>
        <pt x="222" y="937" on="1"/>
        <pt x="347" y="1271" on="0"/>
        <pt x="627" y="1404" on="1"/>
        <pt x="754" y="1464" on="0"/>
        <pt x="881" y="1464" on="1"/>
        <pt x="1248" y="1464" on="0"/>
        <pt x="1368" y="1140" on="1"/>
        <pt x="1409" y="1031" on="0"/>
      </contour>
    </TTGlyph>
    <TTGlyph name="Odieresis" xMin="165" yMin="4" xMax="1411" yMax="1789">
      <contour>
        <pt x="1251" y="857" on="1"/>
        <pt x="1251" y="927" on="1"/>
        <pt x="1251" y="1111" on="0"/>
        <pt x="1139" y="1246" on="1"/>
        <pt x="1097" y="1296" on="0"/>
        <pt x="968" y="1354" on="0"/>
        <pt x="907" y="1354" on="1"/>
        <pt x="855" y="1354" on="1"/>
        <pt x="755" y="1354" on="0"/>
        <pt x="547" y="1228" on="0"/>
        <pt x="403" y="1023" on="0"/>
        <pt x="324" y="761" on="0"/>
        <pt x="324" y="637" on="1"/>
        <pt x="324" y="619" on="1"/>
        <pt x="324" y="420" on="0"/>
        <pt x="522" y="175" on="0"/>
        <pt x="686" y="175" on="1"/>
        <pt x="703" y="175" on="1"/>
        <pt x="705" y="175" on="0"/>
        <pt x="707" y="175" on="1"/>
        <pt x="806" y="175" on="0"/>
        <pt x="904" y="228" on="1"/>
        <pt x="1112" y="339" on="0"/>
        <pt x="1203" y="604" on="1"/>
        <pt x="1251" y="744" on="0"/>
      </contour>
      <contour>
        <pt x="860" y="1699" on="0"/>
        <pt x="860" y="1676" on="0"/>
        <pt x="807" y="1610" on="0"/>
        <pt x="759" y="1610" on="1"/>
        <pt x="735" y="1610" on="1"/>
        <pt x="685" y="1610" on="0"/>
        <pt x="685" y="1644" on="1"/>
        <pt x="683" y="1650" on="0"/>
        <pt x="683" y="1652" on="1"/>
        <pt x="681" y="1663" on="1"/>
        <pt x="681" y="1685" on="1"/>
        <pt x="681" y="1721" on="0"/>
        <pt x="731" y="1783" on="0"/>
        <pt x="752" y="1783" on="1"/>
        <pt x="761" y="1786" on="0"/>
        <pt x="764" y="1786" on="1"/>
        <pt x="782" y="1789" on="1"/>
        <pt x="806" y="1789" on="1"/>
        <pt x="815" y="1786" on="0"/>
        <pt x="821" y="1786" on="1"/>
        <pt x="858" y="1786" on="0"/>
        <pt x="858" y="1754" on="1"/>
        <pt x="861" y="1748" on="0"/>
        <pt x="861" y="1746" on="1"/>
        <pt x="863" y="1733" on="1"/>
        <pt x="863" y="1713" on="1"/>
        <pt x="862" y="1710" on="1"/>
        <pt x="862" y="1705" on="1"/>
      </contour>
      <contour>
        <pt x="1032" y="1562" on="1"/>
        <pt x="1017" y="1562" on="0"/>
        <pt x="1017" y="1584" on="1"/>
        <pt x="1017" y="1597" on="1"/>
        <pt x="1018" y="1600" on="1"/>
        <pt x="1018" y="1603" on="0"/>
        <pt x="1018" y="1606" on="1"/>
        <pt x="1022" y="1628" on="1"/>
        <pt x="1024" y="1634" on="0"/>
        <pt x="1024" y="1638" on="1"/>
        <pt x="1024" y="1688" on="0"/>
        <pt x="1109" y="1773" on="0"/>
        <pt x="1137" y="1773" on="1"/>
        <pt x="1151" y="1776" on="1"/>
        <pt x="1164" y="1776" on="1"/>
        <pt x="1192" y="1776" on="0"/>
        <pt x="1192" y="1751" on="1"/>
        <pt x="1192" y="1729" on="1"/>
        <pt x="1192" y="1665" on="0"/>
        <pt x="1106" y="1562" on="0"/>
        <pt x="1068" y="1562" on="1"/>
        <pt x="1051" y="1559" on="1"/>
        <pt x="1046" y="1559" on="1"/>
        <pt x="1043" y="1560" on="1"/>
        <pt x="1039" y="1560" on="1"/>
        <pt x="1035" y="1562" on="0"/>
      </contour>
      <contour>
        <pt x="1410" y="835" on="1"/>
        <pt x="1410" y="685" on="0"/>
        <pt x="1289" y="363" on="0"/>
        <pt x="1090" y="135" on="0"/>
        <pt x="828" y="4" on="0"/>
        <pt x="679" y="4" on="1"/>
        <pt x="657" y="4" on="1"/>
        <pt x="556" y="4" on="0"/>
        <pt x="462" y="44" on="1"/>
        <pt x="275" y="123" on="0"/>
        <pt x="200" y="342" on="1"/>
        <pt x="165" y="445" on="0"/>
        <pt x="165" y="556" on="1"/>
        <pt x="165" y="601" on="1"/>
        <pt x="165" y="604" on="0"/>
        <pt x="165" y="607" on="1"/>
        <pt x="165" y="776" on="0"/>
        <pt x="224" y="932" on="1"/>
        <pt x="349" y="1266" on="0"/>
        <pt x="629" y="1399" on="1"/>
        <pt x="756" y="1459" on="0"/>
        <pt x="892" y="1459" on="1"/>
        <pt x="1136" y="1459" on="0"/>
        <pt x="1411" y="1143" on="0"/>
        <pt x="1411" y="880" on="1"/>
        <pt x="1410" y="858" on="1"/>
      </contour>
    </TTGlyph>
    <TTGlyph name="Ograve" xMin="164" yMin="20" xMax="1410" yMax="1866">
      <contour>
        <pt x="1250" y="872" on="1"/>
        <pt x="1250" y="941" on="1"/>
        <pt x="1250" y="1030" on="0"/>
        <pt x="1218" y="1117" on="1"/>
        <pt x="1124" y="1373" on="0"/>
        <pt x="869" y="1373" on="1"/>
        <pt x="646" y="1373" on="0"/>
        <pt x="488" y="1169" on="1"/>
        <pt x="412" y="1071" on="0"/>
        <pt x="321" y="807" on="0"/>
        <pt x="321" y="673" on="1"/>
        <pt x="321" y="638" on="1"/>
        <pt x="321" y="442" on="0"/>
        <pt x="421" y="316" on="1"/>
        <pt x="520" y="191" on="0"/>
        <pt x="683" y="191" on="1"/>
        <pt x="684" y="191" on="0"/>
        <pt x="686" y="191" on="1"/>
        <pt x="703" y="191" on="1"/>
        <pt x="812" y="191" on="0"/>
        <pt x="914" y="247" on="1"/>
        <pt x="1113" y="357" on="0"/>
        <pt x="1200" y="603" on="1"/>
        <pt x="1250" y="744" on="0"/>
      </contour>
      <contour>
        <pt x="1016" y="1552" on="1"/>
        <pt x="1008" y="1552" on="1"/>
        <pt x="996" y="1555" on="0"/>
        <pt x="991" y="1555" on="1"/>
        <pt x="972" y="1555" on="0"/>
        <pt x="820" y="1730" on="0"/>
        <pt x="705" y="1830" on="0"/>
        <pt x="705" y="1853" on="1"/>
        <pt x="705" y="1856" on="1"/>
        <pt x="705" y="1864" on="0"/>
        <pt x="731" y="1864" on="1"/>
        <pt x="751" y="1866" on="1"/>
        <pt x="759" y="1866" on="1"/>
        <pt x="809" y="1866" on="0"/>
        <pt x="857" y="1818" on="1"/>
        <pt x="858" y="1817" on="0"/>
        <pt x="927" y="1714" on="0"/>
        <pt x="952" y="1685" on="0"/>
        <pt x="970" y="1661" on="1"/>
        <pt x="1012" y="1612" on="1"/>
        <pt x="1038" y="1582" on="0"/>
        <pt x="1038" y="1567" on="1"/>
        <pt x="1038" y="1564" on="1"/>
        <pt x="1038" y="1552" on="0"/>
      </contour>
      <contour>
        <pt x="1410" y="896" on="1"/>
        <pt x="1410" y="874" on="1"/>
        <pt x="1410" y="704" on="0"/>
        <pt x="1350" y="545" on="1"/>
        <pt x="1230" y="224" on="0"/>
        <pt x="966" y="89" on="1"/>
        <pt x="832" y="20" on="0"/>
        <pt x="678" y="20" on="1"/>
        <pt x="656" y="20" on="1"/>
        <pt x="554" y="20" on="0"/>
        <pt x="460" y="60" on="1"/>
        <pt x="267" y="142" on="0"/>
        <pt x="199" y="358" on="1"/>
        <pt x="164" y="468" on="0"/>
        <pt x="164" y="572" on="1"/>
        <pt x="164" y="617" on="1"/>
        <pt x="164" y="789" on="0"/>
        <pt x="224" y="948" on="1"/>
        <pt x="345" y="1271" on="0"/>
        <pt x="609" y="1406" on="1"/>
        <pt x="743" y="1475" on="0"/>
        <pt x="876" y="1475" on="1"/>
        <pt x="1125" y="1475" on="0"/>
        <pt x="1268" y="1324" on="1"/>
        <pt x="1410" y="1172" on="0"/>
      </contour>
    </TTGlyph>
    <TTGlyph name="Oslash" xMin="259" yMin="7" xMax="1387" yMax="1440">
      <contour>
        <pt x="966" y="1338" on="1"/>
        <pt x="924" y="1338" on="1"/>
        <pt x="695" y="1338" on="0"/>
        <pt x="524" y="1141" on="1"/>
        <pt x="440" y="1044" on="0"/>
        <pt x="344" y="756" on="0"/>
        <pt x="344" y="636" on="1"/>
        <pt x="344" y="576" on="1"/>
        <pt x="344" y="462" on="0"/>
        <pt x="417" y="280" on="0"/>
        <pt x="446" y="280" on="1"/>
        <pt x="456" y="280" on="1"/>
        <pt x="476" y="280" on="0"/>
        <pt x="528" y="322" on="1"/>
        <pt x="652" y="421" on="0"/>
        <pt x="962" y="859" on="0"/>
        <pt x="1072" y="1097" on="1"/>
        <pt x="1112" y="1184" on="0"/>
        <pt x="1112" y="1198" on="1"/>
        <pt x="1112" y="1210" on="1"/>
        <pt x="1112" y="1269" on="0"/>
        <pt x="1020" y="1338" on="0"/>
      </contour>
      <contour>
        <pt x="609" y="127" on="1"/>
        <pt x="628" y="127" on="1"/>
        <pt x="629" y="127" on="0"/>
        <pt x="630" y="127" on="1"/>
        <pt x="718" y="127" on="0"/>
        <pt x="821" y="220" on="1"/>
        <pt x="1028" y="406" on="0"/>
        <pt x="1135" y="729" on="1"/>
        <pt x="1207" y="945" on="0"/>
        <pt x="1207" y="1063" on="1"/>
        <pt x="1207" y="1098" on="1"/>
        <pt x="1207" y="1197" on="0"/>
        <pt x="1182" y="1197" on="1"/>
        <pt x="1167" y="1197" on="0"/>
        <pt x="926" y="734" on="0"/>
        <pt x="797" y="549" on="1"/>
        <pt x="789" y="538" on="0"/>
        <pt x="547" y="210" on="0"/>
        <pt x="547" y="191" on="1"/>
        <pt x="547" y="127" on="0"/>
      </contour>
      <contour>
        <pt x="1338" y="1400" on="1"/>
        <pt x="1319" y="1262" on="1"/>
        <pt x="1319" y="1240" on="0"/>
        <pt x="1353" y="1140" on="0"/>
        <pt x="1387" y="1011" on="0"/>
        <pt x="1387" y="917" on="1"/>
        <pt x="1386" y="891" on="1"/>
        <pt x="1386" y="866" on="1"/>
        <pt x="1386" y="733" on="0"/>
        <pt x="1326" y="559" on="1"/>
        <pt x="1203" y="199" on="0"/>
        <pt x="855" y="45" on="1"/>
        <pt x="769" y="7" on="0"/>
        <pt x="630" y="7" on="1"/>
        <pt x="607" y="7" on="1"/>
        <pt x="545" y="7" on="0"/>
        <pt x="413" y="34" on="0"/>
        <pt x="394" y="34" on="1"/>
        <pt x="334" y="22" on="1"/>
        <pt x="259" y="22" on="0"/>
        <pt x="259" y="67" on="1"/>
        <pt x="259" y="85" on="1"/>
        <pt x="259" y="91" on="0"/>
        <pt x="277" y="149" on="0"/>
        <pt x="280" y="162" on="1"/>
        <pt x="303" y="262" on="1"/>
        <pt x="303" y="265" on="0"/>
        <pt x="264" y="423" on="0"/>
        <pt x="264" y="693" on="0"/>
        <pt x="329" y="913" on="1"/>
        <pt x="373" y="1061" on="0"/>
        <pt x="545" y="1270" on="0"/>
        <pt x="860" y="1432" on="0"/>
        <pt x="997" y="1432" on="1"/>
        <pt x="1039" y="1430" on="1"/>
        <pt x="1060" y="1429" on="0"/>
        <pt x="1099" y="1429" on="1"/>
        <pt x="1174" y="1417" on="1"/>
        <pt x="1192" y="1417" on="0"/>
        <pt x="1255" y="1440" on="0"/>
        <pt x="1256" y="1440" on="1"/>
        <pt x="1338" y="1440" on="0"/>
      </contour>
    </TTGlyph>
    <TTGlyph name="Otilde" xMin="161" yMin="-3" xMax="1407" yMax="1757">
      <contour>
        <pt x="320" y="645" on="1"/>
        <pt x="320" y="593" on="1"/>
        <pt x="320" y="504" on="0"/>
        <pt x="349" y="422" on="1"/>
        <pt x="407" y="260" on="0"/>
        <pt x="540" y="199" on="1"/>
        <pt x="605" y="170" on="0"/>
        <pt x="688" y="170" on="1"/>
        <pt x="706" y="170" on="1"/>
        <pt x="820" y="170" on="0"/>
        <pt x="920" y="228" on="1"/>
        <pt x="1138" y="356" on="0"/>
        <pt x="1223" y="629" on="1"/>
        <pt x="1262" y="754" on="0"/>
        <pt x="1262" y="887" on="1"/>
        <pt x="1262" y="904" on="1"/>
        <pt x="1262" y="1106" on="0"/>
        <pt x="1146" y="1239" on="1"/>
        <pt x="1052" y="1346" on="0"/>
        <pt x="893" y="1346" on="1"/>
        <pt x="876" y="1346" on="1"/>
        <pt x="767" y="1346" on="0"/>
        <pt x="668" y="1292" on="1"/>
        <pt x="456" y="1175" on="0"/>
        <pt x="365" y="903" on="1"/>
        <pt x="320" y="768" on="0"/>
      </contour>
      <contour>
        <pt x="1022" y="1657" on="0"/>
        <pt x="1093" y="1657" on="0"/>
        <pt x="1184" y="1757" on="0"/>
        <pt x="1208" y="1757" on="1"/>
        <pt x="1214" y="1757" on="1"/>
        <pt x="1240" y="1757" on="0"/>
        <pt x="1240" y="1736" on="1"/>
        <pt x="1240" y="1679" on="0"/>
        <pt x="1117" y="1587" on="0"/>
        <pt x="986" y="1587" on="0"/>
        <pt x="828" y="1666" on="0"/>
        <pt x="748" y="1666" on="0"/>
        <pt x="665" y="1566" on="0"/>
        <pt x="604" y="1566" on="0"/>
        <pt x="604" y="1579" on="1"/>
        <pt x="604" y="1586" on="1"/>
        <pt x="604" y="1634" on="0"/>
        <pt x="722" y="1730" on="0"/>
        <pt x="786" y="1730" on="1"/>
        <pt x="802" y="1732" on="1"/>
        <pt x="818" y="1731" on="1"/>
        <pt x="863" y="1731" on="0"/>
      </contour>
      <contour>
        <pt x="697" y="-3" on="1"/>
        <pt x="653" y="-3" on="1"/>
        <pt x="437" y="-3" on="0"/>
        <pt x="295" y="155" on="1"/>
        <pt x="225" y="233" on="0"/>
        <pt x="161" y="451" on="0"/>
        <pt x="161" y="548" on="1"/>
        <pt x="161" y="593" on="1"/>
        <pt x="161" y="596" on="0"/>
        <pt x="161" y="599" on="1"/>
        <pt x="161" y="768" on="0"/>
        <pt x="220" y="924" on="1"/>
        <pt x="341" y="1247" on="0"/>
        <pt x="606" y="1382" on="1"/>
        <pt x="740" y="1451" on="0"/>
        <pt x="871" y="1451" on="1"/>
        <pt x="916" y="1451" on="1"/>
        <pt x="1013" y="1450" on="0"/>
        <pt x="1105" y="1412" on="1"/>
        <pt x="1289" y="1335" on="0"/>
        <pt x="1366" y="1128" on="1"/>
        <pt x="1407" y="1019" on="0"/>
        <pt x="1407" y="873" on="1"/>
        <pt x="1406" y="850" on="1"/>
        <pt x="1406" y="676" on="0"/>
        <pt x="1348" y="522" on="1"/>
        <pt x="1221" y="182" on="0"/>
        <pt x="944" y="56" on="1"/>
        <pt x="816" y="-3" on="0"/>
      </contour>
    </TTGlyph>
    <TTGlyph name="P" xMin="135" yMin="1" xMax="1177" yMax="1423">
      <contour>
        <pt x="462" y="710" on="1"/>
        <pt x="543" y="710" on="1"/>
        <pt x="554" y="711" on="1"/>
        <pt x="638" y="714" on="1"/>
        <pt x="649" y="715" on="0"/>
        <pt x="659" y="715" on="1"/>
        <pt x="808" y="715" on="0"/>
        <pt x="916" y="815" on="1"/>
        <pt x="1023" y="914" on="0"/>
        <pt x="1023" y="1068" on="1"/>
        <pt x="1023" y="1071" on="1"/>
        <pt x="1023" y="1082" on="1"/>
        <pt x="1023" y="1185" on="0"/>
        <pt x="893" y="1305" on="0"/>
        <pt x="770" y="1305" on="1"/>
        <pt x="695" y="1305" on="1"/>
        <pt x="685" y="1304" on="1"/>
        <pt x="534" y="1304" on="0"/>
        <pt x="500" y="1240" on="0"/>
        <pt x="469" y="1033" on="0"/>
        <pt x="414" y="760" on="0"/>
        <pt x="414" y="749" on="1"/>
        <pt x="415" y="741" on="1"/>
        <pt x="415" y="733" on="1"/>
        <pt x="415" y="710" on="0"/>
      </contour>
      <contour>
        <pt x="745" y="1423" on="1"/>
        <pt x="790" y="1423" on="1"/>
        <pt x="1060" y="1423" on="0"/>
        <pt x="1145" y="1252" on="1"/>
        <pt x="1177" y="1188" on="0"/>
        <pt x="1177" y="1107" on="1"/>
        <pt x="1177" y="1084" on="1"/>
        <pt x="1177" y="957" on="0"/>
        <pt x="1046" y="737" on="0"/>
        <pt x="882" y="634" on="0"/>
        <pt x="714" y="594" on="0"/>
        <pt x="422" y="573" on="0"/>
        <pt x="393" y="550" on="1"/>
        <pt x="376" y="536" on="0"/>
        <pt x="320" y="242" on="0"/>
        <pt x="298" y="92" on="0"/>
        <pt x="289" y="66" on="1"/>
        <pt x="266" y="1" on="0"/>
        <pt x="193" y="1" on="1"/>
        <pt x="174" y="1" on="1"/>
        <pt x="135" y="1" on="0"/>
        <pt x="135" y="89" on="0"/>
        <pt x="189" y="329" on="0"/>
        <pt x="200" y="390" on="1"/>
        <pt x="232" y="564" on="1"/>
        <pt x="240" y="608" on="0"/>
        <pt x="288" y="862" on="0"/>
        <pt x="304" y="993" on="0"/>
        <pt x="342" y="1164" on="0"/>
        <pt x="361" y="1346" on="0"/>
        <pt x="365" y="1356" on="1"/>
        <pt x="379" y="1390" on="0"/>
        <pt x="435" y="1401" on="1"/>
        <pt x="551" y="1423" on="0"/>
      </contour>
    </TTGlyph>
    <TTGlyph name="Q" xMin="178" yMin="-190" xMax="1428" yMax="1438">
      <contour>
        <pt x="317" y="615" on="1"/>
        <pt x="317" y="540" on="1"/>
        <pt x="318" y="457" on="0"/>
        <pt x="346" y="371" on="1"/>
        <pt x="397" y="217" on="0"/>
        <pt x="512" y="155" on="1"/>
        <pt x="589" y="114" on="0"/>
        <pt x="681" y="114" on="1"/>
        <pt x="718" y="114" on="1"/>
        <pt x="796" y="114" on="0"/>
        <pt x="859" y="153" on="1"/>
        <pt x="1061" y="278" on="0"/>
        <pt x="1163" y="416" on="1"/>
        <pt x="1219" y="491" on="0"/>
        <pt x="1280" y="730" on="0"/>
        <pt x="1280" y="829" on="1"/>
        <pt x="1280" y="884" on="1"/>
        <pt x="1280" y="970" on="0"/>
        <pt x="1250" y="1058" on="1"/>
        <pt x="1192" y="1231" on="0"/>
        <pt x="1055" y="1286" on="1"/>
        <pt x="981" y="1316" on="0"/>
        <pt x="914" y="1316" on="1"/>
        <pt x="876" y="1316" on="1"/>
        <pt x="660" y="1316" on="0"/>
        <pt x="507" y="1131" on="1"/>
        <pt x="421" y="1026" on="0"/>
        <pt x="317" y="740" on="0"/>
      </contour>
      <contour>
        <pt x="1428" y="867" on="1"/>
        <pt x="1428" y="662" on="0"/>
        <pt x="1310" y="404" on="1"/>
        <pt x="1260" y="294" on="0"/>
        <pt x="1193" y="212" on="1"/>
        <pt x="1175" y="190" on="0"/>
        <pt x="1057" y="72" on="0"/>
        <pt x="1057" y="53" on="1"/>
        <pt x="1057" y="9" on="0"/>
        <pt x="1136" y="-73" on="1"/>
        <pt x="1174" y="-112" on="0"/>
        <pt x="1237" y="-131" on="0"/>
        <pt x="1237" y="-148" on="0"/>
        <pt x="1221" y="-158" on="1"/>
        <pt x="1168" y="-190" on="0"/>
        <pt x="1100" y="-190" on="1"/>
        <pt x="1077" y="-190" on="1"/>
        <pt x="980" y="-190" on="0"/>
        <pt x="480" y="-5" on="0"/>
        <pt x="295" y="152" on="0"/>
        <pt x="178" y="440" on="0"/>
        <pt x="178" y="572" on="1"/>
        <pt x="178" y="626" on="1"/>
        <pt x="178" y="770" on="0"/>
        <pt x="288" y="1082" on="0"/>
        <pt x="491" y="1319" on="0"/>
        <pt x="750" y="1438" on="0"/>
        <pt x="880" y="1438" on="1"/>
        <pt x="936" y="1438" on="1"/>
        <pt x="1040" y="1438" on="0"/>
        <pt x="1236" y="1352" on="0"/>
        <pt x="1357" y="1217" on="0"/>
        <pt x="1428" y="1008" on="0"/>
        <pt x="1428" y="894" on="1"/>
      </contour>
    </TTGlyph>
    <TTGlyph name="R" xMin="137" yMin="17" xMax="1137" yMax="1420">
      <contour>
        <pt x="443" y="760" on="1"/>
        <pt x="561" y="760" on="1"/>
        <pt x="571" y="761" on="1"/>
        <pt x="651" y="763" on="1"/>
        <pt x="661" y="764" on="0"/>
        <pt x="671" y="764" on="1"/>
        <pt x="808" y="764" on="0"/>
        <pt x="991" y="947" on="0"/>
        <pt x="991" y="1063" on="1"/>
        <pt x="991" y="1105" on="1"/>
        <pt x="991" y="1191" on="0"/>
        <pt x="854" y="1299" on="0"/>
        <pt x="721" y="1299" on="1"/>
        <pt x="632" y="1299" on="1"/>
        <pt x="622" y="1298" on="1"/>
        <pt x="545" y="1295" on="1"/>
        <pt x="535" y="1294" on="0"/>
        <pt x="526" y="1294" on="1"/>
        <pt x="489" y="1294" on="0"/>
        <pt x="476" y="1247" on="1"/>
        <pt x="402" y="981" on="0"/>
        <pt x="402" y="785" on="1"/>
        <pt x="402" y="760" on="0"/>
      </contour>
      <contour>
        <pt x="454" y="636" on="1"/>
        <pt x="385" y="636" on="0"/>
        <pt x="364" y="569" on="1"/>
        <pt x="358" y="550" on="0"/>
        <pt x="282" y="80" on="0"/>
        <pt x="241" y="22" on="0"/>
        <pt x="162" y="22" on="1"/>
        <pt x="137" y="22" on="0"/>
        <pt x="137" y="148" on="0"/>
        <pt x="297" y="1046" on="0"/>
        <pt x="330" y="1333" on="0"/>
        <pt x="346" y="1387" on="0"/>
        <pt x="405" y="1417" on="0"/>
        <pt x="506" y="1417" on="1"/>
        <pt x="563" y="1419" on="1"/>
        <pt x="648" y="1420" on="1"/>
        <pt x="704" y="1420" on="1"/>
        <pt x="1034" y="1420" on="0"/>
        <pt x="1112" y="1241" on="1"/>
        <pt x="1137" y="1183" on="0"/>
        <pt x="1137" y="1104" on="1"/>
        <pt x="1137" y="868" on="0"/>
        <pt x="935" y="725" on="1"/>
        <pt x="838" y="656" on="0"/>
        <pt x="838" y="612" on="1"/>
        <pt x="838" y="600" on="0"/>
        <pt x="1038" y="63" on="0"/>
        <pt x="1038" y="53" on="1"/>
        <pt x="1038" y="17" on="0"/>
        <pt x="912" y="17" on="0"/>
        <pt x="879" y="67" on="1"/>
        <pt x="863" y="91" on="0"/>
        <pt x="720" y="512" on="0"/>
        <pt x="613" y="636" on="0"/>
      </contour>
    </TTGlyph>
    <TTGlyph name="S" xMin="93" yMin="-12" xMax="1102" yMax="1440">
      <contour>
        <pt x="1020" y="1216" on="1"/>
        <pt x="1010" y="1216" on="0"/>
        <pt x="806" y="1312" on="0"/>
        <pt x="601" y="1312" on="0"/>
        <pt x="426" y="1183" on="0"/>
        <pt x="426" y="976" on="0"/>
        <pt x="501" y="911" on="1"/>
        <pt x="543" y="874" on="0"/>
        <pt x="875" y="717" on="0"/>
        <pt x="937" y="649" on="1"/>
        <pt x="1021" y="557" on="0"/>
        <pt x="1021" y="423" on="1"/>
        <pt x="1021" y="343" on="0"/>
        <pt x="984" y="260" on="1"/>
        <pt x="911" y="96" on="0"/>
        <pt x="709" y="22" on="1"/>
        <pt x="616" y="-12" on="0"/>
        <pt x="522" y="-12" on="1"/>
        <pt x="490" y="-12" on="1"/>
        <pt x="348" y="-12" on="0"/>
        <pt x="93" y="104" on="0"/>
        <pt x="93" y="153" on="1"/>
        <pt x="93" y="194" on="0"/>
        <pt x="143" y="252" on="0"/>
        <pt x="199" y="252" on="0"/>
        <pt x="340" y="169" on="0"/>
        <pt x="349" y="165" on="1"/>
        <pt x="438" y="123" on="0"/>
        <pt x="679" y="123" on="0"/>
        <pt x="856" y="280" on="0"/>
        <pt x="856" y="501" on="0"/>
        <pt x="774" y="570" on="1"/>
        <pt x="733" y="604" on="0"/>
        <pt x="403" y="764" on="0"/>
        <pt x="271" y="920" on="0"/>
        <pt x="271" y="1118" on="0"/>
        <pt x="342" y="1269" on="0"/>
        <pt x="425" y="1335" on="1"/>
        <pt x="556" y="1440" on="0"/>
        <pt x="749" y="1440" on="1"/>
        <pt x="895" y="1440" on="0"/>
        <pt x="1102" y="1356" on="0"/>
        <pt x="1102" y="1289" on="1"/>
        <pt x="1102" y="1270" on="0"/>
        <pt x="1055" y="1216" on="0"/>
      </contour>
    </TTGlyph>
    <TTGlyph name="Scaron" xMin="180" yMin="126" xMax="1130" yMax="1871">
      <contour>
        <pt x="1122" y="1371" on="1"/>
        <pt x="1122" y="1343" on="0"/>
        <pt x="1071" y="1284" on="0"/>
        <pt x="1040" y="1284" on="0"/>
        <pt x="943" y="1347" on="0"/>
        <pt x="846" y="1387" on="0"/>
        <pt x="652" y="1387" on="0"/>
        <pt x="525" y="1257" on="0"/>
        <pt x="525" y="1085" on="0"/>
        <pt x="604" y="1017" on="1"/>
        <pt x="638" y="988" on="0"/>
        <pt x="918" y="840" on="0"/>
        <pt x="1054" y="686" on="0"/>
        <pt x="1054" y="580" on="1"/>
        <pt x="1054" y="371" on="0"/>
        <pt x="764" y="126" on="0"/>
        <pt x="548" y="126" on="1"/>
        <pt x="411" y="126" on="0"/>
        <pt x="180" y="239" on="0"/>
        <pt x="180" y="340" on="0"/>
        <pt x="236" y="406" on="0"/>
        <pt x="274" y="406" on="0"/>
        <pt x="371" y="338" on="0"/>
        <pt x="492" y="282" on="0"/>
        <pt x="697" y="282" on="0"/>
        <pt x="850" y="424" on="0"/>
        <pt x="850" y="621" on="0"/>
        <pt x="769" y="690" on="1"/>
        <pt x="738" y="717" on="0"/>
        <pt x="458" y="870" on="0"/>
        <pt x="408" y="930" on="1"/>
        <pt x="337" y="1015" on="0"/>
        <pt x="337" y="1142" on="1"/>
        <pt x="338" y="1209" on="0"/>
        <pt x="370" y="1278" on="1"/>
        <pt x="440" y="1427" on="0"/>
        <pt x="617" y="1490" on="1"/>
        <pt x="679" y="1512" on="0"/>
        <pt x="732" y="1517" on="1"/>
        <pt x="702" y="1538" on="0"/>
        <pt x="656" y="1584" on="1"/>
        <pt x="574" y="1666" on="0"/>
        <pt x="574" y="1693" on="1"/>
        <pt x="574" y="1709" on="1"/>
        <pt x="574" y="1747" on="0"/>
        <pt x="609" y="1763" on="1"/>
        <pt x="622" y="1769" on="0"/>
        <pt x="743" y="1769" on="0"/>
        <pt x="779" y="1733" on="0"/>
        <pt x="800" y="1670" on="0"/>
        <pt x="804" y="1670" on="0"/>
        <pt x="818" y="1694" on="1"/>
        <pt x="852" y="1753" on="0"/>
        <pt x="1011" y="1856" on="0"/>
        <pt x="1072" y="1856" on="1"/>
        <pt x="1117" y="1871" on="1"/>
        <pt x="1121" y="1871" on="1"/>
        <pt x="1130" y="1871" on="0"/>
        <pt x="1130" y="1868" on="1"/>
        <pt x="1130" y="1860" on="0"/>
        <pt x="997" y="1752" on="0"/>
        <pt x="944" y="1681" on="0"/>
        <pt x="887" y="1556" on="0"/>
        <pt x="884" y="1553" on="1"/>
        <pt x="862" y="1531" on="0"/>
        <pt x="839" y="1519" on="1"/>
        <pt x="938" y="1516" on="0"/>
        <pt x="1026" y="1477" on="1"/>
        <pt x="1122" y="1435" on="0"/>
      </contour>
    </TTGlyph>
    <TTGlyph name="T" xMin="201" yMin="-5" xMax="1213" yMax="1437">
      <contour>
        <pt x="898" y="1436" on="1"/>
        <pt x="1143" y="1436" on="0"/>
        <pt x="1190" y="1414" on="1"/>
        <pt x="1213" y="1403" on="0"/>
        <pt x="1213" y="1389" on="1"/>
        <pt x="1213" y="1368" on="1"/>
        <pt x="1213" y="1323" on="0"/>
        <pt x="1170" y="1284" on="0"/>
        <pt x="1114" y="1284" on="1"/>
        <pt x="943" y="1295" on="1"/>
        <pt x="822" y="1295" on="0"/>
        <pt x="792" y="1227" on="1"/>
        <pt x="777" y="1193" on="0"/>
        <pt x="610" y="341" on="0"/>
        <pt x="591" y="157" on="0"/>
        <pt x="579" y="104" on="1"/>
        <pt x="553" y="-5" on="0"/>
        <pt x="490" y="-5" on="1"/>
        <pt x="465" y="-5" on="1"/>
        <pt x="396" y="-5" on="0"/>
        <pt x="396" y="94" on="0"/>
        <pt x="457" y="343" on="0"/>
        <pt x="581" y="987" on="0"/>
        <pt x="581" y="1176" on="1"/>
        <pt x="581" y="1253" on="0"/>
        <pt x="553" y="1279" on="0"/>
        <pt x="422" y="1279" on="0"/>
        <pt x="302" y="1259" on="0"/>
        <pt x="201" y="1259" on="0"/>
        <pt x="201" y="1382" on="0"/>
        <pt x="366" y="1433" on="0"/>
        <pt x="575" y="1433" on="1"/>
        <pt x="644" y="1434" on="1"/>
        <pt x="744" y="1437" on="1"/>
        <pt x="847" y="1437" on="1"/>
        <pt x="872" y="1436" on="1"/>
      </contour>
    </TTGlyph>
    <TTGlyph name="Thorn" xMin="180" yMin="15" xMax="1132" yMax="1414">
      <contour>
        <pt x="1007" y="834" on="1"/>
        <pt x="1007" y="868" on="1"/>
        <pt x="1007" y="980" on="0"/>
        <pt x="839" y="1114" on="0"/>
        <pt x="695" y="1114" on="1"/>
        <pt x="675" y="1116" on="1"/>
        <pt x="664" y="1115" on="1"/>
        <pt x="653" y="1115" on="1"/>
        <pt x="529" y="1115" on="0"/>
        <pt x="480" y="1010" on="0"/>
        <pt x="451" y="808" on="0"/>
        <pt x="447" y="786" on="1"/>
        <pt x="439" y="744" on="1"/>
        <pt x="435" y="719" on="0"/>
        <pt x="428" y="680" on="0"/>
        <pt x="424" y="655" on="0"/>
        <pt x="413" y="595" on="0"/>
        <pt x="410" y="569" on="0"/>
        <pt x="406" y="551" on="1"/>
        <pt x="402" y="530" on="1"/>
        <pt x="395" y="491" on="0"/>
        <pt x="395" y="487" on="1"/>
        <pt x="395" y="477" on="1"/>
        <pt x="395" y="451" on="0"/>
        <pt x="476" y="451" on="1"/>
        <pt x="531" y="451" on="1"/>
        <pt x="593" y="451" on="0"/>
        <pt x="814" y="514" on="0"/>
        <pt x="937" y="614" on="0"/>
        <pt x="1007" y="762" on="0"/>
      </contour>
      <contour>
        <pt x="436" y="1414" on="1"/>
        <pt x="455" y="1414" on="1"/>
        <pt x="490" y="1414" on="0"/>
        <pt x="524" y="1344" on="1"/>
        <pt x="570" y="1248" on="0"/>
        <pt x="642" y="1238" on="1"/>
        <pt x="651" y="1237" on="0"/>
        <pt x="707" y="1223" on="1"/>
        <pt x="795" y="1195" on="1"/>
        <pt x="973" y="1140" on="0"/>
        <pt x="1026" y="1095" on="1"/>
        <pt x="1132" y="1005" on="0"/>
        <pt x="1132" y="844" on="1"/>
        <pt x="1132" y="650" on="0"/>
        <pt x="991" y="517" on="1"/>
        <pt x="906" y="437" on="0"/>
        <pt x="765" y="397" on="1"/>
        <pt x="725" y="386" on="0"/>
        <pt x="481" y="352" on="0"/>
        <pt x="453" y="339" on="1"/>
        <pt x="392" y="311" on="0"/>
        <pt x="366" y="251" on="1"/>
        <pt x="352" y="219" on="0"/>
        <pt x="325" y="65" on="0"/>
        <pt x="292" y="15" on="0"/>
        <pt x="254" y="15" on="1"/>
        <pt x="180" y="15" on="0"/>
        <pt x="180" y="56" on="1"/>
        <pt x="180" y="79" on="0"/>
        <pt x="260" y="425" on="0"/>
        <pt x="285" y="620" on="1"/>
        <pt x="344" y="1104" on="0"/>
        <pt x="344" y="1140" on="1"/>
        <pt x="344" y="1296" on="0"/>
        <pt x="367" y="1372" on="1"/>
        <pt x="380" y="1414" on="0"/>
      </contour>
    </TTGlyph>
    <TTGlyph name="U" xMin="195" yMin="3" xMax="1343" yMax="1401">
      <contour>
        <pt x="362" y="418" on="1"/>
        <pt x="362" y="277" on="0"/>
        <pt x="504" y="121" on="0"/>
        <pt x="628" y="121" on="1"/>
        <pt x="870" y="121" on="0"/>
        <pt x="987" y="351" on="1"/>
        <pt x="1034" y="443" on="0"/>
        <pt x="1112" y="837" on="1"/>
        <pt x="1119" y="872" on="1"/>
        <pt x="1131" y="931" on="0"/>
        <pt x="1144" y="1004" on="0"/>
        <pt x="1160" y="1082" on="1"/>
        <pt x="1175" y="1150" on="1"/>
        <pt x="1186" y="1204" on="0"/>
        <pt x="1205" y="1330" on="0"/>
        <pt x="1206" y="1333" on="1"/>
        <pt x="1223" y="1395" on="0"/>
        <pt x="1301" y="1395" on="1"/>
        <pt x="1343" y="1395" on="0"/>
        <pt x="1343" y="1351" on="1"/>
        <pt x="1343" y="1324" on="0"/>
        <pt x="1289" y="1057" on="0"/>
        <pt x="1265" y="930" on="0"/>
        <pt x="1203" y="420" on="0"/>
        <pt x="1151" y="311" on="1"/>
        <pt x="1080" y="162" on="0"/>
        <pt x="833" y="3" on="0"/>
        <pt x="677" y="3" on="1"/>
        <pt x="643" y="3" on="1"/>
        <pt x="311" y="3" on="0"/>
        <pt x="225" y="242" on="1"/>
        <pt x="195" y="325" on="0"/>
        <pt x="195" y="407" on="1"/>
        <pt x="195" y="443" on="1"/>
        <pt x="195" y="547" on="0"/>
        <pt x="296" y="1094" on="0"/>
        <pt x="327" y="1365" on="0"/>
        <pt x="328" y="1370" on="1"/>
        <pt x="337" y="1401" on="0"/>
        <pt x="363" y="1401" on="1"/>
        <pt x="414" y="1401" on="0"/>
        <pt x="464" y="1375" on="0"/>
        <pt x="464" y="1332" on="1"/>
        <pt x="462" y="1279" on="1"/>
        <pt x="461" y="1252" on="0"/>
        <pt x="461" y="1224" on="1"/>
        <pt x="461" y="1078" on="0"/>
        <pt x="362" y="475" on="0"/>
      </contour>
    </TTGlyph>
    <TTGlyph name="Uacute" xMin="222" yMin="33" xMax="1374" yMax="1892">
      <contour>
        <pt x="812" y="1591" on="1"/>
        <pt x="791" y="1591" on="0"/>
        <pt x="791" y="1602" on="1"/>
        <pt x="791" y="1606" on="1"/>
        <pt x="791" y="1612" on="0"/>
        <pt x="926" y="1792" on="0"/>
        <pt x="1035" y="1888" on="0"/>
        <pt x="1087" y="1888" on="1"/>
        <pt x="1097" y="1890" on="1"/>
        <pt x="1132" y="1892" on="1"/>
        <pt x="1172" y="1892" on="0"/>
        <pt x="1172" y="1879" on="1"/>
        <pt x="1172" y="1875" on="1"/>
        <pt x="1172" y="1847" on="0"/>
        <pt x="882" y="1594" on="0"/>
        <pt x="847" y="1594" on="1"/>
        <pt x="821" y="1591" on="1"/>
      </contour>
      <contour>
        <pt x="376" y="472" on="1"/>
        <pt x="376" y="305" on="0"/>
        <pt x="531" y="136" on="0"/>
        <pt x="771" y="136" on="0"/>
        <pt x="954" y="240" on="0"/>
        <pt x="1086" y="472" on="0"/>
        <pt x="1160" y="882" on="1"/>
        <pt x="1175" y="965" on="0"/>
        <pt x="1224" y="1196" on="0"/>
        <pt x="1232" y="1256" on="1"/>
        <pt x="1247" y="1368" on="1"/>
        <pt x="1267" y="1413" on="0"/>
        <pt x="1350" y="1413" on="1"/>
        <pt x="1374" y="1413" on="0"/>
        <pt x="1374" y="1382" on="1"/>
        <pt x="1374" y="1370" on="0"/>
        <pt x="1298" y="1014" on="0"/>
        <pt x="1250" y="560" on="0"/>
        <pt x="1220" y="409" on="0"/>
        <pt x="1169" y="314" on="1"/>
        <pt x="1095" y="176" on="0"/>
        <pt x="848" y="33" on="0"/>
        <pt x="710" y="33" on="1"/>
        <pt x="676" y="33" on="1"/>
        <pt x="352" y="33" on="0"/>
        <pt x="256" y="274" on="1"/>
        <pt x="222" y="360" on="0"/>
        <pt x="222" y="589" on="0"/>
        <pt x="316" y="1104" on="0"/>
        <pt x="322" y="1174" on="0"/>
        <pt x="325" y="1251" on="0"/>
        <pt x="332" y="1311" on="0"/>
        <pt x="335" y="1394" on="0"/>
        <pt x="336" y="1398" on="1"/>
        <pt x="343" y="1424" on="0"/>
        <pt x="367" y="1424" on="1"/>
        <pt x="429" y="1424" on="0"/>
        <pt x="461" y="1373" on="0"/>
        <pt x="461" y="1277" on="1"/>
        <pt x="462" y="1249" on="1"/>
        <pt x="463" y="1220" on="0"/>
        <pt x="463" y="1088" on="0"/>
        <pt x="376" y="497" on="0"/>
      </contour>
    </TTGlyph>
    <TTGlyph name="Ucircumflex" xMin="222" yMin="27" xMax="1374" yMax="1881">
      <contour>
        <pt x="687" y="1587" on="1"/>
        <pt x="666" y="1587" on="1"/>
        <pt x="643" y="1587" on="0"/>
        <pt x="643" y="1607" on="0"/>
        <pt x="917" y="1881" on="0"/>
        <pt x="1017" y="1881" on="0"/>
        <pt x="1045" y="1841" on="1"/>
        <pt x="1187" y="1636" on="0"/>
        <pt x="1187" y="1615" on="1"/>
        <pt x="1187" y="1603" on="1"/>
        <pt x="1187" y="1588" on="0"/>
        <pt x="1104" y="1588" on="0"/>
        <pt x="950" y="1773" on="0"/>
        <pt x="947" y="1773" on="1"/>
        <pt x="938" y="1773" on="0"/>
        <pt x="735" y="1587" on="0"/>
      </contour>
      <contour>
        <pt x="1350" y="1407" on="1"/>
        <pt x="1374" y="1407" on="0"/>
        <pt x="1374" y="1377" on="1"/>
        <pt x="1374" y="1362" on="0"/>
        <pt x="1299" y="1015" on="0"/>
        <pt x="1251" y="558" on="0"/>
        <pt x="1220" y="405" on="0"/>
        <pt x="1169" y="309" on="1"/>
        <pt x="1095" y="171" on="0"/>
        <pt x="846" y="27" on="0"/>
        <pt x="704" y="27" on="1"/>
        <pt x="699" y="27" on="0"/>
        <pt x="695" y="27" on="1"/>
        <pt x="559" y="27" on="0"/>
        <pt x="480" y="56" on="1"/>
        <pt x="222" y="148" on="0"/>
        <pt x="222" y="472" on="1"/>
        <pt x="222" y="589" on="0"/>
        <pt x="315" y="1094" on="0"/>
        <pt x="322" y="1168" on="0"/>
        <pt x="325" y="1246" on="0"/>
        <pt x="332" y="1306" on="0"/>
        <pt x="335" y="1389" on="0"/>
        <pt x="336" y="1393" on="1"/>
        <pt x="343" y="1419" on="0"/>
        <pt x="367" y="1419" on="1"/>
        <pt x="429" y="1419" on="0"/>
        <pt x="461" y="1369" on="0"/>
        <pt x="461" y="1272" on="1"/>
        <pt x="462" y="1244" on="1"/>
        <pt x="463" y="1215" on="0"/>
        <pt x="463" y="1083" on="0"/>
        <pt x="376" y="492" on="0"/>
        <pt x="376" y="467" on="1"/>
        <pt x="376" y="317" on="0"/>
        <pt x="433" y="239" on="1"/>
        <pt x="514" y="130" on="0"/>
        <pt x="676" y="130" on="1"/>
        <pt x="768" y="130" on="0"/>
        <pt x="954" y="236" on="0"/>
        <pt x="1086" y="465" on="0"/>
        <pt x="1160" y="877" on="1"/>
        <pt x="1174" y="953" on="0"/>
        <pt x="1224" y="1190" on="0"/>
        <pt x="1232" y="1250" on="1"/>
        <pt x="1238" y="1309" on="1"/>
        <pt x="1243" y="1354" on="0"/>
        <pt x="1247" y="1363" on="1"/>
        <pt x="1267" y="1407" on="0"/>
      </contour>
    </TTGlyph>
    <TTGlyph name="Udieresis" xMin="229" yMin="27" xMax="1381" yMax="1803">
      <contour>
        <pt x="672" y="1700" on="1"/>
        <pt x="677" y="1735" on="1"/>
        <pt x="677" y="1747" on="0"/>
        <pt x="728" y="1798" on="0"/>
        <pt x="751" y="1798" on="1"/>
        <pt x="757" y="1800" on="0"/>
        <pt x="760" y="1800" on="1"/>
        <pt x="772" y="1802" on="1"/>
        <pt x="794" y="1802" on="1"/>
        <pt x="854" y="1802" on="0"/>
        <pt x="854" y="1744" on="1"/>
        <pt x="854" y="1724" on="1"/>
        <pt x="854" y="1692" on="0"/>
        <pt x="801" y="1626" on="0"/>
        <pt x="777" y="1626" on="1"/>
        <pt x="765" y="1622" on="0"/>
        <pt x="762" y="1622" on="1"/>
        <pt x="744" y="1620" on="1"/>
        <pt x="731" y="1620" on="1"/>
        <pt x="705" y="1625" on="1"/>
        <pt x="671" y="1625" on="0"/>
        <pt x="671" y="1672" on="1"/>
        <pt x="671" y="1697" on="1"/>
      </contour>
      <contour>
        <pt x="1083" y="1621" on="1"/>
        <pt x="1028" y="1621" on="0"/>
        <pt x="1028" y="1671" on="1"/>
        <pt x="1028" y="1697" on="1"/>
        <pt x="1033" y="1712" on="0"/>
        <pt x="1033" y="1739" on="0"/>
        <pt x="1079" y="1797" on="0"/>
        <pt x="1102" y="1797" on="1"/>
        <pt x="1111" y="1800" on="0"/>
        <pt x="1113" y="1800" on="1"/>
        <pt x="1132" y="1803" on="1"/>
        <pt x="1150" y="1803" on="1"/>
        <pt x="1170" y="1799" on="1"/>
        <pt x="1208" y="1799" on="0"/>
        <pt x="1208" y="1760" on="1"/>
        <pt x="1211" y="1746" on="1"/>
        <pt x="1211" y="1723" on="1"/>
        <pt x="1207" y="1703" on="1"/>
        <pt x="1207" y="1687" on="0"/>
        <pt x="1159" y="1627" on="0"/>
        <pt x="1135" y="1627" on="1"/>
        <pt x="1126" y="1624" on="0"/>
        <pt x="1123" y="1624" on="1"/>
        <pt x="1105" y="1621" on="1"/>
      </contour>
      <contour>
        <pt x="383" y="466" on="1"/>
        <pt x="383" y="299" on="0"/>
        <pt x="538" y="130" on="0"/>
        <pt x="778" y="130" on="0"/>
        <pt x="961" y="234" on="0"/>
        <pt x="1093" y="466" on="0"/>
        <pt x="1167" y="876" on="1"/>
        <pt x="1182" y="959" on="0"/>
        <pt x="1233" y="1200" on="0"/>
        <pt x="1252" y="1357" on="0"/>
        <pt x="1254" y="1363" on="1"/>
        <pt x="1274" y="1407" on="0"/>
        <pt x="1357" y="1407" on="1"/>
        <pt x="1381" y="1407" on="0"/>
        <pt x="1381" y="1341" on="0"/>
        <pt x="1347" y="1205" on="0"/>
        <pt x="1306" y="1002" on="0"/>
        <pt x="1248" y="452" on="0"/>
        <pt x="1121" y="194" on="0"/>
        <pt x="875" y="27" on="0"/>
        <pt x="717" y="27" on="1"/>
        <pt x="683" y="27" on="1"/>
        <pt x="359" y="27" on="0"/>
        <pt x="263" y="268" on="1"/>
        <pt x="229" y="354" on="0"/>
        <pt x="229" y="515" on="0"/>
        <pt x="331" y="1199" on="0"/>
        <pt x="331" y="1211" on="1"/>
        <pt x="331" y="1418" on="0"/>
        <pt x="375" y="1418" on="1"/>
        <pt x="436" y="1418" on="0"/>
        <pt x="470" y="1364" on="0"/>
        <pt x="470" y="1062" on="0"/>
        <pt x="383" y="524" on="0"/>
      </contour>
    </TTGlyph>
    <TTGlyph name="Ugrave" xMin="222" yMin="34" xMax="1374" yMax="1902">
      <contour>
        <pt x="1013" y="1614" on="1"/>
        <pt x="1013" y="1611" on="1"/>
        <pt x="1013" y="1594" on="0"/>
        <pt x="983" y="1594" on="1"/>
        <pt x="979" y="1594" on="1"/>
        <pt x="974" y="1595" on="1"/>
        <pt x="929" y="1595" on="0"/>
        <pt x="876" y="1648" on="1"/>
        <pt x="697" y="1827" on="0"/>
        <pt x="697" y="1881" on="1"/>
        <pt x="697" y="1902" on="0"/>
        <pt x="735" y="1902" on="1"/>
        <pt x="754" y="1902" on="1"/>
        <pt x="786" y="1897" on="1"/>
        <pt x="834" y="1897" on="0"/>
        <pt x="871" y="1854" on="1"/>
        <pt x="1013" y="1688" on="0"/>
      </contour>
      <contour>
        <pt x="376" y="473" on="1"/>
        <pt x="376" y="304" on="0"/>
        <pt x="532" y="137" on="0"/>
        <pt x="652" y="137" on="1"/>
        <pt x="895" y="137" on="0"/>
        <pt x="1021" y="359" on="1"/>
        <pt x="1086" y="473" on="0"/>
        <pt x="1160" y="883" on="1"/>
        <pt x="1175" y="966" on="0"/>
        <pt x="1224" y="1197" on="0"/>
        <pt x="1232" y="1257" on="1"/>
        <pt x="1238" y="1315" on="1"/>
        <pt x="1243" y="1361" on="0"/>
        <pt x="1247" y="1370" on="1"/>
        <pt x="1267" y="1414" on="0"/>
        <pt x="1350" y="1414" on="1"/>
        <pt x="1374" y="1414" on="0"/>
        <pt x="1374" y="1348" on="0"/>
        <pt x="1352" y="1260" on="1"/>
        <pt x="1296" y="1038" on="0"/>
        <pt x="1245" y="470" on="0"/>
        <pt x="1112" y="200" on="0"/>
        <pt x="868" y="34" on="0"/>
        <pt x="710" y="34" on="1"/>
        <pt x="676" y="34" on="1"/>
        <pt x="354" y="34" on="0"/>
        <pt x="256" y="275" on="1"/>
        <pt x="222" y="360" on="0"/>
        <pt x="222" y="590" on="0"/>
        <pt x="316" y="1105" on="0"/>
        <pt x="322" y="1175" on="0"/>
        <pt x="325" y="1252" on="0"/>
        <pt x="332" y="1312" on="0"/>
        <pt x="335" y="1395" on="0"/>
        <pt x="336" y="1399" on="1"/>
        <pt x="343" y="1426" on="0"/>
        <pt x="367" y="1426" on="1"/>
        <pt x="429" y="1426" on="0"/>
        <pt x="461" y="1375" on="0"/>
        <pt x="461" y="1278" on="1"/>
        <pt x="462" y="1250" on="1"/>
        <pt x="463" y="1221" on="0"/>
        <pt x="463" y="1089" on="0"/>
        <pt x="376" y="498" on="0"/>
      </contour>
    </TTGlyph>
    <TTGlyph name="V" xMin="201" yMin="4" xMax="1335" yMax="1418">
      <contour>
        <pt x="569" y="218" on="1"/>
        <pt x="585" y="218" on="0"/>
        <pt x="921" y="866" on="0"/>
        <pt x="1007" y="1038" on="1"/>
        <pt x="1130" y="1289" on="1"/>
        <pt x="1151" y="1333" on="0"/>
        <pt x="1155" y="1340" on="1"/>
        <pt x="1202" y="1418" on="0"/>
        <pt x="1295" y="1418" on="1"/>
        <pt x="1321" y="1418" on="1"/>
        <pt x="1335" y="1418" on="0"/>
        <pt x="1335" y="1388" on="1"/>
        <pt x="1335" y="1381" on="0"/>
        <pt x="1299" y="1308" on="1"/>
        <pt x="1022" y="743" on="0"/>
        <pt x="681" y="144" on="1"/>
        <pt x="628" y="51" on="0"/>
        <pt x="566" y="4" on="0"/>
        <pt x="523" y="4" on="1"/>
        <pt x="496" y="4" on="1"/>
        <pt x="440" y="4" on="0"/>
        <pt x="392" y="222" on="0"/>
        <pt x="335" y="657" on="0"/>
        <pt x="294" y="869" on="0"/>
        <pt x="232" y="1229" on="0"/>
        <pt x="201" y="1336" on="0"/>
        <pt x="201" y="1351" on="1"/>
        <pt x="201" y="1373" on="1"/>
        <pt x="201" y="1395" on="0"/>
        <pt x="303" y="1395" on="0"/>
        <pt x="364" y="1332" on="0"/>
        <pt x="385" y="1254" on="1"/>
        <pt x="445" y="1033" on="0"/>
        <pt x="563" y="218" on="0"/>
      </contour>
    </TTGlyph>
    <TTGlyph name="W" xMin="242" yMin="80" xMax="1853" yMax="1368">
      <contour>
        <pt x="1024" y="1300" on="1"/>
        <pt x="1094" y="1300" on="0"/>
        <pt x="1118" y="1228" on="1"/>
        <pt x="1129" y="1196" on="0"/>
        <pt x="1257" y="294" on="0"/>
        <pt x="1281" y="294" on="1"/>
        <pt x="1338" y="294" on="0"/>
        <pt x="1602" y="991" on="1"/>
        <pt x="1708" y="1270" on="0"/>
        <pt x="1720" y="1290" on="1"/>
        <pt x="1768" y="1368" on="0"/>
        <pt x="1847" y="1368" on="1"/>
        <pt x="1853" y="1349" on="1"/>
        <pt x="1853" y="1334" on="0"/>
        <pt x="1782" y="1130" on="1"/>
        <pt x="1554" y="475" on="0"/>
        <pt x="1432" y="215" on="1"/>
        <pt x="1400" y="148" on="0"/>
        <pt x="1289" y="80" on="0"/>
        <pt x="1264" y="80" on="1"/>
        <pt x="1204" y="80" on="0"/>
        <pt x="1160" y="211" on="1"/>
        <pt x="1100" y="391" on="0"/>
        <pt x="1019" y="837" on="0"/>
        <pt x="1012" y="872" on="1"/>
        <pt x="1002" y="920" on="1"/>
        <pt x="990" y="953" on="1"/>
        <pt x="979" y="953" on="0"/>
        <pt x="741" y="509" on="0"/>
        <pt x="717" y="468" on="1"/>
        <pt x="501" y="95" on="0"/>
        <pt x="429" y="95" on="0"/>
        <pt x="355" y="166" on="0"/>
        <pt x="347" y="219" on="1"/>
        <pt x="325" y="370" on="0"/>
        <pt x="267" y="1114" on="0"/>
        <pt x="242" y="1272" on="0"/>
        <pt x="242" y="1300" on="1"/>
        <pt x="242" y="1335" on="1"/>
        <pt x="242" y="1363" on="0"/>
        <pt x="324" y="1363" on="0"/>
        <pt x="350" y="1336" on="1"/>
        <pt x="407" y="1277" on="0"/>
        <pt x="479" y="287" on="0"/>
        <pt x="513" y="287" on="1"/>
        <pt x="553" y="287" on="0"/>
        <pt x="779" y="805" on="1"/>
        <pt x="806" y="866" on="0"/>
        <pt x="859" y="1012" on="1"/>
        <pt x="914" y="1166" on="1"/>
        <pt x="930" y="1215" on="1"/>
        <pt x="950" y="1262" on="1"/>
        <pt x="976" y="1300" on="0"/>
      </contour>
    </TTGlyph>
    <TTGlyph name="X" xMin="35" yMin="1" xMax="1276" yMax="1401">
      <contour>
        <pt x="795" y="759" on="0"/>
        <pt x="795" y="665" on="0"/>
        <pt x="980" y="249" on="0"/>
        <pt x="1084" y="44" on="0"/>
        <pt x="1084" y="33" on="1"/>
        <pt x="1084" y="1" on="0"/>
        <pt x="931" y="1" on="0"/>
        <pt x="896" y="53" on="1"/>
        <pt x="862" y="105" on="0"/>
        <pt x="669" y="575" on="0"/>
        <pt x="643" y="575" on="1"/>
        <pt x="629" y="575" on="0"/>
        <pt x="267" y="103" on="0"/>
        <pt x="176" y="10" on="0"/>
        <pt x="35" y="10" on="0"/>
        <pt x="35" y="56" on="0"/>
        <pt x="187" y="224" on="0"/>
        <pt x="558" y="710" on="0"/>
        <pt x="558" y="773" on="0"/>
        <pt x="395" y="1136" on="0"/>
        <pt x="279" y="1359" on="0"/>
        <pt x="279" y="1377" on="1"/>
        <pt x="279" y="1401" on="0"/>
        <pt x="434" y="1401" on="0"/>
        <pt x="472" y="1338" on="1"/>
        <pt x="485" y="1317" on="0"/>
        <pt x="681" y="880" on="0"/>
        <pt x="711" y="880" on="0"/>
        <pt x="948" y="1156" on="0"/>
        <pt x="1063" y="1304" on="0"/>
        <pt x="1090" y="1333" on="1"/>
        <pt x="1147" y="1394" on="0"/>
        <pt x="1255" y="1394" on="1"/>
        <pt x="1276" y="1394" on="0"/>
        <pt x="1276" y="1372" on="1"/>
        <pt x="1276" y="1365" on="0"/>
        <pt x="1151" y="1216" on="0"/>
        <pt x="1048" y="1084" on="1"/>
      </contour>
    </TTGlyph>
    <TTGlyph name="Y" xMin="207" yMin="19" xMax="1213" yMax="1392">
      <contour>
        <pt x="604" y="766" on="1"/>
        <pt x="640" y="766" on="0"/>
        <pt x="816" y="1001" on="1"/>
        <pt x="907" y="1123" on="0"/>
        <pt x="1032" y="1311" on="0"/>
        <pt x="1033" y="1313" on="1"/>
        <pt x="1105" y="1392" on="0"/>
        <pt x="1171" y="1392" on="1"/>
        <pt x="1188" y="1392" on="1"/>
        <pt x="1213" y="1392" on="0"/>
        <pt x="1213" y="1371" on="1"/>
        <pt x="1213" y="1368" on="0"/>
        <pt x="736" y="644" on="0"/>
        <pt x="664" y="497" on="0"/>
        <pt x="585" y="115" on="0"/>
        <pt x="567" y="58" on="1"/>
        <pt x="555" y="19" on="0"/>
        <pt x="516" y="19" on="1"/>
        <pt x="426" y="19" on="0"/>
        <pt x="426" y="66" on="1"/>
        <pt x="426" y="121" on="0"/>
        <pt x="483" y="463" on="0"/>
        <pt x="483" y="652" on="0"/>
        <pt x="356" y="984" on="0"/>
        <pt x="207" y="1296" on="0"/>
        <pt x="207" y="1332" on="1"/>
        <pt x="207" y="1376" on="0"/>
        <pt x="277" y="1376" on="1"/>
        <pt x="305" y="1376" on="0"/>
        <pt x="389" y="1317" on="0"/>
        <pt x="425" y="1241" on="0"/>
        <pt x="468" y="1109" on="0"/>
        <pt x="592" y="766" on="0"/>
      </contour>
    </TTGlyph>
    <TTGlyph name="Yacute" xMin="231" yMin="38" xMax="1187" yMax="1874">
      <contour>
        <pt x="965" y="1874" on="1"/>
        <pt x="1005" y="1874" on="1"/>
        <pt x="1029" y="1874" on="0"/>
        <pt x="1029" y="1864" on="1"/>
        <pt x="1029" y="1861" on="1"/>
        <pt x="1029" y="1822" on="0"/>
        <pt x="773" y="1598" on="1"/>
        <pt x="741" y="1570" on="0"/>
        <pt x="693" y="1570" on="1"/>
        <pt x="673" y="1570" on="1"/>
        <pt x="654" y="1570" on="0"/>
        <pt x="654" y="1578" on="1"/>
        <pt x="654" y="1582" on="1"/>
        <pt x="654" y="1592" on="0"/>
        <pt x="803" y="1791" on="0"/>
        <pt x="898" y="1874" on="0"/>
      </contour>
      <contour>
        <pt x="231" y="1369" on="1"/>
        <pt x="231" y="1398" on="0"/>
        <pt x="369" y="1398" on="0"/>
        <pt x="420" y="1301" on="1"/>
        <pt x="437" y="1268" on="0"/>
        <pt x="602" y="796" on="0"/>
        <pt x="613" y="796" on="1"/>
        <pt x="649" y="796" on="0"/>
        <pt x="824" y="1032" on="1"/>
        <pt x="889" y="1120" on="0"/>
        <pt x="1015" y="1322" on="0"/>
        <pt x="1037" y="1346" on="1"/>
        <pt x="1109" y="1425" on="0"/>
        <pt x="1158" y="1425" on="1"/>
        <pt x="1187" y="1425" on="0"/>
        <pt x="1187" y="1401" on="0"/>
        <pt x="736" y="676" on="0"/>
        <pt x="678" y="557" on="0"/>
        <pt x="620" y="292" on="0"/>
        <pt x="611" y="230" on="0"/>
        <pt x="606" y="206" on="1"/>
        <pt x="578" y="76" on="1"/>
        <pt x="568" y="38" on="0"/>
        <pt x="530" y="38" on="1"/>
        <pt x="509" y="38" on="1"/>
        <pt x="453" y="38" on="0"/>
        <pt x="453" y="94" on="1"/>
        <pt x="491" y="549" on="1"/>
        <pt x="491" y="664" on="0"/>
        <pt x="384" y="1012" on="0"/>
        <pt x="337" y="1103" on="1"/>
        <pt x="231" y="1305" on="0"/>
      </contour>
    </TTGlyph>
    <TTGlyph name="Ydieresis" xMin="252" yMin="44" xMax="1198" yMax="1791">
      <contour>
        <pt x="562" y="1612" on="1"/>
        <pt x="519" y="1612" on="0"/>
        <pt x="519" y="1632" on="1"/>
        <pt x="518" y="1635" on="1"/>
        <pt x="517" y="1637" on="1"/>
        <pt x="514" y="1659" on="1"/>
        <pt x="514" y="1667" on="1"/>
        <pt x="515" y="1670" on="1"/>
        <pt x="515" y="1673" on="0"/>
        <pt x="515" y="1676" on="1"/>
        <pt x="520" y="1702" on="1"/>
        <pt x="520" y="1735" on="0"/>
        <pt x="570" y="1785" on="0"/>
        <pt x="593" y="1785" on="1"/>
        <pt x="605" y="1789" on="0"/>
        <pt x="608" y="1789" on="1"/>
        <pt x="626" y="1791" on="1"/>
        <pt x="651" y="1791" on="1"/>
        <pt x="696" y="1791" on="0"/>
        <pt x="696" y="1744" on="1"/>
        <pt x="696" y="1736" on="1"/>
        <pt x="695" y="1733" on="1"/>
        <pt x="695" y="1729" on="0"/>
        <pt x="695" y="1724" on="1"/>
        <pt x="690" y="1701" on="1"/>
        <pt x="690" y="1675" on="0"/>
        <pt x="646" y="1620" on="0"/>
        <pt x="623" y="1620" on="1"/>
        <pt x="608" y="1615" on="0"/>
        <pt x="605" y="1615" on="1"/>
        <pt x="580" y="1612" on="1"/>
      </contour>
      <contour>
        <pt x="912" y="1617" on="1"/>
        <pt x="894" y="1617" on="0"/>
        <pt x="894" y="1633" on="1"/>
        <pt x="892" y="1639" on="0"/>
        <pt x="892" y="1641" on="1"/>
        <pt x="890" y="1651" on="1"/>
        <pt x="890" y="1674" on="1"/>
        <pt x="895" y="1689" on="0"/>
        <pt x="895" y="1726" on="0"/>
        <pt x="942" y="1785" on="0"/>
        <pt x="970" y="1785" on="1"/>
        <pt x="976" y="1787" on="0"/>
        <pt x="979" y="1787" on="1"/>
        <pt x="1010" y="1791" on="1"/>
        <pt x="1019" y="1791" on="1"/>
        <pt x="1053" y="1785" on="1"/>
        <pt x="1072" y="1785" on="0"/>
        <pt x="1072" y="1751" on="1"/>
        <pt x="1072" y="1729" on="1"/>
        <pt x="1071" y="1726" on="1"/>
        <pt x="1071" y="1723" on="1"/>
        <pt x="1068" y="1706" on="1"/>
        <pt x="1068" y="1679" on="0"/>
        <pt x="1020" y="1619" on="0"/>
        <pt x="995" y="1619" on="1"/>
        <pt x="968" y="1613" on="1"/>
        <pt x="962" y="1613" on="1"/>
        <pt x="952" y="1612" on="1"/>
        <pt x="943" y="1612" on="1"/>
        <pt x="940" y="1613" on="1"/>
        <pt x="917" y="1616" on="1"/>
        <pt x="914" y="1617" on="0"/>
      </contour>
      <contour>
        <pt x="625" y="802" on="1"/>
        <pt x="662" y="802" on="0"/>
        <pt x="874" y="1071" on="0"/>
        <pt x="1006" y="1304" on="0"/>
        <pt x="1036" y="1338" on="1"/>
        <pt x="1105" y="1418" on="0"/>
        <pt x="1166" y="1418" on="1"/>
        <pt x="1181" y="1418" on="1"/>
        <pt x="1198" y="1418" on="0"/>
        <pt x="1198" y="1405" on="1"/>
        <pt x="1198" y="1393" on="1"/>
        <pt x="1198" y="1386" on="0"/>
        <pt x="759" y="680" on="0"/>
        <pt x="691" y="532" on="0"/>
        <pt x="587" y="44" on="0"/>
        <pt x="551" y="44" on="1"/>
        <pt x="452" y="44" on="0"/>
        <pt x="452" y="92" on="1"/>
        <pt x="452" y="146" on="0"/>
        <pt x="507" y="476" on="0"/>
        <pt x="507" y="583" on="1"/>
        <pt x="507" y="630" on="0"/>
        <pt x="390" y="981" on="1"/>
        <pt x="373" y="1031" on="0"/>
        <pt x="252" y="1306" on="0"/>
        <pt x="252" y="1345" on="1"/>
        <pt x="252" y="1402" on="0"/>
        <pt x="409" y="1402" on="0"/>
        <pt x="453" y="1316" on="1"/>
        <pt x="457" y="1308" on="0"/>
        <pt x="611" y="802" on="0"/>
      </contour>
    </TTGlyph>
    <TTGlyph name="Z" xMin="77" yMin="-8" xMax="1243" yMax="1423">
      <contour>
        <pt x="311" y="1304" on="0"/>
        <pt x="311" y="1391" on="0"/>
        <pt x="389" y="1423" on="0"/>
        <pt x="576" y="1423" on="1"/>
        <pt x="613" y="1422" on="1"/>
        <pt x="863" y="1421" on="1"/>
        <pt x="1243" y="1421" on="0"/>
        <pt x="1243" y="1383" on="1"/>
        <pt x="1243" y="1325" on="0"/>
        <pt x="323" y="201" on="0"/>
        <pt x="323" y="152" on="1"/>
        <pt x="323" y="119" on="0"/>
        <pt x="588" y="119" on="1"/>
        <pt x="726" y="119" on="0"/>
        <pt x="960" y="144" on="0"/>
        <pt x="963" y="144" on="1"/>
        <pt x="1027" y="144" on="0"/>
        <pt x="1061" y="110" on="0"/>
        <pt x="1061" y="29" on="0"/>
        <pt x="1026" y="14" on="1"/>
        <pt x="974" y="-8" on="0"/>
        <pt x="792" y="-8" on="1"/>
        <pt x="720" y="-8" on="1"/>
        <pt x="684" y="-7" on="1"/>
        <pt x="648" y="-7" on="1"/>
        <pt x="435" y="-3" on="1"/>
        <pt x="257" y="-1" on="1"/>
        <pt x="123" y="-1" on="0"/>
        <pt x="77" y="28" on="0"/>
        <pt x="77" y="57" on="1"/>
        <pt x="77" y="120" on="0"/>
        <pt x="1000" y="1248" on="0"/>
        <pt x="1000" y="1281" on="1"/>
        <pt x="1000" y="1295" on="0"/>
        <pt x="663" y="1295" on="0"/>
        <pt x="609" y="1291" on="1"/>
        <pt x="410" y="1274" on="1"/>
        <pt x="343" y="1274" on="0"/>
      </contour>
    </TTGlyph>
    <TTGlyph name="Zcaron" xMin="85" yMin="8" xMax="1245" yMax="1901">
      <contour>
        <pt x="795" y="1596" on="1"/>
        <pt x="766" y="1596" on="0"/>
        <pt x="714" y="1671" on="1"/>
        <pt x="597" y="1840" on="0"/>
        <pt x="597" y="1869" on="1"/>
        <pt x="597" y="1875" on="1"/>
        <pt x="597" y="1900" on="0"/>
        <pt x="702" y="1900" on="0"/>
        <pt x="837" y="1725" on="0"/>
        <pt x="849" y="1725" on="1"/>
        <pt x="851" y="1724" on="0"/>
        <pt x="868" y="1740" on="1"/>
        <pt x="884" y="1756" on="0"/>
        <pt x="908" y="1776" on="1"/>
        <pt x="932" y="1794" on="0"/>
        <pt x="940" y="1802" on="1"/>
        <pt x="1045" y="1900" on="0"/>
        <pt x="1103" y="1901" on="1"/>
        <pt x="1118" y="1901" on="1"/>
        <pt x="1160" y="1901" on="0"/>
        <pt x="1160" y="1886" on="1"/>
        <pt x="1160" y="1880" on="1"/>
        <pt x="1160" y="1857" on="0"/>
        <pt x="919" y="1636" on="1"/>
        <pt x="873" y="1594" on="0"/>
        <pt x="818" y="1594" on="1"/>
        <pt x="802" y="1596" on="0"/>
      </contour>
      <contour>
        <pt x="322" y="18" on="1"/>
        <pt x="85" y="18" on="0"/>
        <pt x="85" y="64" on="1"/>
        <pt x="85" y="137" on="0"/>
        <pt x="236" y="338" on="1"/>
        <pt x="254" y="362" on="0"/>
        <pt x="412" y="560" on="1"/>
        <pt x="979" y="1269" on="0"/>
        <pt x="979" y="1298" on="1"/>
        <pt x="979" y="1323" on="0"/>
        <pt x="624" y="1323" on="0"/>
        <pt x="416" y="1294" on="0"/>
        <pt x="386" y="1294" on="1"/>
        <pt x="311" y="1294" on="0"/>
        <pt x="311" y="1343" on="1"/>
        <pt x="311" y="1407" on="0"/>
        <pt x="337" y="1426" on="1"/>
        <pt x="384" y="1460" on="0"/>
        <pt x="562" y="1460" on="1"/>
        <pt x="598" y="1460" on="1"/>
        <pt x="634" y="1459" on="1"/>
        <pt x="1099" y="1458" on="1"/>
        <pt x="1134" y="1457" on="1"/>
        <pt x="1245" y="1449" on="0"/>
        <pt x="1245" y="1409" on="1"/>
        <pt x="1245" y="1347" on="0"/>
        <pt x="788" y="788" on="1"/>
        <pt x="487" y="420" on="0"/>
        <pt x="381" y="240" on="1"/>
        <pt x="357" y="199" on="0"/>
        <pt x="357" y="193" on="1"/>
        <pt x="357" y="162" on="0"/>
        <pt x="435" y="146" on="0"/>
        <pt x="745" y="146" on="0"/>
        <pt x="994" y="180" on="0"/>
        <pt x="1001" y="180" on="1"/>
        <pt x="1076" y="180" on="0"/>
        <pt x="1076" y="125" on="1"/>
        <pt x="1076" y="64" on="0"/>
        <pt x="1046" y="43" on="1"/>
        <pt x="996" y="8" on="0"/>
        <pt x="820" y="8" on="1"/>
        <pt x="785" y="8" on="1"/>
        <pt x="749" y="9" on="1"/>
        <pt x="569" y="12" on="1"/>
        <pt x="463" y="15" on="1"/>
        <pt x="357" y="18" on="0"/>
      </contour>
    </TTGlyph>
    <TTGlyph name="a" xMin="101" yMin="18" xMax="992" yMax="995">
      <contour>
        <pt x="252" y="406" on="1"/>
        <pt x="252" y="373" on="1"/>
        <pt x="252" y="268" on="0"/>
        <pt x="348" y="120" on="0"/>
        <pt x="423" y="120" on="1"/>
        <pt x="456" y="120" on="1"/>
        <pt x="513" y="120" on="0"/>
        <pt x="654" y="207" on="0"/>
        <pt x="746" y="336" on="0"/>
        <pt x="817" y="550" on="0"/>
        <pt x="817" y="677" on="1"/>
        <pt x="817" y="709" on="1"/>
        <pt x="817" y="819" on="0"/>
        <pt x="740" y="891" on="0"/>
        <pt x="653" y="891" on="1"/>
        <pt x="632" y="891" on="1"/>
        <pt x="491" y="891" on="0"/>
        <pt x="375" y="751" on="1"/>
        <pt x="319" y="683" on="0"/>
        <pt x="252" y="492" on="0"/>
      </contour>
      <contour>
        <pt x="992" y="833" on="1"/>
        <pt x="992" y="816" on="1"/>
        <pt x="992" y="791" on="0"/>
        <pt x="932" y="447" on="0"/>
        <pt x="932" y="402" on="1"/>
        <pt x="932" y="358" on="0"/>
        <pt x="930" y="324" on="1"/>
        <pt x="927" y="274" on="1"/>
        <pt x="927" y="243" on="1"/>
        <pt x="928" y="228" on="1"/>
        <pt x="928" y="199" on="1"/>
        <pt x="929" y="160" on="1"/>
        <pt x="932" y="136" on="1"/>
        <pt x="934" y="120" on="0"/>
        <pt x="934" y="112" on="1"/>
        <pt x="934" y="57" on="0"/>
        <pt x="865" y="57" on="1"/>
        <pt x="835" y="57" on="0"/>
        <pt x="796" y="162" on="0"/>
        <pt x="768" y="162" on="1"/>
        <pt x="765" y="162" on="0"/>
        <pt x="659" y="90" on="0"/>
        <pt x="616" y="75" on="1"/>
        <pt x="451" y="18" on="0"/>
        <pt x="394" y="18" on="1"/>
        <pt x="267" y="18" on="0"/>
        <pt x="101" y="205" on="0"/>
        <pt x="101" y="367" on="1"/>
        <pt x="101" y="481" on="0"/>
        <pt x="186" y="722" on="0"/>
        <pt x="262" y="810" on="1"/>
        <pt x="421" y="994" on="0"/>
        <pt x="623" y="995" on="1"/>
        <pt x="642" y="995" on="1"/>
        <pt x="737" y="995" on="0"/>
        <pt x="836" y="928" on="1"/>
        <pt x="874" y="902" on="0"/>
        <pt x="908" y="902" on="0"/>
        <pt x="943" y="915" on="0"/>
        <pt x="948" y="915" on="1"/>
        <pt x="992" y="915" on="0"/>
      </contour>
    </TTGlyph>
    <TTGlyph name="aacute" xMin="127" yMin="56" xMax="999" yMax="1470">
      <contour>
        <pt x="279" y="464" on="1"/>
        <pt x="279" y="431" on="1"/>
        <pt x="279" y="311" on="0"/>
        <pt x="345" y="235" on="1"/>
        <pt x="387" y="186" on="0"/>
        <pt x="464" y="186" on="1"/>
        <pt x="475" y="186" on="1"/>
        <pt x="533" y="186" on="0"/>
        <pt x="601" y="226" on="1"/>
        <pt x="749" y="312" on="0"/>
        <pt x="806" y="503" on="1"/>
        <pt x="842" y="623" on="0"/>
        <pt x="842" y="696" on="1"/>
        <pt x="844" y="717" on="1"/>
        <pt x="845" y="749" on="1"/>
        <pt x="845" y="760" on="1"/>
        <pt x="845" y="879" on="0"/>
        <pt x="758" y="948" on="0"/>
        <pt x="676" y="948" on="1"/>
        <pt x="665" y="948" on="1"/>
        <pt x="655" y="947" on="1"/>
        <pt x="584" y="947" on="0"/>
        <pt x="515" y="905" on="1"/>
        <pt x="375" y="820" on="0"/>
        <pt x="310" y="634" on="1"/>
        <pt x="279" y="545" on="0"/>
      </contour>
      <contour>
        <pt x="896" y="1470" on="1"/>
        <pt x="919" y="1470" on="1"/>
        <pt x="941" y="1470" on="0"/>
        <pt x="941" y="1464" on="1"/>
        <pt x="941" y="1461" on="1"/>
        <pt x="940" y="1458" on="1"/>
        <pt x="940" y="1452" on="0"/>
        <pt x="628" y="1140" on="0"/>
        <pt x="596" y="1140" on="1"/>
        <pt x="588" y="1140" on="1"/>
        <pt x="576" y="1140" on="0"/>
        <pt x="576" y="1146" on="1"/>
        <pt x="576" y="1149" on="1"/>
        <pt x="576" y="1183" on="0"/>
        <pt x="788" y="1425" on="1"/>
        <pt x="827" y="1470" on="0"/>
      </contour>
      <contour>
        <pt x="999" y="855" on="1"/>
        <pt x="999" y="838" on="1"/>
        <pt x="999" y="834" on="0"/>
        <pt x="934" y="392" on="0"/>
        <pt x="934" y="239" on="0"/>
        <pt x="935" y="216" on="0"/>
        <pt x="944" y="166" on="1"/>
        <pt x="944" y="97" on="0"/>
        <pt x="870" y="97" on="1"/>
        <pt x="849" y="97" on="0"/>
        <pt x="802" y="190" on="0"/>
        <pt x="777" y="190" on="0"/>
        <pt x="686" y="128" on="0"/>
        <pt x="484" y="56" on="0"/>
        <pt x="416" y="56" on="1"/>
        <pt x="294" y="56" on="0"/>
        <pt x="127" y="238" on="0"/>
        <pt x="127" y="394" on="1"/>
        <pt x="127" y="413" on="1"/>
        <pt x="127" y="415" on="0"/>
        <pt x="127" y="418" on="1"/>
        <pt x="127" y="523" on="0"/>
        <pt x="168" y="632" on="1"/>
        <pt x="255" y="868" on="0"/>
        <pt x="438" y="965" on="1"/>
        <pt x="542" y="1020" on="0"/>
        <pt x="710" y="1020" on="0"/>
        <pt x="920" y="933" on="0"/>
        <pt x="924" y="933" on="1"/>
        <pt x="959" y="938" on="1"/>
        <pt x="999" y="938" on="0"/>
      </contour>
    </TTGlyph>
    <TTGlyph name="acircumflex" xMin="127" yMin="44" xMax="999" yMax="1448">
      <contour>
        <pt x="269" y="471" on="1"/>
        <pt x="269" y="427" on="1"/>
        <pt x="269" y="322" on="0"/>
        <pt x="368" y="179" on="0"/>
        <pt x="449" y="179" on="1"/>
        <pt x="471" y="179" on="1"/>
        <pt x="540" y="179" on="0"/>
        <pt x="699" y="279" on="0"/>
        <pt x="746" y="352" on="1"/>
        <pt x="841" y="499" on="0"/>
        <pt x="841" y="710" on="1"/>
        <pt x="840" y="721" on="1"/>
        <pt x="840" y="846" on="0"/>
        <pt x="769" y="935" on="0"/>
        <pt x="659" y="935" on="1"/>
        <pt x="649" y="935" on="1"/>
        <pt x="638" y="934" on="1"/>
        <pt x="591" y="934" on="0"/>
        <pt x="459" y="871" on="0"/>
        <pt x="334" y="720" on="0"/>
        <pt x="269" y="534" on="0"/>
      </contour>
      <contour>
        <pt x="760" y="1448" on="1"/>
        <pt x="791" y="1448" on="0"/>
        <pt x="840" y="1371" on="1"/>
        <pt x="963" y="1180" on="0"/>
        <pt x="963" y="1165" on="1"/>
        <pt x="963" y="1160" on="1"/>
        <pt x="963" y="1148" on="0"/>
        <pt x="942" y="1148" on="1"/>
        <pt x="889" y="1148" on="0"/>
        <pt x="759" y="1359" on="0"/>
        <pt x="734" y="1359" on="1"/>
        <pt x="721" y="1359" on="0"/>
        <pt x="507" y="1145" on="0"/>
        <pt x="452" y="1145" on="1"/>
        <pt x="446" y="1145" on="1"/>
        <pt x="431" y="1145" on="0"/>
        <pt x="431" y="1167" on="0"/>
        <pt x="737" y="1448" on="0"/>
      </contour>
      <contour>
        <pt x="934" y="262" on="0"/>
        <pt x="934" y="218" on="0"/>
        <pt x="936" y="201" on="1"/>
        <pt x="939" y="176" on="1"/>
        <pt x="943" y="153" on="1"/>
        <pt x="943" y="84" on="0"/>
        <pt x="870" y="84" on="1"/>
        <pt x="849" y="84" on="0"/>
        <pt x="800" y="178" on="0"/>
        <pt x="779" y="178" on="0"/>
        <pt x="681" y="115" on="0"/>
        <pt x="645" y="101" on="1"/>
        <pt x="500" y="44" on="0"/>
        <pt x="433" y="44" on="1"/>
        <pt x="397" y="44" on="1"/>
        <pt x="285" y="44" on="0"/>
        <pt x="127" y="237" on="0"/>
        <pt x="127" y="382" on="1"/>
        <pt x="127" y="401" on="1"/>
        <pt x="127" y="508" on="0"/>
        <pt x="212" y="738" on="0"/>
        <pt x="359" y="916" on="0"/>
        <pt x="548" y="1007" on="0"/>
        <pt x="630" y="1007" on="1"/>
        <pt x="667" y="1007" on="1"/>
        <pt x="730" y="1007" on="0"/>
        <pt x="898" y="920" on="0"/>
        <pt x="924" y="920" on="1"/>
        <pt x="959" y="925" on="1"/>
        <pt x="997" y="925" on="0"/>
        <pt x="997" y="858" on="1"/>
        <pt x="999" y="825" on="1"/>
        <pt x="999" y="798" on="0"/>
        <pt x="987" y="738" on="1"/>
        <pt x="981" y="703" on="1"/>
        <pt x="962" y="576" on="0"/>
        <pt x="936" y="397" on="0"/>
        <pt x="936" y="314" on="1"/>
        <pt x="934" y="284" on="1"/>
      </contour>
    </TTGlyph>
    <TTGlyph name="acute" xMin="260" yMin="1082" xMax="624" yMax="1396">
      <contour>
        <pt x="578" y="1396" on="1"/>
        <pt x="588" y="1396" on="1"/>
        <pt x="624" y="1396" on="0"/>
        <pt x="624" y="1384" on="1"/>
        <pt x="624" y="1338" on="0"/>
        <pt x="335" y="1086" on="0"/>
        <pt x="319" y="1086" on="1"/>
        <pt x="295" y="1082" on="1"/>
        <pt x="276" y="1082" on="1"/>
        <pt x="260" y="1082" on="0"/>
        <pt x="260" y="1089" on="1"/>
        <pt x="260" y="1096" on="1"/>
        <pt x="260" y="1161" on="0"/>
        <pt x="459" y="1360" on="1"/>
        <pt x="495" y="1396" on="0"/>
      </contour>
    </TTGlyph>
    <TTGlyph name="adieresis" xMin="130" yMin="49" xMax="1002" yMax="1390">
      <contour>
        <pt x="273" y="470" on="1"/>
        <pt x="273" y="437" on="1"/>
        <pt x="273" y="318" on="0"/>
        <pt x="376" y="180" on="0"/>
        <pt x="456" y="180" on="1"/>
        <pt x="477" y="180" on="1"/>
        <pt x="535" y="180" on="0"/>
        <pt x="683" y="270" on="0"/>
        <pt x="733" y="348" on="1"/>
        <pt x="831" y="499" on="0"/>
        <pt x="831" y="704" on="1"/>
        <pt x="831" y="757" on="1"/>
        <pt x="831" y="867" on="0"/>
        <pt x="746" y="935" on="0"/>
        <pt x="656" y="935" on="1"/>
        <pt x="646" y="934" on="1"/>
        <pt x="496" y="934" on="0"/>
        <pt x="380" y="782" on="1"/>
        <pt x="327" y="712" on="0"/>
        <pt x="273" y="531" on="0"/>
      </contour>
      <contour>
        <pt x="649" y="1314" on="1"/>
        <pt x="649" y="1282" on="0"/>
        <pt x="600" y="1221" on="0"/>
        <pt x="575" y="1221" on="1"/>
        <pt x="567" y="1217" on="0"/>
        <pt x="561" y="1217" on="1"/>
        <pt x="543" y="1215" on="1"/>
        <pt x="525" y="1215" on="1"/>
        <pt x="506" y="1219" on="1"/>
        <pt x="477" y="1219" on="0"/>
        <pt x="477" y="1245" on="1"/>
        <pt x="473" y="1257" on="0"/>
        <pt x="473" y="1260" on="1"/>
        <pt x="472" y="1271" on="1"/>
        <pt x="472" y="1282" on="1"/>
        <pt x="473" y="1285" on="1"/>
        <pt x="473" y="1293" on="1"/>
        <pt x="476" y="1307" on="0"/>
        <pt x="476" y="1328" on="0"/>
        <pt x="523" y="1386" on="0"/>
        <pt x="549" y="1386" on="1"/>
        <pt x="555" y="1388" on="0"/>
        <pt x="558" y="1388" on="1"/>
        <pt x="569" y="1390" on="1"/>
        <pt x="593" y="1390" on="1"/>
        <pt x="613" y="1386" on="1"/>
        <pt x="646" y="1386" on="0"/>
        <pt x="646" y="1352" on="1"/>
        <pt x="649" y="1336" on="1"/>
      </contour>
      <contour>
        <pt x="967" y="1343" on="1"/>
        <pt x="967" y="1329" on="1"/>
        <pt x="966" y="1326" on="1"/>
        <pt x="966" y="1319" on="1"/>
        <pt x="961" y="1289" on="1"/>
        <pt x="961" y="1245" on="0"/>
        <pt x="897" y="1165" on="0"/>
        <pt x="873" y="1165" on="1"/>
        <pt x="864" y="1165" on="1"/>
        <pt x="815" y="1165" on="0"/>
        <pt x="815" y="1215" on="1"/>
        <pt x="811" y="1229" on="1"/>
        <pt x="811" y="1240" on="1"/>
        <pt x="826" y="1283" on="1"/>
        <pt x="828" y="1291" on="0"/>
        <pt x="828" y="1293" on="1"/>
        <pt x="828" y="1321" on="0"/>
        <pt x="888" y="1381" on="0"/>
        <pt x="925" y="1381" on="1"/>
        <pt x="932" y="1381" on="1"/>
        <pt x="946" y="1377" on="1"/>
        <pt x="967" y="1377" on="0"/>
      </contour>
      <contour>
        <pt x="937" y="246" on="1"/>
        <pt x="937" y="223" on="0"/>
        <pt x="939" y="206" on="1"/>
        <pt x="942" y="182" on="1"/>
        <pt x="946" y="159" on="1"/>
        <pt x="946" y="89" on="0"/>
        <pt x="873" y="89" on="1"/>
        <pt x="851" y="89" on="0"/>
        <pt x="804" y="183" on="0"/>
        <pt x="782" y="183" on="0"/>
        <pt x="684" y="120" on="0"/>
        <pt x="648" y="106" on="1"/>
        <pt x="503" y="49" on="0"/>
        <pt x="436" y="49" on="1"/>
        <pt x="400" y="49" on="1"/>
        <pt x="288" y="49" on="0"/>
        <pt x="130" y="242" on="0"/>
        <pt x="130" y="387" on="1"/>
        <pt x="130" y="406" on="1"/>
        <pt x="130" y="510" on="0"/>
        <pt x="172" y="626" on="1"/>
        <pt x="258" y="865" on="0"/>
        <pt x="456" y="966" on="1"/>
        <pt x="545" y="1012" on="0"/>
        <pt x="633" y="1012" on="1"/>
        <pt x="670" y="1012" on="1"/>
        <pt x="733" y="1012" on="0"/>
        <pt x="901" y="925" on="0"/>
        <pt x="927" y="925" on="1"/>
        <pt x="962" y="930" on="1"/>
        <pt x="1000" y="930" on="0"/>
        <pt x="1000" y="863" on="1"/>
        <pt x="1002" y="831" on="1"/>
        <pt x="1002" y="830" on="0"/>
        <pt x="939" y="402" on="0"/>
        <pt x="939" y="319" on="1"/>
        <pt x="937" y="289" on="1"/>
      </contour>
    </TTGlyph>
    <TTGlyph name="ae" xMin="167" yMin="43" xMax="1589" yMax="1039">
      <contour>
        <pt x="317" y="405" on="1"/>
        <pt x="317" y="360" on="1"/>
        <pt x="317" y="263" on="0"/>
        <pt x="396" y="140" on="0"/>
        <pt x="544" y="140" on="0"/>
        <pt x="698" y="238" on="0"/>
        <pt x="743" y="303" on="1"/>
        <pt x="755" y="321" on="0"/>
        <pt x="908" y="779" on="0"/>
        <pt x="908" y="852" on="1"/>
        <pt x="908" y="870" on="1"/>
        <pt x="908" y="885" on="0"/>
        <pt x="888" y="899" on="1"/>
        <pt x="838" y="934" on="0"/>
        <pt x="752" y="934" on="1"/>
        <pt x="741" y="934" on="1"/>
        <pt x="596" y="934" on="0"/>
        <pt x="464" y="784" on="1"/>
        <pt x="413" y="726" on="0"/>
        <pt x="317" y="502" on="0"/>
      </contour>
      <contour>
        <pt x="1363" y="941" on="1"/>
        <pt x="1329" y="941" on="1"/>
        <pt x="1247" y="941" on="0"/>
        <pt x="1131" y="836" on="1"/>
        <pt x="1080" y="789" on="0"/>
        <pt x="1006" y="642" on="0"/>
        <pt x="1006" y="627" on="1"/>
        <pt x="1006" y="622" on="1"/>
        <pt x="1006" y="588" on="0"/>
        <pt x="1043" y="588" on="1"/>
        <pt x="1056" y="588" on="1"/>
        <pt x="1197" y="588" on="0"/>
        <pt x="1399" y="672" on="1"/>
        <pt x="1465" y="700" on="0"/>
        <pt x="1492" y="730" on="0"/>
        <pt x="1492" y="774" on="1"/>
        <pt x="1492" y="801" on="1"/>
        <pt x="1492" y="865" on="0"/>
        <pt x="1416" y="941" on="0"/>
      </contour>
      <contour>
        <pt x="444" y="76" on="1"/>
        <pt x="320" y="76" on="0"/>
        <pt x="167" y="269" on="0"/>
        <pt x="167" y="498" on="0"/>
        <pt x="265" y="721" on="0"/>
        <pt x="419" y="890" on="0"/>
        <pt x="613" y="987" on="0"/>
        <pt x="699" y="987" on="1"/>
        <pt x="725" y="986" on="1"/>
        <pt x="751" y="984" on="1"/>
        <pt x="776" y="979" on="1"/>
        <pt x="789" y="979" on="0"/>
        <pt x="895" y="1015" on="0"/>
        <pt x="954" y="1015" on="0"/>
        <pt x="1026" y="959" on="0"/>
        <pt x="1055" y="929" on="0"/>
        <pt x="1076" y="929" on="0"/>
        <pt x="1162" y="989" on="0"/>
        <pt x="1180" y="998" on="1"/>
        <pt x="1262" y="1039" on="0"/>
        <pt x="1471" y="1039" on="0"/>
        <pt x="1589" y="910" on="0"/>
        <pt x="1589" y="806" on="1"/>
        <pt x="1589" y="778" on="1"/>
        <pt x="1589" y="648" on="0"/>
        <pt x="1516" y="595" on="1"/>
        <pt x="1475" y="565" on="0"/>
        <pt x="1135" y="438" on="0"/>
        <pt x="1009" y="403" on="0"/>
        <pt x="1009" y="398" on="1"/>
        <pt x="1009" y="176" on="0"/>
        <pt x="1249" y="176" on="1"/>
        <pt x="1274" y="176" on="0"/>
        <pt x="1547" y="294" on="1"/>
        <pt x="1579" y="308" on="0"/>
        <pt x="1579" y="264" on="1"/>
        <pt x="1579" y="238" on="0"/>
        <pt x="1526" y="157" on="0"/>
        <pt x="1452" y="116" on="1"/>
        <pt x="1321" y="43" on="0"/>
        <pt x="1090" y="43" on="0"/>
        <pt x="980" y="113" on="1"/>
        <pt x="912" y="156" on="0"/>
        <pt x="849" y="156" on="1"/>
        <pt x="822" y="164" on="0"/>
        <pt x="803" y="164" on="1"/>
        <pt x="764" y="170" on="1"/>
        <pt x="755" y="170" on="0"/>
        <pt x="673" y="133" on="0"/>
        <pt x="481" y="76" on="0"/>
      </contour>
    </TTGlyph>
    <TTGlyph name="agrave" xMin="128" yMin="58" xMax="1000" yMax="1471">
      <contour>
        <pt x="272" y="493" on="1"/>
        <pt x="272" y="449" on="1"/>
        <pt x="272" y="331" on="0"/>
        <pt x="379" y="189" on="0"/>
        <pt x="457" y="189" on="1"/>
        <pt x="489" y="189" on="1"/>
        <pt x="551" y="190" on="0"/>
        <pt x="618" y="238" on="1"/>
        <pt x="825" y="388" on="0"/>
        <pt x="825" y="670" on="1"/>
        <pt x="827" y="691" on="1"/>
        <pt x="828" y="734" on="1"/>
        <pt x="828" y="860" on="0"/>
        <pt x="757" y="949" on="0"/>
        <pt x="653" y="949" on="1"/>
        <pt x="642" y="949" on="1"/>
        <pt x="631" y="948" on="1"/>
        <pt x="507" y="948" on="0"/>
        <pt x="395" y="821" on="1"/>
        <pt x="345" y="764" on="0"/>
        <pt x="272" y="582" on="0"/>
      </contour>
      <contour>
        <pt x="793" y="1143" on="1"/>
        <pt x="785" y="1143" on="1"/>
        <pt x="737" y="1143" on="0"/>
        <pt x="617" y="1323" on="0"/>
        <pt x="500" y="1425" on="0"/>
        <pt x="500" y="1457" on="1"/>
        <pt x="500" y="1459" on="1"/>
        <pt x="500" y="1470" on="0"/>
        <pt x="536" y="1470" on="1"/>
        <pt x="544" y="1471" on="1"/>
        <pt x="602" y="1471" on="0"/>
        <pt x="647" y="1420" on="1"/>
        <pt x="809" y="1235" on="0"/>
        <pt x="809" y="1164" on="1"/>
        <pt x="809" y="1157" on="1"/>
        <pt x="809" y="1143" on="0"/>
      </contour>
      <contour>
        <pt x="1000" y="840" on="1"/>
        <pt x="1000" y="839" on="0"/>
        <pt x="937" y="411" on="0"/>
        <pt x="937" y="328" on="1"/>
        <pt x="935" y="298" on="1"/>
        <pt x="935" y="255" on="1"/>
        <pt x="935" y="232" on="0"/>
        <pt x="937" y="215" on="1"/>
        <pt x="940" y="191" on="1"/>
        <pt x="944" y="168" on="1"/>
        <pt x="944" y="99" on="0"/>
        <pt x="871" y="99" on="1"/>
        <pt x="849" y="99" on="0"/>
        <pt x="802" y="192" on="0"/>
        <pt x="777" y="192" on="0"/>
        <pt x="688" y="131" on="0"/>
        <pt x="490" y="58" on="0"/>
        <pt x="416" y="58" on="1"/>
        <pt x="295" y="58" on="0"/>
        <pt x="128" y="240" on="0"/>
        <pt x="128" y="396" on="1"/>
        <pt x="128" y="415" on="1"/>
        <pt x="128" y="522" on="0"/>
        <pt x="216" y="760" on="0"/>
        <pt x="290" y="846" on="1"/>
        <pt x="443" y="1022" on="0"/>
        <pt x="649" y="1022" on="1"/>
        <pt x="714" y="1022" on="0"/>
        <pt x="917" y="935" on="0"/>
        <pt x="925" y="935" on="1"/>
        <pt x="960" y="940" on="1"/>
        <pt x="1000" y="940" on="0"/>
      </contour>
    </TTGlyph>
    <TTGlyph name="ampersand" xMin="142" yMin="-17" xMax="1315" yMax="1429">
      <contour>
        <pt x="774" y="1307" on="1"/>
        <pt x="683" y="1307" on="0"/>
        <pt x="569" y="1179" on="0"/>
        <pt x="569" y="1099" on="1"/>
        <pt x="569" y="1080" on="1"/>
        <pt x="569" y="1007" on="0"/>
        <pt x="626" y="912" on="1"/>
        <pt x="645" y="881" on="0"/>
        <pt x="680" y="881" on="0"/>
        <pt x="756" y="925" on="1"/>
        <pt x="937" y="1030" on="0"/>
        <pt x="937" y="1167" on="1"/>
        <pt x="937" y="1169" on="1"/>
        <pt x="936" y="1175" on="1"/>
        <pt x="936" y="1226" on="0"/>
        <pt x="866" y="1305" on="0"/>
        <pt x="814" y="1305" on="1"/>
        <pt x="801" y="1307" on="1"/>
      </contour>
      <contour>
        <pt x="577" y="685" on="1"/>
        <pt x="562" y="685" on="1"/>
        <pt x="548" y="685" on="0"/>
        <pt x="422" y="601" on="0"/>
        <pt x="303" y="450" on="0"/>
        <pt x="303" y="348" on="1"/>
        <pt x="303" y="330" on="1"/>
        <pt x="303" y="236" on="0"/>
        <pt x="439" y="110" on="0"/>
        <pt x="547" y="110" on="1"/>
        <pt x="586" y="110" on="1"/>
        <pt x="604" y="112" on="0"/>
        <pt x="614" y="112" on="1"/>
        <pt x="692" y="112" on="0"/>
        <pt x="894" y="226" on="0"/>
        <pt x="894" y="265" on="1"/>
        <pt x="894" y="272" on="1"/>
        <pt x="894" y="276" on="0"/>
        <pt x="594" y="685" on="0"/>
      </contour>
      <contour>
        <pt x="789" y="723" on="1"/>
        <pt x="789" y="662" on="0"/>
        <pt x="972" y="457" on="0"/>
        <pt x="1028" y="457" on="1"/>
        <pt x="1061" y="457" on="0"/>
        <pt x="1198" y="748" on="0"/>
        <pt x="1248" y="748" on="1"/>
        <pt x="1315" y="748" on="0"/>
        <pt x="1315" y="685" on="1"/>
        <pt x="1315" y="629" on="0"/>
        <pt x="1126" y="284" on="0"/>
        <pt x="1126" y="271" on="1"/>
        <pt x="1126" y="227" on="0"/>
        <pt x="1262" y="87" on="0"/>
        <pt x="1262" y="60" on="1"/>
        <pt x="1262" y="21" on="0"/>
        <pt x="1202" y="21" on="1"/>
        <pt x="1169" y="21" on="0"/>
        <pt x="1023" y="105" on="0"/>
        <pt x="972" y="105" on="1"/>
        <pt x="968" y="105" on="0"/>
        <pt x="768" y="25" on="1"/>
        <pt x="663" y="-17" on="0"/>
        <pt x="360" y="-17" on="0"/>
        <pt x="142" y="155" on="0"/>
        <pt x="142" y="324" on="1"/>
        <pt x="142" y="442" on="0"/>
        <pt x="253" y="618" on="0"/>
        <pt x="483" y="812" on="0"/>
        <pt x="483" y="850" on="1"/>
        <pt x="483" y="855" on="0"/>
        <pt x="450" y="933" on="0"/>
        <pt x="414" y="1027" on="0"/>
        <pt x="414" y="1090" on="1"/>
        <pt x="414" y="1233" on="0"/>
        <pt x="629" y="1429" on="0"/>
        <pt x="797" y="1429" on="1"/>
        <pt x="922" y="1429" on="0"/>
        <pt x="1085" y="1312" on="0"/>
        <pt x="1085" y="1115" on="0"/>
        <pt x="1014" y="991" on="0"/>
        <pt x="913" y="887" on="0"/>
        <pt x="872" y="832" on="0"/>
        <pt x="789" y="744" on="0"/>
      </contour>
    </TTGlyph>
    <TTGlyph name="aring" xMin="126" yMin="52" xMax="999" yMax="1511">
      <contour>
        <pt x="740" y="1446" on="1"/>
        <pt x="730" y="1446" on="1"/>
        <pt x="726" y="1445" on="1"/>
        <pt x="719" y="1445" on="1"/>
        <pt x="711" y="1443" on="0"/>
        <pt x="709" y="1443" on="1"/>
        <pt x="684" y="1443" on="0"/>
        <pt x="618" y="1377" on="0"/>
        <pt x="618" y="1347" on="1"/>
        <pt x="615" y="1330" on="1"/>
        <pt x="615" y="1308" on="1"/>
        <pt x="615" y="1274" on="0"/>
        <pt x="668" y="1221" on="0"/>
        <pt x="702" y="1221" on="1"/>
        <pt x="716" y="1221" on="1"/>
        <pt x="759" y="1221" on="0"/>
        <pt x="829" y="1291" on="0"/>
        <pt x="829" y="1323" on="1"/>
        <pt x="831" y="1329" on="0"/>
        <pt x="831" y="1333" on="1"/>
        <pt x="832" y="1348" on="1"/>
        <pt x="832" y="1351" on="1"/>
        <pt x="832" y="1397" on="0"/>
        <pt x="771" y="1446" on="0"/>
      </contour>
      <contour>
        <pt x="258" y="432" on="1"/>
        <pt x="258" y="409" on="1"/>
        <pt x="258" y="298" on="0"/>
        <pt x="358" y="144" on="0"/>
        <pt x="438" y="144" on="1"/>
        <pt x="460" y="144" on="1"/>
        <pt x="471" y="145" on="1"/>
        <pt x="536" y="146" on="0"/>
        <pt x="616" y="198" on="1"/>
        <pt x="772" y="300" on="0"/>
        <pt x="837" y="594" on="0"/>
        <pt x="837" y="657" on="1"/>
        <pt x="839" y="679" on="1"/>
        <pt x="839" y="746" on="1"/>
        <pt x="839" y="850" on="0"/>
        <pt x="762" y="922" on="0"/>
        <pt x="670" y="922" on="1"/>
        <pt x="648" y="922" on="1"/>
        <pt x="637" y="921" on="1"/>
        <pt x="576" y="921" on="0"/>
        <pt x="441" y="850" on="0"/>
        <pt x="322" y="708" on="0"/>
        <pt x="258" y="515" on="0"/>
      </contour>
      <contour>
        <pt x="907" y="1369" on="1"/>
        <pt x="907" y="1333" on="1"/>
        <pt x="907" y="1265" on="0"/>
        <pt x="784" y="1156" on="0"/>
        <pt x="708" y="1156" on="1"/>
        <pt x="702" y="1156" on="1"/>
        <pt x="636" y="1156" on="0"/>
        <pt x="539" y="1241" on="0"/>
        <pt x="539" y="1305" on="1"/>
        <pt x="539" y="1328" on="1"/>
        <pt x="541" y="1340" on="0"/>
        <pt x="541" y="1346" on="1"/>
        <pt x="541" y="1411" on="0"/>
        <pt x="670" y="1511" on="0"/>
        <pt x="727" y="1511" on="1"/>
        <pt x="757" y="1511" on="1"/>
        <pt x="818" y="1511" on="0"/>
        <pt x="907" y="1422" on="0"/>
      </contour>
      <contour>
        <pt x="126" y="379" on="1"/>
        <pt x="126" y="416" on="1"/>
        <pt x="126" y="517" on="0"/>
        <pt x="210" y="743" on="0"/>
        <pt x="348" y="910" on="0"/>
        <pt x="533" y="1014" on="0"/>
        <pt x="637" y="1014" on="1"/>
        <pt x="656" y="1014" on="1"/>
        <pt x="701" y="1014" on="0"/>
        <pt x="810" y="973" on="0"/>
        <pt x="880" y="925" on="0"/>
        <pt x="912" y="925" on="0"/>
        <pt x="949" y="936" on="0"/>
        <pt x="953" y="936" on="1"/>
        <pt x="999" y="936" on="0"/>
        <pt x="999" y="843" on="1"/>
        <pt x="999" y="811" on="0"/>
        <pt x="974" y="669" on="1"/>
        <pt x="957" y="550" on="1"/>
        <pt x="932" y="374" on="0"/>
        <pt x="932" y="206" on="0"/>
        <pt x="940" y="158" on="0"/>
        <pt x="940" y="152" on="1"/>
        <pt x="940" y="92" on="0"/>
        <pt x="874" y="92" on="1"/>
        <pt x="848" y="92" on="0"/>
        <pt x="800" y="184" on="0"/>
        <pt x="771" y="184" on="0"/>
        <pt x="681" y="122" on="0"/>
        <pt x="486" y="52" on="0"/>
        <pt x="424" y="52" on="1"/>
        <pt x="388" y="52" on="1"/>
        <pt x="285" y="52" on="0"/>
        <pt x="126" y="240" on="0"/>
      </contour>
    </TTGlyph>
    <TTGlyph name="asciicircum" xMin="234" yMin="751" xMax="996" yMax="1370">
      <contour>
        <pt x="691" y="1370" on="1"/>
        <pt x="703" y="1370" on="1"/>
        <pt x="737" y="1370" on="0"/>
        <pt x="783" y="1271" on="1"/>
        <pt x="996" y="809" on="0"/>
        <pt x="996" y="777" on="1"/>
        <pt x="996" y="751" on="0"/>
        <pt x="896" y="751" on="0"/>
        <pt x="823" y="880" on="0"/>
        <pt x="686" y="1217" on="0"/>
        <pt x="662" y="1217" on="1"/>
        <pt x="657" y="1217" on="0"/>
        <pt x="423" y="866" on="0"/>
        <pt x="335" y="752" on="0"/>
        <pt x="267" y="752" on="1"/>
        <pt x="234" y="752" on="0"/>
        <pt x="234" y="777" on="0"/>
        <pt x="411" y="1031" on="0"/>
        <pt x="582" y="1288" on="0"/>
        <pt x="648" y="1370" on="0"/>
      </contour>
    </TTGlyph>
    <TTGlyph name="asciitilde" xMin="165" yMin="540" xMax="1006" yMax="781">
      <contour>
        <pt x="744" y="540" on="1"/>
        <pt x="689" y="540" on="0"/>
        <pt x="459" y="678" on="0"/>
        <pt x="348" y="678" on="0"/>
        <pt x="223" y="553" on="0"/>
        <pt x="165" y="553" on="0"/>
        <pt x="165" y="581" on="1"/>
        <pt x="165" y="645" on="0"/>
        <pt x="330" y="781" on="0"/>
        <pt x="417" y="781" on="1"/>
        <pt x="428" y="781" on="1"/>
        <pt x="476" y="781" on="0"/>
        <pt x="725" y="644" on="0"/>
        <pt x="828" y="644" on="0"/>
        <pt x="945" y="769" on="0"/>
        <pt x="1006" y="769" on="0"/>
        <pt x="1006" y="749" on="1"/>
        <pt x="1006" y="740" on="1"/>
        <pt x="1006" y="670" on="0"/>
        <pt x="836" y="540" on="0"/>
        <pt x="755" y="540" on="1"/>
      </contour>
    </TTGlyph>
    <TTGlyph name="asterisk" xMin="256" yMin="765" xMax="832" yMax="1367">
      <contour>
        <pt x="256" y="922" on="1"/>
        <pt x="256" y="931" on="0"/>
        <pt x="326" y="1020" on="0"/>
        <pt x="355" y="1041" on="0"/>
        <pt x="355" y="1047" on="1"/>
        <pt x="349" y="1053" on="1"/>
        <pt x="321" y="1075" on="0"/>
        <pt x="299" y="1125" on="0"/>
        <pt x="281" y="1160" on="0"/>
        <pt x="281" y="1164" on="1"/>
        <pt x="281" y="1216" on="0"/>
        <pt x="334" y="1216" on="1"/>
        <pt x="369" y="1216" on="0"/>
        <pt x="476" y="1155" on="0"/>
        <pt x="490" y="1155" on="0"/>
        <pt x="524" y="1314" on="0"/>
        <pt x="534" y="1331" on="1"/>
        <pt x="555" y="1367" on="0"/>
        <pt x="617" y="1367" on="1"/>
        <pt x="634" y="1367" on="0"/>
        <pt x="634" y="1250" on="0"/>
        <pt x="602" y="1150" on="0"/>
        <pt x="602" y="1132" on="0"/>
        <pt x="614" y="1132" on="1"/>
        <pt x="616" y="1132" on="0"/>
        <pt x="762" y="1200" on="0"/>
        <pt x="781" y="1200" on="1"/>
        <pt x="832" y="1200" on="0"/>
        <pt x="832" y="1167" on="1"/>
        <pt x="832" y="1111" on="0"/>
        <pt x="650" y="1026" on="0"/>
        <pt x="650" y="1015" on="1"/>
        <pt x="650" y="992" on="0"/>
        <pt x="721" y="911" on="0"/>
        <pt x="721" y="824" on="0"/>
        <pt x="667" y="824" on="1"/>
        <pt x="637" y="824" on="0"/>
        <pt x="565" y="867" on="0"/>
        <pt x="560" y="867" on="1"/>
        <pt x="532" y="867" on="0"/>
        <pt x="515" y="832" on="1"/>
        <pt x="483" y="765" on="0"/>
        <pt x="421" y="765" on="1"/>
        <pt x="389" y="765" on="0"/>
        <pt x="389" y="842" on="1"/>
        <pt x="389" y="868" on="0"/>
        <pt x="372" y="868" on="1"/>
        <pt x="363" y="869" on="1"/>
        <pt x="353" y="870" on="1"/>
        <pt x="329" y="871" on="1"/>
        <pt x="290" y="869" on="1"/>
        <pt x="256" y="869" on="0"/>
      </contour>
    </TTGlyph>
    <TTGlyph name="at" xMin="207" yMin="-153" xMax="1621" yMax="1333">
      <contour>
        <pt x="977" y="865" on="1"/>
        <pt x="868" y="865" on="0"/>
        <pt x="659" y="641" on="0"/>
        <pt x="659" y="516" on="1"/>
        <pt x="659" y="479" on="1"/>
        <pt x="659" y="456" on="0"/>
        <pt x="680" y="372" on="0"/>
        <pt x="680" y="362" on="1"/>
        <pt x="680" y="293" on="0"/>
        <pt x="729" y="293" on="1"/>
        <pt x="736" y="293" on="1"/>
        <pt x="752" y="295" on="0"/>
        <pt x="759" y="295" on="1"/>
        <pt x="871" y="295" on="0"/>
        <pt x="1008" y="407" on="1"/>
        <pt x="1029" y="424" on="0"/>
        <pt x="1098" y="588" on="0"/>
        <pt x="1098" y="634" on="1"/>
        <pt x="1101" y="665" on="1"/>
        <pt x="1103" y="693" on="1"/>
        <pt x="1123" y="806" on="1"/>
        <pt x="1123" y="814" on="1"/>
        <pt x="1123" y="855" on="0"/>
        <pt x="1066" y="855" on="1"/>
        <pt x="992" y="865" on="1"/>
      </contour>
      <contour>
        <pt x="1235" y="241" on="1"/>
        <pt x="1208" y="241" on="0"/>
        <pt x="1107" y="305" on="0"/>
        <pt x="1084" y="305" on="1"/>
        <pt x="1050" y="294" on="1"/>
        <pt x="963" y="250" on="1"/>
        <pt x="881" y="213" on="0"/>
        <pt x="737" y="213" on="0"/>
        <pt x="596" y="338" on="0"/>
        <pt x="596" y="438" on="1"/>
        <pt x="596" y="647" on="0"/>
        <pt x="844" y="942" on="0"/>
        <pt x="978" y="942" on="1"/>
        <pt x="1026" y="942" on="0"/>
        <pt x="1119" y="918" on="0"/>
        <pt x="1200" y="918" on="0"/>
        <pt x="1223" y="898" on="0"/>
        <pt x="1223" y="810" on="0"/>
        <pt x="1171" y="542" on="0"/>
        <pt x="1171" y="373" on="0"/>
        <pt x="1245" y="373" on="1"/>
        <pt x="1328" y="373" on="0"/>
        <pt x="1388" y="500" on="1"/>
        <pt x="1432" y="592" on="0"/>
        <pt x="1432" y="714" on="1"/>
        <pt x="1432" y="918" on="0"/>
        <pt x="1184" y="1142" on="0"/>
        <pt x="992" y="1142" on="1"/>
        <pt x="864" y="1142" on="0"/>
        <pt x="632" y="1018" on="0"/>
        <pt x="550" y="916" on="1"/>
        <pt x="391" y="719" on="0"/>
        <pt x="391" y="443" on="1"/>
        <pt x="391" y="219" on="0"/>
        <pt x="652" y="-67" on="0"/>
        <pt x="865" y="-67" on="1"/>
        <pt x="930" y="-67" on="0"/>
        <pt x="1114" y="-23" on="0"/>
        <pt x="1121" y="-23" on="1"/>
        <pt x="1153" y="-23" on="0"/>
        <pt x="1153" y="-57" on="1"/>
        <pt x="1129" y="-81" on="1"/>
        <pt x="1089" y="-108" on="0"/>
        <pt x="910" y="-153" on="0"/>
        <pt x="800" y="-153" on="1"/>
        <pt x="798" y="-153" on="0"/>
        <pt x="796" y="-153" on="1"/>
        <pt x="690" y="-153" on="0"/>
        <pt x="570" y="-106" on="1"/>
        <pt x="345" y="-18" on="0"/>
        <pt x="252" y="217" on="1"/>
        <pt x="207" y="331" on="0"/>
        <pt x="207" y="647" on="0"/>
        <pt x="338" y="966" on="0"/>
        <pt x="550" y="1189" on="0"/>
        <pt x="850" y="1333" on="0"/>
        <pt x="1001" y="1333" on="1"/>
        <pt x="1059" y="1333" on="1"/>
        <pt x="1169" y="1333" on="0"/>
        <pt x="1277" y="1293" on="1"/>
        <pt x="1501" y="1210" on="0"/>
        <pt x="1580" y="1009" on="1"/>
        <pt x="1621" y="904" on="0"/>
        <pt x="1621" y="795" on="1"/>
        <pt x="1621" y="573" on="0"/>
        <pt x="1523" y="420" on="1"/>
        <pt x="1461" y="324" on="0"/>
        <pt x="1308" y="241" on="0"/>
      </contour>
    </TTGlyph>
    <TTGlyph name="atilde" xMin="125" yMin="42" xMax="1017" yMax="1346">
      <contour>
        <pt x="267" y="450" on="1"/>
        <pt x="267" y="428" on="1"/>
        <pt x="267" y="321" on="0"/>
        <pt x="366" y="177" on="0"/>
        <pt x="446" y="177" on="1"/>
        <pt x="479" y="177" on="1"/>
        <pt x="536" y="178" on="0"/>
        <pt x="610" y="222" on="1"/>
        <pt x="752" y="308" on="0"/>
        <pt x="808" y="495" on="1"/>
        <pt x="839" y="598" on="0"/>
        <pt x="839" y="679" on="1"/>
        <pt x="841" y="701" on="1"/>
        <pt x="841" y="744" on="1"/>
        <pt x="841" y="845" on="0"/>
        <pt x="766" y="926" on="0"/>
        <pt x="668" y="926" on="1"/>
        <pt x="647" y="926" on="1"/>
        <pt x="512" y="926" on="0"/>
        <pt x="391" y="789" on="1"/>
        <pt x="333" y="723" on="0"/>
        <pt x="267" y="535" on="0"/>
      </contour>
      <contour>
        <pt x="426" y="1173" on="1"/>
        <pt x="414" y="1173" on="1"/>
        <pt x="397" y="1173" on="0"/>
        <pt x="397" y="1185" on="1"/>
        <pt x="397" y="1191" on="1"/>
        <pt x="397" y="1249" on="0"/>
        <pt x="495" y="1308" on="1"/>
        <pt x="553" y="1343" on="0"/>
        <pt x="678" y="1343" on="0"/>
        <pt x="812" y="1257" on="0"/>
        <pt x="890" y="1257" on="0"/>
        <pt x="963" y="1346" on="0"/>
        <pt x="987" y="1346" on="1"/>
        <pt x="993" y="1346" on="1"/>
        <pt x="1017" y="1346" on="0"/>
        <pt x="1017" y="1326" on="1"/>
        <pt x="1017" y="1269" on="0"/>
        <pt x="902" y="1185" on="0"/>
        <pt x="782" y="1185" on="0"/>
        <pt x="620" y="1266" on="0"/>
        <pt x="533" y="1266" on="0"/>
        <pt x="449" y="1173" on="0"/>
      </contour>
      <contour>
        <pt x="996" y="841" on="1"/>
        <pt x="996" y="824" on="1"/>
        <pt x="996" y="820" on="0"/>
        <pt x="931" y="378" on="0"/>
        <pt x="931" y="300" on="1"/>
        <pt x="931" y="274" on="0"/>
        <pt x="931" y="255" on="1"/>
        <pt x="931" y="218" on="0"/>
        <pt x="932" y="210" on="1"/>
        <pt x="937" y="175" on="1"/>
        <pt x="941" y="152" on="1"/>
        <pt x="941" y="82" on="0"/>
        <pt x="867" y="82" on="1"/>
        <pt x="846" y="82" on="0"/>
        <pt x="823" y="129" on="1"/>
        <pt x="799" y="176" on="0"/>
        <pt x="777" y="176" on="0"/>
        <pt x="673" y="109" on="0"/>
        <pt x="629" y="95" on="1"/>
        <pt x="464" y="42" on="0"/>
        <pt x="413" y="42" on="1"/>
        <pt x="395" y="42" on="1"/>
        <pt x="291" y="42" on="0"/>
        <pt x="125" y="223" on="0"/>
        <pt x="125" y="361" on="1"/>
        <pt x="125" y="418" on="1"/>
        <pt x="126" y="526" on="0"/>
        <pt x="174" y="640" on="1"/>
        <pt x="276" y="879" on="0"/>
        <pt x="467" y="967" on="1"/>
        <pt x="553" y="1006" on="0"/>
        <pt x="715" y="1006" on="0"/>
        <pt x="911" y="918" on="0"/>
        <pt x="921" y="918" on="1"/>
        <pt x="956" y="924" on="1"/>
        <pt x="996" y="924" on="0"/>
      </contour>
    </TTGlyph>
    <TTGlyph name="b" xMin="131" yMin="-3" xMax="1023" yMax="1455">
      <contour>
        <pt x="499" y="110" on="1"/>
        <pt x="533" y="110" on="1"/>
        <pt x="588" y="110" on="0"/>
        <pt x="649" y="140" on="1"/>
        <pt x="778" y="204" on="0"/>
        <pt x="843" y="399" on="1"/>
        <pt x="879" y="507" on="0"/>
        <pt x="879" y="585" on="1"/>
        <pt x="879" y="641" on="1"/>
        <pt x="879" y="750" on="0"/>
        <pt x="779" y="884" on="0"/>
        <pt x="687" y="884" on="1"/>
        <pt x="675" y="883" on="1"/>
        <pt x="664" y="883" on="1"/>
        <pt x="598" y="883" on="0"/>
        <pt x="526" y="839" on="1"/>
        <pt x="394" y="758" on="0"/>
        <pt x="344" y="541" on="1"/>
        <pt x="315" y="413" on="0"/>
        <pt x="315" y="323" on="1"/>
        <pt x="315" y="279" on="1"/>
        <pt x="315" y="199" on="0"/>
        <pt x="418" y="110" on="0"/>
      </contour>
      <contour>
        <pt x="1023" y="606" on="1"/>
        <pt x="1022" y="495" on="0"/>
        <pt x="982" y="374" on="1"/>
        <pt x="942" y="254" on="0"/>
        <pt x="876" y="170" on="1"/>
        <pt x="740" y="-2" on="0"/>
        <pt x="540" y="-3" on="1"/>
        <pt x="455" y="-3" on="0"/>
        <pt x="349" y="48" on="0"/>
        <pt x="273" y="105" on="0"/>
        <pt x="265" y="105" on="0"/>
        <pt x="195" y="47" on="0"/>
        <pt x="158" y="47" on="1"/>
        <pt x="131" y="47" on="0"/>
        <pt x="131" y="89" on="1"/>
        <pt x="131" y="107" on="1"/>
        <pt x="131" y="109" on="0"/>
        <pt x="331" y="1366" on="1"/>
        <pt x="345" y="1455" on="0"/>
        <pt x="381" y="1455" on="1"/>
        <pt x="435" y="1455" on="0"/>
        <pt x="474" y="1416" on="0"/>
        <pt x="474" y="1298" on="0"/>
        <pt x="412" y="942" on="0"/>
        <pt x="412" y="892" on="0"/>
        <pt x="430" y="892" on="1"/>
        <pt x="432" y="892" on="0"/>
        <pt x="599" y="970" on="0"/>
        <pt x="651" y="982" on="1"/>
        <pt x="697" y="992" on="0"/>
        <pt x="737" y="992" on="1"/>
        <pt x="796" y="992" on="0"/>
        <pt x="846" y="970" on="1"/>
        <pt x="928" y="933" on="0"/>
        <pt x="1023" y="755" on="0"/>
        <pt x="1023" y="629" on="1"/>
      </contour>
    </TTGlyph>
    <TTGlyph name="backslash" xMin="177" yMin="-130" xMax="704" yMax="1486">
      <contour>
        <pt x="704" y="-99" on="1"/>
        <pt x="704" y="-130" on="0"/>
        <pt x="625" y="-130" on="1"/>
        <pt x="580" y="-130" on="0"/>
        <pt x="558" y="-53" on="1"/>
        <pt x="408" y="471" on="0"/>
        <pt x="217" y="1284" on="1"/>
        <pt x="177" y="1454" on="0"/>
        <pt x="177" y="1456" on="1"/>
        <pt x="177" y="1486" on="0"/>
        <pt x="256" y="1486" on="1"/>
        <pt x="304" y="1486" on="0"/>
        <pt x="324" y="1410" on="1"/>
        <pt x="704" y="-26" on="0"/>
      </contour>
    </TTGlyph>
    <TTGlyph name="bar" xMin="172" yMin="-352" xMax="492" yMax="1515">
      <contour>
        <pt x="172" y="-319" on="1"/>
        <pt x="172" y="-103" on="0"/>
        <pt x="372" y="1457" on="1"/>
        <pt x="379" y="1515" on="0"/>
        <pt x="436" y="1515" on="1"/>
        <pt x="454" y="1515" on="1"/>
        <pt x="492" y="1515" on="0"/>
        <pt x="492" y="1483" on="1"/>
        <pt x="492" y="1267" on="0"/>
        <pt x="292" y="-293" on="1"/>
        <pt x="284" y="-352" on="0"/>
        <pt x="228" y="-352" on="1"/>
        <pt x="210" y="-352" on="1"/>
        <pt x="172" y="-352" on="0"/>
      </contour>
    </TTGlyph>
    <TTGlyph name="braceleft" xMin="144" yMin="-315" xMax="828" yMax="1511">
      <contour>
        <pt x="315" y="598" on="1"/>
        <pt x="315" y="591" on="0"/>
        <pt x="361" y="536" on="0"/>
        <pt x="397" y="463" on="0"/>
        <pt x="397" y="343" on="0"/>
        <pt x="335" y="67" on="0"/>
        <pt x="335" y="-91" on="0"/>
        <pt x="385" y="-168" on="0"/>
        <pt x="509" y="-227" on="0"/>
        <pt x="509" y="-274" on="1"/>
        <pt x="509" y="-315" on="0"/>
        <pt x="455" y="-315" on="1"/>
        <pt x="335" y="-315" on="0"/>
        <pt x="199" y="-187" on="0"/>
        <pt x="199" y="-61" on="1"/>
        <pt x="199" y="13" on="0"/>
        <pt x="270" y="330" on="0"/>
        <pt x="270" y="463" on="0"/>
        <pt x="233" y="500" on="1"/>
        <pt x="218" y="515" on="0"/>
        <pt x="144" y="556" on="0"/>
        <pt x="144" y="578" on="1"/>
        <pt x="144" y="636" on="0"/>
        <pt x="299" y="708" on="0"/>
        <pt x="357" y="822" on="0"/>
        <pt x="432" y="1281" on="0"/>
        <pt x="529" y="1427" on="0"/>
        <pt x="690" y="1511" on="0"/>
        <pt x="783" y="1511" on="1"/>
        <pt x="806" y="1511" on="1"/>
        <pt x="828" y="1511" on="0"/>
        <pt x="828" y="1490" on="1"/>
        <pt x="828" y="1449" on="0"/>
        <pt x="796" y="1422" on="1"/>
        <pt x="792" y="1419" on="0"/>
        <pt x="628" y="1356" on="0"/>
        <pt x="550" y="1228" on="0"/>
        <pt x="486" y="833" on="0"/>
        <pt x="466" y="782" on="1"/>
        <pt x="434" y="697" on="0"/>
        <pt x="348" y="631" on="1"/>
        <pt x="314" y="605" on="0"/>
      </contour>
    </TTGlyph>
    <TTGlyph name="braceright" xMin="1" yMin="-314" xMax="672" yMax="1512">
      <contour>
        <pt x="434" y="709" on="0"/>
        <pt x="434" y="852" on="0"/>
        <pt x="499" y="1141" on="0"/>
        <pt x="499" y="1288" on="0"/>
        <pt x="458" y="1363" on="0"/>
        <pt x="327" y="1425" on="0"/>
        <pt x="327" y="1512" on="0"/>
        <pt x="373" y="1512" on="1"/>
        <pt x="483" y="1512" on="0"/>
        <pt x="617" y="1378" on="0"/>
        <pt x="617" y="1237" on="1"/>
        <pt x="617" y="1161" on="0"/>
        <pt x="554" y="875" on="0"/>
        <pt x="554" y="745" on="0"/>
        <pt x="590" y="705" on="1"/>
        <pt x="598" y="696" on="0"/>
        <pt x="672" y="648" on="0"/>
        <pt x="672" y="623" on="1"/>
        <pt x="672" y="568" on="0"/>
        <pt x="522" y="493" on="0"/>
        <pt x="464" y="370" on="0"/>
        <pt x="390" y="-80" on="0"/>
        <pt x="279" y="-237" on="0"/>
        <pt x="121" y="-314" on="0"/>
        <pt x="43" y="-314" on="1"/>
        <pt x="21" y="-314" on="1"/>
        <pt x="1" y="-314" on="0"/>
        <pt x="1" y="-294" on="1"/>
        <pt x="1" y="-231" on="0"/>
        <pt x="138" y="-193" on="0"/>
        <pt x="142" y="-191" on="1"/>
        <pt x="205" y="-165" on="0"/>
        <pt x="281" y="-26" on="0"/>
        <pt x="343" y="368" on="0"/>
        <pt x="363" y="420" on="1"/>
        <pt x="397" y="509" on="0"/>
        <pt x="474" y="562" on="1"/>
        <pt x="524" y="597" on="0"/>
        <pt x="524" y="605" on="0"/>
        <pt x="505" y="627" on="1"/>
      </contour>
    </TTGlyph>
</ttFont>
